<?xml version="1.0" encoding="utf-8"?>
<!-- Generator: Adobe Illustrator 24.3.0, SVG Export Plug-In . SVG Version: 6.00 Build 0)  -->
<svg version="1.1" id="Capa_1" xmlns="http://www.w3.org/2000/svg" xmlns:xlink="http://www.w3.org/1999/xlink" x="0px" y="0px"
	 viewBox="0 0 500 500" style="enable-background:new 0 0 500 500;" xml:space="preserve">
<style type="text/css">
	.st0{fill-rule:evenodd;clip-rule:evenodd;fill:#006AFF;}
</style>
<path class="st0" d="M374.6,233.6c8.6,0,15.7,7,15.7,15.7s-7,15.7-15.7,15.7H265.5v109.3c0,8.6-7,15.7-15.7,15.7
	c-8.6,0-15.7-7-15.7-15.7V264.9H125.4c-8.6,0-15.7-7-15.7-15.7c0-8.7,7-15.7,15.7-15.7h108.9V125.8c0-8.6,7-15.7,15.7-15.7
	c8.7,0,15.7,7,15.7,15.7v107.9L374.6,233.6L374.6,233.6z M260.8,468.6c62.5-1.1,207.9-24.7,207.9-218S322.5,32.9,259.7,31.4
	c-6-0.1-12-0.2-17.9-0.2h-4.7c-61.9,0.6-205.7,22.8-205.7,218c0,195.4,145.3,218.6,207.7,219.5C246.3,468.8,253.6,468.8,260.8,468.6
	L260.8,468.6z M260.4,0.2C309.5,1.4,500,20.8,500,250.6c0,230.4-190.9,248.3-238.5,249.2c-4.5,0.1-9.6,0.1-14.8,0.1
	c-2.7,0-5.4,0-8.1-0.1C188.3,499.2,0,481.1,0,249.2C0,17.6,186.5,0.4,236.8,0h5C248.2,0,254.8,0.1,260.4,0.2L260.4,0.2z"/>
</svg>
