<?xml version="1.0" encoding="UTF-8"?>
<!-- Generator: Adobe Illustrator 24.3.0, SVG Export Plug-In . SVG Version: 6.00 Build 0)  -->
<svg xmlns="http://www.w3.org/2000/svg" xmlns:xlink="http://www.w3.org/1999/xlink" version="1.1" id="Capa_1" x="0px" y="0px" viewBox="0 0 500 500" style="enable-background:new 0 0 500 500;" xml:space="preserve">
<style type="text/css">
	.st0{fill-rule:evenodd;clip-rule:evenodd;fill:#006AFF;}
</style>
<desc>Created with sketchtool.</desc>
<g id="Page-1">
	<g id="Sábana-de-iconos-Copy" transform="translate(-749.000000, -1744.000000)">
		<path id="ic_database_regular" class="st0" d="M1155.9,2168.2c12.2,0,16.5-4.4,16.5-16.7s-4.3-16.7-16.5-16.7    c-12.2,0-16.5,4.4-16.5,16.7C1139.5,2163.8,1143.8,2168.2,1155.9,2168.2z M1155.9,2109.6c25.9,0,41.4,15.6,41.4,41.9    s-15.5,41.9-41.4,41.9c-25.9,0-41.4-15.6-41.4-41.9S1130.1,2109.6,1155.9,2109.6z M1155.9,2010.8c12.2,0,16.5-4.4,16.5-16.7    c0-12.3-4.3-16.7-16.5-16.7c-12.2,0-16.5,4.4-16.5,16.7C1139.5,2006.4,1143.8,2010.8,1155.9,2010.8z M1155.9,1952.2    c25.9,0,41.4,15.6,41.4,41.9c0,26.2-15.5,41.9-41.4,41.9c-25.9,0-41.4-15.6-41.4-41.9C1114.6,1967.9,1130.1,1952.2,1155.9,1952.2z     M1156.4,1820.1c-12.2,0-16.5,4.4-16.5,16.7c0,12.3,4.3,16.7,16.5,16.7s16.5-4.4,16.5-16.7    C1172.9,1824.4,1168.6,1820.1,1156.4,1820.1z M1156.4,1878.7c-25.9,0-41.4-15.6-41.4-41.9c0-26.2,15.5-41.9,41.4-41.9    s41.4,15.6,41.4,41.9C1197.8,1863,1182.4,1878.7,1156.4,1878.7z M1217.4,2206.6l0.1-113.2c0-3.1-2.5-5.6-5.6-5.6h-0.1H786    c-3.1,0-5.5,2.6-5.5,5.7l-0.1,113.2c0,3.1,2.5,5.6,5.6,5.6h425.9C1215,2212.3,1217.4,2209.7,1217.4,2206.6z M780.5,1781.4    l-0.1,113.2c0,3.1,2.5,5.7,5.6,5.7h0.1h425.8c3.1,0,5.6-2.6,5.6-5.7l0.1-113.2c0-3.1-2.5-5.6-5.6-5.6H786    C783,1775.7,780.5,1778.2,780.5,1781.4z M785.9,2056.2h0.1h425.8c3.1,0,5.6-2.6,5.6-5.7l0.1-113.2c0-3.1-2.5-5.6-5.6-5.6h-0.1H786    c-3.1,0-5.5,2.5-5.5,5.6l-0.1,113.2C780.4,2053.7,782.8,2056.2,785.9,2056.2z M1248.8,1937.4l-0.1,113.2c0,8-2.6,15.3-6.8,21.3    c4.3,6.1,6.9,13.5,6.9,21.5l-0.1,113.2c0,20.5-16.5,37.2-36.8,37.2H785.9c-20.3,0-36.8-16.7-36.8-37.2l0.1-113.2    c0-8,2.5-15.3,6.7-21.3c-4.3-6.1-6.9-13.5-6.9-21.5l0.1-113.2c0-8,2.5-15.3,6.7-21.3c-4.3-6.1-6.9-13.5-6.9-21.5l0.1-113.2    c0-20.5,16.5-37.2,36.8-37.2h425.9c20.3,0,36.8,16.7,36.8,37.2l-0.1,113.2c0,8-2.5,15.3-6.8,21.3    C1246.2,1922,1248.8,1929.4,1248.8,1937.4z M818.7,1852.5c-8.6,0-15.6-7-15.6-15.8c0-8.7,7-15.8,15.6-15.8h144.3    c8.6,0,15.6,7,15.6,15.8c0,8.7-7,15.8-15.6,15.8H818.7z M962.9,1978.4c8.6,0,15.6,7,15.6,15.8c0,8.7-7,15.8-15.6,15.8H818.7    c-8.6,0-15.6-7-15.6-15.8s7-15.8,15.6-15.8H962.9z M962.9,2136.7c8.6,0,15.6,7,15.6,15.8c0,8.7-7,15.8-15.6,15.8H818.7    c-8.6,0-15.6-7-15.6-15.8c0-8.7,7-15.8,15.6-15.8H962.9z" style="fill: #006aff;"/>
	</g>
</g>
</svg>
