<?xml version="1.0" encoding="utf-8"?>
<!-- Generator: Adobe Illustrator 24.3.0, SVG Export Plug-In . SVG Version: 6.00 Build 0)  -->
<svg version="1.1" id="Capa_1" xmlns="http://www.w3.org/2000/svg" xmlns:xlink="http://www.w3.org/1999/xlink" x="0px" y="0px"
	 viewBox="0 0 500 500" style="enable-background:new 0 0 500 500;" xml:space="preserve">
<style type="text/css">
	.st0{fill-rule:evenodd;clip-rule:evenodd;fill:#006AFF;}
</style>
<path class="st0" d="M248.9,401.7c-48.5-0.1-87.9-39.4-87.9-87.9c0-48.5,39.3-87.9,87.9-88c48.5,0.1,87.9,39.4,87.9,87.9
	C336.8,362.4,297.5,401.7,248.9,401.7z M366.2,361.1c61.7,0,133.8-34.9,133.8-133.1c0-89.4-59.2-126.4-118.2-131.8
	C350.2,4.8,247.5,0,226.6,0c-27,0-159.4,7.3-164.2,150C35.2,161,0,187.6,0,251.7c0,62.7,36.2,103.9,98.4,110.2l42.1-0.1
	c18.3,41.7,59.6,70.8,107.7,70.8c26,0,50-8.7,69.5-23.1c0.1,0.1,0.2,0.4,0.4,0.6l84.7,85.4c5.9,6,15.5,6,21.5,0.1
	c0.1-0.1,0.1-0.1,0.1-0.1c6-6,6-15.7,0-21.8l-84.6-85.4c6.6-8.3,12.2-17.4,16.4-27.2L366.2,361.1L366.2,361.1z"/>
</svg>
