<?xml version="1.0" encoding="utf-8"?>
<!-- Generator: Adobe Illustrator 24.3.0, SVG Export Plug-In . SVG Version: 6.00 Build 0)  -->
<svg version="1.1" id="Capa_1" xmlns="http://www.w3.org/2000/svg" xmlns:xlink="http://www.w3.org/1999/xlink" x="0px" y="0px"
	 viewBox="0 0 500 500" style="enable-background:new 0 0 500 500;" xml:space="preserve">
<style type="text/css">
	.st0{fill-rule:evenodd;clip-rule:evenodd;fill:#006AFF;}
</style>
<desc>Created with sketchtool.</desc>
<g id="Page-1">
	<g id="Sábana-de-iconos-Copy" transform="translate(-1738.000000, -1336.000000)">
		<path id="ic_certificate_masa" class="st0" d="M2132.3,1479.6l-102.9-101.2v44.8c0,16.7,5.4,30.8,15.6,40.8
			c10.3,10.2,25,15.5,42.3,15.5L2132.3,1479.6L2132.3,1479.6z M2174.2,1482.3c0.8,1.8,1.2,3.9,1.2,6v312.5
			c0,19.1-16.1,35.1-35.2,35.1h-304.6c-18.7,0-35.2-16.4-35.2-35.1l1-83.7l-1-202.5v-0.1v-143.4c0-18.4,16.8-35.1,35.2-35.1h185.4
			c5.8,0,11.4,2.3,15.4,6.4l132.3,130.1C2171.6,1475.2,2173.2,1478.6,2174.2,1482.3z M1994.5,1542.5c44.2,0,63.9,20.1,63.9,65
			s-19.7,65-63.9,65s-63.9-20.1-63.9-65C1930.6,1562.6,1950.3,1542.5,1994.5,1542.5z M2067.7,1658.6c-0.1-0.3-0.4-0.5-0.5-0.7
			c7.4-13,11.5-29.6,11.5-50.2c0-58.3-31-85.6-84.2-85.6c-53.1,0-84.1,27.3-84.1,85.6c0,17.6,3.1,31.9,8.5,44
			c-0.6,0.7-1.2,1.4-1.6,2.2l-39.1,86.2c-2.4,5.4-1.7,11.6,2,16.2c3.6,4.6,9.5,6.7,16.4,5l23.8-8.9l9.4,25.4
			c2.7,5.1,7.8,8.3,13.4,8.3h0.4c5.8-0.1,11-3.6,13.4-9l34.3-75.8l34.3,75.8c2.4,5.3,7.6,8.8,13.4,9h0.4c5.6,0,10.8-3.1,13.9-9.5
			l8.9-24.2l25,9.3c5.6,1.1,11.5-0.8,15.2-5.4c3.7-4.6,4.4-10.8,2-16.2L2067.7,1658.6z M1963.1,1621l-1.9,11.8
			c-1.1,6.5,1.6,12.9,6.7,16.6c2.8,2.1,6.1,3.1,9.4,3.1c2.6,0,5.3-0.6,7.8-2.1l9.5-5.3l9.4,5.3c5.3,3,12.1,2.6,17.1-1
			c5.2-3.8,7.8-10.1,6.8-16.6l-1.9-11.7l8-8.3c4.4-4.6,6-11.2,3.9-17.4c-2-6-7-10.4-13.1-11.2l-10.7-1.6l-4.9-10.5
			c-5.5-11.8-24-11.7-29.5,0l-4.8,10.4l-10.7,1.6c-6,0.9-11.1,5.3-13.1,11.3c-2,6.1-0.5,12.7,3.9,17.4L1963.1,1621z"/>
	</g>
</g>
</svg>
