<?xml version="1.0" encoding="utf-8"?>
<!-- Generator: Adobe Illustrator 24.3.0, SVG Export Plug-In . SVG Version: 6.00 Build 0)  -->
<svg version="1.1" id="Capa_1" xmlns="http://www.w3.org/2000/svg" xmlns:xlink="http://www.w3.org/1999/xlink" x="0px" y="0px"
	 viewBox="0 0 500 500" style="enable-background:new 0 0 500 500;" xml:space="preserve">
<style type="text/css">
	.st0{fill-rule:evenodd;clip-rule:evenodd;fill:#006AFF;}
</style>
<path class="st0" d="M48.5,372.1C30.4,390.3,0,429.1,0,484.3c0,8.7,7,15.7,15.7,15.7c57,0,97-34.1,111.6-48.7
	c24.6-24.8,24.6-54.4,0-79.2C102.6,347.2,73.2,347.3,48.5,372.1 M380.4,376.3c1.4-13.5-1.4-27.1-8-39c-23,19.6-47.4,37.6-73.1,53.6
	c4.3,9.3,8.5,18.7,12.3,27.9c4.8,11.5,11.7,28,16.6,34.9C360.5,427.8,377.8,402,380.4,376.3z M86.3,190.2c8.3,3.5,16.6,7.2,25,11.1
	c15.9-25.8,33.7-50.4,53.2-73.5c-11.2-5.6-23.6-8-36.1-6.8c-25.8,2.6-51.7,20.3-77,52.5C58.5,178.4,74.8,185.4,86.3,190.2z
	 M457.6,32.2c-19.7-2.2-64.2,0.4-113.1,14.4l109.3,109.9c14.2-49.8,16.6-95,14.3-114C467.3,37.1,463,32.9,457.6,32.2L457.6,32.2z
	 M404.9,307.9c-3,3.1-5.9,5.8-8.8,8.5c7.1,11,18.1,33,15.4,62.2c-3.3,35.9-25.8,70.1-66.8,101.9c-6.1,5.5-14.6,7.8-22.7,5.9
	c-17.9-4.2-26.8-25.8-39.3-55.6c-3.4-8.3-7.1-16.6-10.8-24.7l-14.1,6.9c-17.9,8.3-32,12.4-43.1,12.4c-8.8,0-15.7-2.6-20.9-7.8
	L84.1,307.4c-15.2-14-5.7-41.6,4.4-64l7.3-14.7c-7.2-3.3-14.4-6.5-21.6-9.5c-29.7-12.6-51.1-21.6-55.3-39.6
	c-1.1-4.6-1.7-13.9,6.4-23.4c31.1-40.6,65.2-63.2,100.9-66.6c21-1.9,42,3.1,59.8,14.2c2.5-2.6,5-5.3,7.3-7.6
	C277,12,412.3-4.7,461.3,1c19.8,2.6,35.1,18,37.7,37.6C504.1,80.2,491.3,221.1,404.9,307.9z M314.1,201.2c-14.7,0-19.9-5.3-19.9-20
	c0-14.8,5.2-20,19.9-20c14.7,0,19.9,5.3,19.9,20S328.7,201.2,314.1,201.2L314.1,201.2z M314.1,129.7c-32,0-51.2,19.2-51.2,51.4
	s19.1,51.4,51.2,51.4s51.2-19.3,51.2-51.4S346.1,129.7,314.1,129.7z"/>
</svg>
