<?xml version="1.0" encoding="UTF-8"?>
<!-- Generator: Adobe Illustrator 24.3.0, SVG Export Plug-In . SVG Version: 6.00 Build 0)  -->
<svg xmlns="http://www.w3.org/2000/svg" xmlns:xlink="http://www.w3.org/1999/xlink" version="1.1" id="Capa_1" x="0px" y="0px" viewBox="0 0 500 500" style="enable-background:new 0 0 500 500;" xml:space="preserve">
<style type="text/css">
	.st0{fill-rule:evenodd;clip-rule:evenodd;fill:#006AFF;}
</style>
<path class="st0" d="M460.1,380.4c11-7,11.2-11,6.8-19.8c-4.6-8-13.1-11-20.8-8.4L352.3,384c-2.7,1-5.3,2.1-8,3.2  c-7.2,4.5-15.4,6.9-23.9,6.9H197.3c-8.5,0-15.3-6.8-15.3-15.3v-0.1c0-8.3,6.8-15.4,15.3-15.4h123.2c8,0,16.3-8.3,16.3-16.4  c0-7.3-4.6-14.9-12.9-14.9h-7c-20.4,0.4-63,1.4-103.2-23.8c-0.2-0.2-20.8-12-86.9-13.7v111.1L244,462.2c8.5,4.9,18.8,7.2,31.2,7.2  c10.6,0,19.4-1.6,26.5-4.9C302.3,464,422.7,404.1,460.1,380.4L460.1,380.4z M96.4,449.5V281.7c0-3.1-2.5-5.5-5.5-5.5  c-0.1,0-0.1,0-0.1,0H36.3c-3.1,0-5.6,2.4-5.7,5.5v167.8c0.1,3.1,2.6,5.7,5.7,5.8h54.4C93.8,455.2,96.4,452.6,96.4,449.5L96.4,449.5z   M493.7,346.3c7.3,13.9,14.4,40.1-17.4,60.1c-38.5,24.3-156.5,83.2-161.6,85.9c-11.4,5.1-24.7,7.8-39.6,7.8  c-17.9,0-33.2-3.7-45.5-10.9L127,439.7v9.8c0,20.1-16.1,36.4-36.3,36.4H36.3c-20,0-36.3-16.4-36.3-36.4V281.7  c0-20,16.2-36.2,36.3-36.2l0,0h54.4c13.7,0,25.3,7.6,31.6,18.6c78.7,1.3,103.9,15.7,108.4,18.8c31.6,19.8,66.7,19.1,85.7,18.6h7.9  c11.6,0.1,22.6,5.1,30.6,13.5c7.8,8.2,12.5,19.6,12.5,32.1l68.7-23.9c22.1-7.5,45.7,1.4,56.7,21.3  C492.7,344.4,493.7,346.3,493.7,346.3z M63,292.8c10.8,0,18.1,7.3,18.1,18.2c0,10.6-7.3,18-18.1,18c-10.6,0-18.1-7.4-18.1-18  C44.8,300.2,52.4,292.8,63,292.8z M331.3,30.7c-73,0-108.4,35.6-108.4,108.9s35.4,108.8,108.4,108.8c73.1,0,108.6-35.6,108.6-108.8  C439.8,66.3,404.3,30.7,331.3,30.7z M331.3,279c-89.6,0-139-49.5-139-139.4C192.2,49.5,241.6,0,331.3,0s139.1,49.6,139.1,139.5  C470.4,229.5,421,279,331.3,279z M272.5,132.3v14.4h36.4c8.5,0,15.3,6.8,15.3,15.3l0.1,36.5h14.3V162c0-8.5,6.8-15.4,15.3-15.4h36.4  v-14.4h-36.4c-8.5,0-15.3-6.9-15.3-15.4l0,0V80.5h-14.4l0.1,36.5c0,8.5-6.8,15.3-15.2,15.4l0,0C308.8,132.3,272.5,132.3,272.5,132.3  z M293.6,177.4h-28.5c-12.5,0-23.1-9.9-23.1-21.6v-32.5c0-11.7,10.6-21.6,23.1-21.6h28.5V73c0-12.6,9.9-23.2,21.5-23.2h32.4  c11.7,0,21.5,10.6,21.5,23.3v28.5h28.5c12.5,0,23.1,9.9,23.1,21.6v32.5c0,11.7-10.6,21.6-23.1,21.6H369v28.7  c0,12.6-9.8,23.2-21.5,23.2h-32.3c-11.7,0-21.5-10.6-21.5-23.2L293.6,177.4L293.6,177.4z" style="fill: #006aff;"/>
</svg>
