<?xml version="1.0" encoding="UTF-8"?>
<!-- Generator: Adobe Illustrator 24.3.0, SVG Export Plug-In . SVG Version: 6.00 Build 0)  -->
<svg xmlns="http://www.w3.org/2000/svg" xmlns:xlink="http://www.w3.org/1999/xlink" version="1.1" id="Capa_1" x="0px" y="0px" viewBox="0 0 500 500" style="enable-background:new 0 0 500 500;" xml:space="preserve">
<style type="text/css">
	.st0{fill-rule:evenodd;clip-rule:evenodd;fill:#006AFF;}
</style>
<desc>Created with sketchtool.</desc>
<g id="Page-1">
	<g id="Sábana-de-iconos-Copy" transform="translate(-749.000000, -1702.000000)">
		<path id="ic_data_regular" class="st0" d="M1144.8,1891.9c-5,8.1-18.7,19.2-43.4,26.8c-27.2,8.3-63.3,12.7-101.7,12.7    s-74.5-4.5-101.7-12.7c-25.9-7.9-39.4-18.4-44-26.3v-78c9.5,5.8,21.1,10.8,34.9,14.9c30,9.1,69.4,14.1,110.8,14.1    c41.4,0,80.7-5.1,110.8-14.1c13.6-4.1,25-9,34.4-14.6L1144.8,1891.9L1144.8,1891.9z M1144.8,2012c-4.8,8.1-18.4,19.4-43.4,27    c-27.2,8.3-63.3,12.7-101.7,12.7s-74.5-4.6-101.7-12.8c-26-7.8-39.5-18.4-44-26.3v-78.6c9.8,5.8,21.5,11,34.9,15    c30.1,9.1,69.4,14.1,110.8,14.1s80.7-5,110.8-14.1c13-3.9,24.5-9.1,34.3-15.1L1144.8,2012L1144.8,2012z M1144.8,2124.3    c0,16.4-23.8,27-43.6,33c-27.4,8.3-63.5,12.8-101.8,12.8c-38.2,0-74.3-4.6-101.7-12.7c-19.9-6-43.7-16.6-43.7-33v-69.8    c9.8,5.8,21.5,11,34.9,14.9c30.1,9.1,69.4,14.2,110.8,14.2c41.4,0,80.7-5,110.8-14.1c12.9-3.9,24.5-9.1,34.3-15.1V2124.3    L1144.8,2124.3z M897.7,1746.7c27.2-8.3,63.3-12.8,101.7-12.8c38.4,0,74.5,4.6,101.7,12.7c17,5.1,36.6,13.7,42.1,26.3    c-4.4,9.8-19.1,19-41.9,25.9c-27.2,8.2-63.2,12.7-101.7,12.7c-38.4,0-74.5-4.6-101.7-12.7c-23.1-7-37.7-16.3-42-26.2    C860.6,1762.8,874.9,1753.6,897.7,1746.7z M1110.3,1716.1c-30.1-9.1-69.5-14.1-110.9-14.1c-41.3,0-80.7,5.1-110.8,14.1    c-36.4,11-58,27.8-64.3,49.9c-1.3,4.4-1.9,9-1.9,13.7v344.6c0,28.9,22.3,50.2,66.2,63.6c30.2,9.1,69.6,14.1,110.8,14.1    c41.3,0,80.6-5,110.9-14.1c43.9-13.3,66.2-34.7,66.2-63.5v-344.6C1176.5,1750.8,1154.3,1729.4,1110.3,1716.1z" style="fill: #006aff;"/>
	</g>
</g>
</svg>
