<?xml version="1.0" encoding="utf-8"?>
<!-- Generator: Adobe Illustrator 24.3.0, SVG Export Plug-In . SVG Version: 6.00 Build 0)  -->
<svg version="1.1" id="Capa_1" xmlns="http://www.w3.org/2000/svg" xmlns:xlink="http://www.w3.org/1999/xlink" x="0px" y="0px"
	 viewBox="0 0 500 500" style="enable-background:new 0 0 500 500;" xml:space="preserve">
<style type="text/css">
	.st0{fill-rule:evenodd;clip-rule:evenodd;fill:#006AFF;}
</style>
<path class="st0" d="M364,342.8l-10.5,11L250.3,448l-101.5-94L136,340.5c-2.3-2.4-3-6-1.6-9c1.2-3.3,4.2-5.4,7.7-5.4h47.2
	c1.6,0,3.1-1.5,3.1-3.3V206.1c0-4.6,3.8-8.4,8.3-8.4H299c4.6,0,8.3,3.7,8.3,8.3c0,0,0,0,0,0.1l0.4,119.1c0,1.7,1.3,3.2,3.1,3.2h47
	c3.6,0,6.5,1.9,7.8,5.1C366.9,336.8,366.2,340.2,364,342.8 M380.7,131.5c-29.9-94.8-133.8-99.7-154.6-99.7
	c-27,0-159.6,7.5-162.6,154.6C36.8,196.4,0,222.2,0,288.5c0,81.2,55.4,110.1,107.4,110.1l57.8-0.2l71.2,66c3.8,3.2,8.8,4.9,14,4.9
	c5.2,0,10.2-1.7,14.4-5.1l72.5-66.9l31.2-0.2c21.9,0,131.4-6.3,131.4-133.3C500,152.8,416.6,134.3,380.7,131.5"/>
</svg>
