<?xml version="1.0" encoding="utf-8"?>
<!-- Generator: Adobe Illustrator 24.3.0, SVG Export Plug-In . SVG Version: 6.00 Build 0)  -->
<svg version="1.1" id="Capa_1" xmlns="http://www.w3.org/2000/svg" xmlns:xlink="http://www.w3.org/1999/xlink" x="0px" y="0px"
	 viewBox="0 0 500 500" style="enable-background:new 0 0 500 500;" xml:space="preserve">
<style type="text/css">
	.st0{fill-rule:evenodd;clip-rule:evenodd;fill:#006AFF;}
</style>
<desc>Created with sketchtool.</desc>
<g id="Page-1">
	<g id="Sábana-de-iconos-Copy" transform="translate(-917.000000, -1294.000000)">
		<path id="ic_docPicture_regular" class="st0" d="M1319.1,1762.8c2.4,0,4.8-2.4,4.8-4.3v-290h-57.8c-25.3,0-47.2-8.4-63.2-24.2
			c-16.3-16-24.8-37.7-24.8-62.9v-56.3h-163.2c-1.8,0-4.7,2.8-4.8,4.3v429.1c0,1.5,2.5,4.3,4.8,4.3H1319.1z M1311.1,1437.7
			l-102.7-101.1v44.8c0,16.7,5.4,30.8,15.6,40.8c10.3,10.2,24.9,15.5,42.2,15.5L1311.1,1437.7L1311.1,1437.7z M1353,1440.4
			c0.8,1.8,1.2,3.9,1.2,6v312.1c0,19-16.1,35.1-35.2,35.1h-304.2c-18.7,0-35.2-16.4-35.2-35.1v-429.1c0-18.4,16.8-35.1,35.2-35.1
			H1200c5.8,0,11.2,2.2,15.3,6.3l132.2,130C1350.4,1433.3,1351.9,1436.8,1353,1440.4z M1273.7,1709.8v-192.3l-213.4-0.4v192.4
			L1273.7,1709.8z M1274.1,1490.4c13.8,0,25.9,11.1,25.9,23.7v198.7c0,12.6-12.1,23.7-25.9,23.7H1060c-14.1,0-25.9-10.9-25.9-23.7
			v-198.7c0-12.9,11.9-23.7,25.9-23.7H1274.1z M1106.4,1602.2c-12,0-21.8-9.9-21.8-22.2s9.7-22.2,21.8-22.2c12,0,21.7,9.9,21.7,22.2
			S1118.4,1602.2,1106.4,1602.2z M1087.2,1689.9c-3.8,0-7.5-1.6-10.1-4.8c-4.6-5.7-3.8-14.1,1.7-18.8l62-52.5
			c5.1-4.3,12.6-4,17.4,0.6l6.8,6.5l39.6-32c4.7-3.8,11.4-3.9,16.1-0.1l38.1,29.7c5.8,4.5,6.9,12.9,2.5,18.8
			c-4.4,5.9-12.7,7-18.4,2.5l-30-23.3l-28.6,23.1l18.2,17.4c5.3,5,5.5,13.5,0.6,18.9c-5,5.3-13.3,5.6-18.5,0.6l-35.8-34.3l-53,44.9
			C1093.2,1688.9,1090.2,1689.9,1087.2,1689.9z"/>
	</g>
</g>
</svg>
