<?xml version="1.0" encoding="UTF-8"?>
<!-- Generator: Adobe Illustrator 24.3.0, SVG Export Plug-In . SVG Version: 6.00 Build 0)  -->
<svg xmlns="http://www.w3.org/2000/svg" xmlns:xlink="http://www.w3.org/1999/xlink" version="1.1" id="Capa_1" x="0px" y="0px" viewBox="0 0 500 500" style="enable-background:new 0 0 500 500;" xml:space="preserve">
<style type="text/css">
	.st0{fill-rule:evenodd;clip-rule:evenodd;fill:#006AFF;}
</style>
<desc>Created with sketchtool.</desc>
<g id="Page-1">
	<g id="Sábana-de-iconos-Copy" transform="translate(-1043.000000, -1065.000000)">
		<path id="ic_building_regular" class="st0" d="M1235.7,1534.5v-111.6c0-8.5,6.8-15.3,15-15.3h84.5c8.3,0,15,6.8,15,15.3v111.5    h95.2c2.5,0,5-2.8,5-4.4v-430.1c-0.1-1.5-3.1-4.4-5-4.4h-305c-1.9,0-4.9,2.8-5,4.4V1530c0,1.6,2.6,4.4,5,4.4L1235.7,1534.5z     M1445.5,1565.1h-305c-18.7,0-35.1-16.4-35.1-35V1100c0-18.4,16.7-35,35.1-35h305c18.4,0,35.1,16.7,35.1,35v430.1    C1480.5,1548.7,1464.2,1565.1,1445.5,1565.1z M1265.8,1533.7h54.4v-95.5h-54.4V1533.7z M1212.2,1194.7h33.9v-34.5h-33.9V1194.7z     M1261.3,1225.3h-64.1c-8.3,0-15-6.8-15-15.3v-65.1c0-8.5,6.8-15.3,15-15.3h64.1c8.3,0,15,6.8,15,15.3v65.1    C1276.3,1218.5,1269.5,1225.3,1261.3,1225.3z M1338.8,1194.7h33.9v-34.5h-33.9V1194.7z M1387.8,1225.3h-64.1    c-8.3,0-15-6.8-15-15.3v-65.1c0-8.5,6.8-15.3,15-15.3h64.1c8.3,0,15,6.8,15,15.3v65.1C1402.8,1218.5,1396.1,1225.3,1387.8,1225.3z     M1212.2,1322.6h33.9V1288h-33.9V1322.6z M1261.3,1353.2h-64.1c-8.3,0-15-6.8-15-15.3v-65.1c0-8.5,6.8-15.3,15-15.3h64.1    c8.3,0,15,6.8,15,15.3v65.1C1276.3,1346.3,1269.5,1353.2,1261.3,1353.2z M1338.8,1322.6h33.9V1288h-33.9V1322.6z M1387.8,1353.2    h-64.1c-8.3,0-15-6.8-15-15.3v-65.1c0-8.5,6.8-15.3,15-15.3h64.1c8.3,0,15,6.8,15,15.3v65.1    C1402.8,1346.3,1396.1,1353.2,1387.8,1353.2z" style="fill: #006aff;"/>
	</g>
</g>
</svg>
