<?xml version="1.0" encoding="UTF-8"?>
<!-- Generator: Adobe Illustrator 24.3.0, SVG Export Plug-In . SVG Version: 6.00 Build 0)  -->
<svg xmlns="http://www.w3.org/2000/svg" xmlns:xlink="http://www.w3.org/1999/xlink" version="1.1" id="Capa_1" x="0px" y="0px" viewBox="0 0 500 500" style="enable-background:new 0 0 500 500;" xml:space="preserve">
<style type="text/css">
	.st0{fill-rule:evenodd;clip-rule:evenodd;fill:#006AFF;}
</style>
<path class="st0" d="M236.3,369L91.1,223.5c-8.4-8.4-8.3-21.9,0-30.3s21.9-8.3,30.3,0l0,0l108.7,108.9V21.4  c0-11.8,9.6-21.4,21.5-21.4C263.4,0,273,9.6,273,21.4v280.7l106.9-107c8.3-8.5,21.8-8.8,30.3-0.6c8.5,8.3,8.8,21.8,0.6,30.3  c-0.1,0.2-0.4,0.4-0.6,0.6L266.7,369c-4.1,4-9.5,6.2-15.2,6.3C245.8,375.3,240.4,373,236.3,369z M478.6,353.4  c11.8,0,21.4,9.6,21.4,21.4v103.8c0,11.8-9.6,21.4-21.4,21.4l0,0H21.4C9.6,500,0,490.4,0,478.6l0,0V374.8  c0.4-11.8,10.4-21.1,22.3-20.6c11.2,0.4,20.2,9.4,20.6,20.6v82.4h414.3v-82.4C457.2,362.9,466.8,353.4,478.6,353.4L478.6,353.4z" style="fill: #006aff;"/>
</svg>
