<?xml version="1.0" encoding="utf-8"?>
<!-- Generator: Adobe Illustrator 24.3.0, SVG Export Plug-In . SVG Version: 6.00 Build 0)  -->
<svg version="1.1" id="Capa_1" xmlns="http://www.w3.org/2000/svg" xmlns:xlink="http://www.w3.org/1999/xlink" x="0px" y="0px"
	 viewBox="0 0 500 500" style="enable-background:new 0 0 500 500;" xml:space="preserve">
<style type="text/css">
	.st0{fill-rule:evenodd;clip-rule:evenodd;fill:#006AFF;}
</style>
<path class="st0" d="M69.4,274.1c11.4,0,19.3,8,19.3,19.3s-8,19.3-19.3,19.3s-19.3-8-19.3-19.3C50,281.9,57.9,274.1,69.4,274.1z
	 M459.5,272.8c-6.3-5.9-6.7-15.9-0.8-22.2c0.3-0.3,0.6-0.6,0.9-0.9c5.9-5.4,9.1-14.7,9.1-26.7c0-24.1-21.1-27.9-30.2-28.4h-86.1
	l-68.1-2c-8.5-0.2-15.2-7.2-15.1-15.7c0,0,0.2-60.9,0.2-107.2V69l0.1-3.1c0.1-24.7-9.6-34.6-32.2-34.6c-8.3,0-19.6,1.4-26.1,8.5
	c-4.8,5.2-6.9,13.1-6.2,23.5l0.4,4.8c0.2,2.1,0.4,4.2,0.6,6.7c0.1,0.6,0.1,1.1,0.1,1.7c0.6,29.4,1.1,67.1-1.8,97.8
	c-4.4,46.2-45.2,72.6-64.5,82.5v0.2c0,0.4,0.1,0.8,0.1,1.2v191l62.9,0.9c8.3,0,16.6,2.3,27,5.3l5.5,1.6
	c18.6,5.4,39.5,11.6,92.4,11.6c87.3,0,92.8-8.5,99.1-25.3c2.1-13.9,0.1-20.1-2.1-23.9c-4.1-7.6-1.3-17.1,6.3-21.2
	c0.5-0.3,0.9-0.5,1.4-0.7c10.5-4.3,23.1-12.7,23.1-27c0-10-2.3-17.9-6.5-22.9c-2.8-3.3-4.2-7.8-3.6-12.2c0.6-4.3,3-8.3,6.6-10.9
	c11.2-7.5,16.9-17,16.9-28C468.8,286.5,465.6,278.5,459.5,272.8L459.5,272.8z M102.8,456.9c3.1,0,5.5-2.4,5.7-5.5V258
	c-0.1-3.1-2.6-5.5-5.7-5.5H37c-3.2,0-5.8,2.6-5.8,5.8v192.8c0,3.2,2.6,5.8,5.8,5.8C37,456.9,102.8,456.9,102.8,456.9z M490.3,261.3
	c5.4,8.5,9.7,20,9.7,35.3c0,16.6-6.7,32.1-19,44.4c3.2,7.5,5.6,17.2,5.6,29.7c0,20-10.5,37.3-29.2,49c1.8,8.8,1.6,18.8-0.3,30.4
	c-0.1,0.9-0.4,1.9-0.8,2.8C442,491.6,419.2,500,327.5,500c-57.3,0-81.6-7.1-101.2-12.9l-5.3-1.5c-8-2.3-14.5-4.2-18.6-4.2l-71.2-0.9
	c-1.7,0-3.3-0.6-4.9-1c-6.6,5.5-14.9,8.6-23.5,8.7H37c-20.4,0-36.9-16.6-36.9-37V258.3c0-20.4,16.6-37,36.9-37h65.8
	c8.5,0,16.2,3,22.5,7.8c13.9-7.1,44.9-26.5,47.9-57.7c2.8-28.5,2.4-64.1,1.8-92.4l-0.1-1.1c-0.1-2.6-0.3-4.6-0.5-6.6l-0.5-5.8
	c-1.7-24.1,7-38.8,14.4-46.9c11.2-12.1,28.2-18.5,48.9-18.5c39.7,0,63.4,24,63.4,64.4l-0.1,2.5l-0.1,3.3c0,31.9-0.1,70.8-0.1,91.7
	l52.6,1.6h86.6c30.6,1.6,60.5,20.8,60.5,59.6C499.9,240.2,495.6,252.5,490.3,261.3z"/>
</svg>
