<?xml version="1.0" encoding="utf-8"?>
<!-- Generator: Adobe Illustrator 24.3.0, SVG Export Plug-In . SVG Version: 6.00 Build 0)  -->
<svg version="1.1" id="Capa_1" xmlns="http://www.w3.org/2000/svg" xmlns:xlink="http://www.w3.org/1999/xlink" x="0px" y="0px"
	 viewBox="0 0 500 500" style="enable-background:new 0 0 500 500;" xml:space="preserve">
<style type="text/css">
	.st0{fill-rule:evenodd;clip-rule:evenodd;fill:#006AFF;}
</style>
<path class="st0" d="M201.8,101.1c-10.4,10.5-15.6,27.5-15.6,50.7c0,23.1,5.3,40.1,15.5,50.5c10,10.1,26,15.2,47.5,15.2
	s37.6-5.1,47.7-15.2c10.4-10.4,15.6-27.4,15.6-50.5c0-23.2-5.3-40.2-15.7-50.6c-10.1-10.2-26.1-15.3-47.6-15.3
	C227.9,85.9,211.9,91,201.8,101.1z M249.4,250.8c-30.1,0-53.5-8.3-69.6-24.5c-16.9-16.9-25.3-42-25.3-74.5
	c0-32.6,8.5-57.6,25.3-74.6c16.2-16.4,39.6-24.6,69.7-24.6c30,0,53.5,8.3,69.7,24.6c16.9,17,25.5,42.1,25.5,74.6
	s-8.5,57.5-25.5,74.5C302.8,242.5,279.4,250.8,249.4,250.8z M89.2,207.2c-3.8,3.8-4.4,12.8-4.4,17.8c0,4.9,0.6,13.8,4.3,17.6
	c2.8,2.8,8.7,4.3,16.8,4.3s14-1.6,16.9-4.4c3.8-3.8,4.4-12.7,4.4-17.6c0-5-0.6-13.9-4.5-17.8c-2.8-2.8-8.8-4.4-16.8-4.4
	C97.8,202.8,91.9,204.4,89.2,207.2L89.2,207.2z M105.9,280.3c-16.8,0-29.9-4.6-38.9-13.7c-9.4-9.5-14.2-23.5-14.2-41.6
	c0-18.2,4.8-32.2,14.2-41.7c9-9.1,22.1-13.7,38.9-13.7s29.9,4.6,39,13.7c9.5,9.5,14.2,23.5,14.2,41.8c0,18.1-4.8,32.2-14.2,41.7
	C135.8,275.8,122.6,280.3,105.9,280.3z M377.1,208.6c-3.7,3.7-4.2,12.2-4.2,17c0,4.7,0.6,13.2,4.2,16.9c2.6,2.6,8.5,4.2,16.2,4.2
	c7.6,0,13.4-1.5,16.1-4.1c2.6-2.6,4.1-8.8,4.1-16.9c0-4.8-0.6-13.4-4.2-17.1c-2.6-2.6-8.4-4.1-16-4.1
	C385.5,204.3,379.8,205.8,377.1,208.6z M354.9,266.5c-9.3-9.2-14-23-14-40.9c0-17.9,4.7-31.7,14-41c8.9-9,21.8-13.5,38.3-13.5
	c16.4,0,29.4,4.6,38.3,13.5c9.2,9.3,13.9,23.1,13.9,41s-4.7,31.7-13.9,40.9c-8.9,9-21.8,13.4-38.3,13.4
	C376.8,280,363.9,275.4,354.9,266.5z M468,386.9v-7.3c0-12.7-3.6-23.3-10.3-30.7c-7.5-8.1-19.1-12.4-33.7-12.4l-20.9-0.1
	c8,14.4,12.5,31.6,14.2,50.4H468L468,386.9z M386.4,415.1v-13.6c0-25-6.6-45.7-19.1-60.1c-16.8-19.3-41.9-23.3-60-23.3h-116
	c-18.1,0-43.2,4.1-59.9,23.3c-12.4,14.3-18.9,35.1-18.9,60.1V415C112.5,415.1,386.4,415.1,386.4,415.1z M81.6,387.3
	c1.6-18.8,6.1-35.9,14-50.4l-19.5,0.1c-14.7,0-26.3,4.3-33.7,12.4c-6.8,7.3-10.4,17.9-10.4,30.6v7.3C32,387.3,81.6,387.3,81.6,387.3
	z M480.8,325.9c12.6,13.7,19.2,32.2,19.2,53.7v17.9c0,12.5-9.8,22.7-21.8,22.7h-59.8v16.3c0,6.6-4.8,12-10.8,12H91.4
	c-6,0-10.8-5.3-10.8-12v-15.9H21.9c-12,0-21.8-10.2-21.8-22.8V380c0-21.5,6.6-40,19.2-53.6c13.6-14.8,33.2-22.7,56.8-22.7h49.1
	c17.9-12.3,40.3-18.9,66.2-18.9h115.9c25.7,0,47.8,6.4,65.6,18.4h51.1C447.5,303.3,467.2,311.1,480.8,325.9z"/>
</svg>
