<?xml version="1.0" encoding="UTF-8"?>
<!-- Generator: Adobe Illustrator 24.3.0, SVG Export Plug-In . SVG Version: 6.00 Build 0)  -->
<svg xmlns="http://www.w3.org/2000/svg" xmlns:xlink="http://www.w3.org/1999/xlink" version="1.1" id="Capa_1" x="0px" y="0px" viewBox="0 0 500 500" style="enable-background:new 0 0 500 500;" xml:space="preserve">
<style type="text/css">
	.st0{fill-rule:evenodd;clip-rule:evenodd;fill:#006AFF;}
</style>
<desc>Created with sketchtool.</desc>
<g id="Page-1">
	<g id="Sábana-de-iconos-Copy" transform="translate(-1085.000000, -2242.000000)">
		<path id="ic_podium_regular" class="st0" d="M1370.2,2390.2L1370.2,2390.2c0.1,0.1,0.1,0.1,0.1,0l-4.9-33.9    c-0.9-5.1,1.1-11,4.9-14.6l22.3-22.6l-31.6-6.8c-5-0.8-9.7-4.2-11.9-8.7l-14.2-30l-14.9,29.7c-2.3,5-7.5,8.7-13.1,9.2l-30.4,4.6    l22.5,25c3.5,3.6,5.3,9.2,4.4,14.2l-5.3,32.6l28.7-14.1c2.3-1.3,5-1.9,7.6-1.9c2.8,0,5.8,0.8,8.2,2.2L1370.2,2390.2z     M1271.6,2358.6l-17.4-17.6c-8.6-8.7-11.5-21.5-7.6-33.2c3.8-11.5,13.5-19.8,25.3-21.5l23.4-3.6l10.6-22.4    c5.3-11.2,16.3-18.3,28.6-18.3c12.2,0,23.2,7,28.5,18.3l10.7,22.5l23.4,3.5c11.8,1.8,21.5,10,25.4,21.5    c3.8,11.7,0.9,24.5-7.7,33.2l-17.4,17.6l4.1,25.2c2,12.4-3.1,24.6-13.2,31.8c-9.7,6.8-22.8,7.6-33.1,1.9l-20.8-11.4l-20.7,11.3    c-4.7,2.6-9.9,3.9-15,3.9c-6.4,0-12.7-2-18.1-5.8c-10.2-7.3-15.1-19.4-13.2-31.8L1271.6,2358.6z M1428.7,2710.2h125.1v-80.4    h-125.1V2710.2z M1116.2,2569.4v140.7h125v-140.7H1116.2z M1397.5,2492.3h-125.1v68.2c0,0.2,0.1,0.3,0.1,0.5v149.6h125v-91.8    V2492.3z M1401.5,2741.9h-133h-23.2h-133c-15,0-27.2-10.7-27.2-23.3V2561c0-14.1,14.2-22.8,27.2-22.8h129v-51    c0-13.9,12.7-26.1,27.2-26.1h133c14.5,0,27.2,12.2,27.2,26.1v111.4h129c15.8,0,27.2,8.5,27.2,20.3v102.2    c0,11.9-11.2,20.8-27.2,20.8h-133L1401.5,2741.9L1401.5,2741.9z" style="fill: #006aff;"/>
	</g>
</g>
</svg>
