<?xml version="1.0" standalone="no"?>
<!DOCTYPE svg PUBLIC "-//W3C//DTD SVG 20010904//EN"
 "http://www.w3.org/TR/2001/REC-SVG-20010904/DTD/svg10.dtd">
<svg version="1.0" xmlns="http://www.w3.org/2000/svg"
 width="394.000000pt" height="390.000000pt" viewBox="0 0 394.000000 390.000000"
 preserveAspectRatio="xMidYMid meet">

<g transform="translate(0.000000,390.000000) scale(0.100000,-0.100000)"
fill="#000000" stroke="none">
<path d="M515 3841 c-95 -27 -178 -77 -248 -150 -212 -220 -211 -555 2 -771
177 -179 455 -218 671 -92 64 37 155 127 195 191 75 125 100 303 61 436 -57
193 -209 341 -401 390 -77 20 -205 18 -280 -4z"/>
<path d="M1822 3844 c-174 -46 -323 -182 -384 -349 -32 -90 -37 -252 -10 -342
25 -82 78 -173 135 -231 253 -260 685 -209 872 103 59 99 78 177 73 303 -5
128 -27 196 -94 295 -74 107 -189 188 -320 222 -72 19 -202 18 -272 -1z"/>
<path d="M3120 3844 c-188 -49 -340 -199 -396 -389 -21 -72 -23 -199 -5 -275
31 -130 129 -268 241 -340 313 -201 739 -32 835 330 19 71 19 200 0 273 -50
192 -210 352 -401 401 -76 20 -200 20 -274 0z"/>
<path d="M1816 2545 c-190 -52 -340 -205 -391 -395 -19 -72 -19 -211 0 -285
48 -181 202 -336 390 -391 79 -23 211 -23 290 0 188 55 342 210 390 391 19 74
19 213 0 285 -51 193 -202 344 -395 395 -68 18 -218 18 -284 0z"/>
<path d="M1880 1260 c-216 -33 -401 -198 -455 -405 -19 -74 -19 -213 0 -285
51 -193 202 -344 395 -395 70 -19 210 -19 280 0 193 51 344 202 395 395 19 72
19 211 0 285 -47 180 -204 338 -385 388 -74 21 -163 27 -230 17z"/>
</g>
</svg>
