<?xml version="1.0" encoding="UTF-8"?>
<!-- Generator: Adobe Illustrator 24.3.0, SVG Export Plug-In . SVG Version: 6.00 Build 0)  -->
<svg xmlns="http://www.w3.org/2000/svg" xmlns:xlink="http://www.w3.org/1999/xlink" version="1.1" id="Capa_1" x="0px" y="0px" viewBox="0 0 500 500" style="enable-background:new 0 0 500 500;" xml:space="preserve">
<style type="text/css">
	.st0{fill:#006AFF;}
</style>
<g id="Artwork">
	<path class="st0" d="M250,250.4c-39.5,0-70.3-10.4-91.7-30.9c-22.1-21.3-33.4-53-33.4-94.1s11.2-72.8,33.4-94.2   C179.7,10.5,210.5,0,250,0s70.4,10.5,91.8,31.1c22.3,21.4,33.5,53.1,33.5,94.2s-11.3,72.8-33.6,94.1   C320.4,240,289.5,250.4,250,250.4z M250,28.4c-31.9,0-56,7.8-71.9,23.1c-16.4,15.9-24.7,40.7-24.7,73.8s8.3,57.8,24.7,73.6   c15.8,15.2,40,23,71.9,23s56.2-7.8,72.1-23c16.4-15.8,24.8-40.5,24.8-73.5C346.9,60.2,315.1,28.4,250,28.4z" style="fill: #006aff;"/>
	<path class="st0" d="M458,500H42c-7.8,0-14.2-6.4-14.2-14.2v-41.6c0-39.8,12.4-73.8,35.8-98.2c25.6-26.7,63.6-40.8,110-40.8h152.6   c46.4,0,84.5,14.1,110.1,40.8c23.6,24.5,36.1,58.5,36.1,98.3v41.6C472.3,493.6,465.9,500,458,500L458,500z M56.2,471.6h387.6v-27.4   c0-32.3-9.7-59.5-28.1-78.6c-20.5-21.3-50.6-32-89.6-32H173.5c-39,0-69.1,10.7-89.4,32c-18.3,19.1-28,46.2-28,78.6L56.2,471.6z" style="fill: #006aff;"/>
</g>
</svg>
