<?xml version="1.0" encoding="UTF-8"?>
<!-- Generator: Adobe Illustrator 24.3.0, SVG Export Plug-In . SVG Version: 6.00 Build 0)  -->
<svg xmlns="http://www.w3.org/2000/svg" xmlns:xlink="http://www.w3.org/1999/xlink" version="1.1" id="Capa_1" x="0px" y="0px" viewBox="0 0 500 500" style="enable-background:new 0 0 500 500;" xml:space="preserve">
<style type="text/css">
	.st0{fill:#006AFF;}
</style>
<g id="Artwork">
	<path class="st0" d="M367.7,382H215.1c-21.3,0-40.1-7.2-54.6-20.7c-15-14.2-24.8-34.6-28.9-60.7C128.3,279,94.8,84.1,90.1,58.3   c-3.1-17.1-20.8-29.9-41.5-29.9H14.3c-7.8,0-14.2-6.4-14.2-14.2S6.5,0,14.3,0h34.4c34.7,0,63.9,22.4,69.5,53.3   c1.5,8.2,5.8,33.2,11.2,64.4h356.1c7.8,0,14.2,6.3,14.2,14.2c0,1.4-0.2,2.8-0.6,4.1c-11.7,39.4-43.2,146.4-48.3,165.9   c-6.8,26-16.6,45.2-30,58.6C406.6,374.8,388.7,382,367.7,382z M134.2,146.2c10.9,63.4,23.5,137.1,25.5,150   c3.1,19.7,9.9,34.6,20.3,44.4c9.2,8.6,20.9,12.9,35.1,12.9h152.6c17.4,0,42-6,55.6-58.7c4.8-18.4,29.9-104,43.2-148.7H134.2z" style="fill: #f2f4ff;"/>
	<path class="st0" d="M215.1,499.9c-12.7,0-22.9-3.6-30.3-10.7c-7.8-7.5-11.7-17.9-11.7-31.2s3.9-23.8,11.7-31.2   c7.4-7.1,17.6-10.7,30.3-10.7c12.7,0,22.9,3.6,30.3,10.7c7.8,7.5,11.7,17.9,11.7,31.2s-3.9,23.8-11.7,31.2   C238,496.3,227.8,499.9,215.1,499.9z M215.1,444.4c-10.4,0-13.5,3.1-13.5,13.5s3.1,13.5,13.5,13.5s13.5-3.1,13.5-13.5   S225.4,444.4,215.1,444.4z" style="fill: #f2f4ff;"/>
	<path class="st0" d="M353.8,499.9c-12.7,0-22.9-3.6-30.3-10.7c-7.8-7.5-11.7-17.9-11.7-31.2s3.9-23.8,11.7-31.2   c7.4-7.1,17.6-10.7,30.3-10.7c12.7,0,22.9,3.6,30.3,10.7c7.7,7.5,11.7,17.9,11.7,31.2s-3.9,23.8-11.7,31.2   C376.7,496.3,366.6,499.9,353.8,499.9z M353.8,444.4c-10.4,0-13.5,3.1-13.5,13.5s3.1,13.5,13.5,13.5s13.5-3.1,13.5-13.5   S364.1,444.4,353.8,444.4z" style="fill: #f2f4ff;"/>
</g>
</svg>
