<?xml version="1.0" encoding="UTF-8"?>
<!-- Generator: Adobe Illustrator 24.3.0, SVG Export Plug-In . SVG Version: 6.00 Build 0)  -->
<svg xmlns="http://www.w3.org/2000/svg" xmlns:xlink="http://www.w3.org/1999/xlink" version="1.1" id="Capa_1" x="0px" y="0px" viewBox="0 0 500 500" style="enable-background:new 0 0 500 500;" xml:space="preserve">
<style type="text/css">
	.st0{fill-rule:evenodd;clip-rule:evenodd;fill:#006AFF;}
</style>
<desc>Created with sketchtool.</desc>
<g id="Page-1">
	<g id="Sábana-de-iconos-Copy" transform="translate(-1169.000000, -1846.000000)">
		<path id="ic_wallet_regular" class="st0" d="M1638.3,2192.5v-73.3c0-3.3-2.6-5.8-5.7-5.8h-202.4c-21.4,0-38.8,17.9-38.8,39.8v5.4    c0,21.9,17.4,39.8,38.8,39.8h202.4C1635.8,2198.3,1638.3,2195.7,1638.3,2192.5z M1599.8,2270.4l-0.1-40.6h-169.5    c-38.3,0-69.5-32-69.5-71.3v-5.4c0-39.3,31.2-71.3,69.5-71.3h169.1l-0.1-38.1c0.6-11.6-2-20.3-7.4-26.3c-5.5-6-13.9-9.2-24.2-9.3    l-335.7,0.1v-0.2c-11.5,0-22.5-3.4-32.2-9.3v42.5v16.4V2268c-0.6,11.4,2,20.1,7.5,26c5.5,6.1,14.3,9.5,24.7,9.5l335.7-0.1    c8.6,0,16.6-3.4,22.7-9.7C1596.4,2287.6,1599.8,2279.2,1599.8,2270.4z M1199.8,1942.5v0.9c0,8,2.9,15.7,8.1,21.7    c0.7-20.6,17.4-37.1,37.9-37.1l285.1-20.5v-18.9l-298,21c-9.6,0.1-17.7,3.5-23.8,9.7C1203.2,1925.5,1199.8,1933.7,1199.8,1942.5z     M1546.3,1938l-299.4,21.5c-5.1,0.1-8.5,3.1-8.5,6.9v8.6c0,0.5-0.2,1-0.3,1.5l322.8,0.1v-32.2c0-3.8-3.3-6.9-7.4-6.9L1546.3,1938    C1546.4,1938,1546.4,1938,1546.3,1938L1546.3,1938z M1632.6,2081.8c20.1,0,36.4,16.7,36.4,37.3v73.3c0,20.6-16.4,37.3-36.4,37.3    h-2.2l0.1,40.6c0,17.2-6.5,33.4-18.4,45.6c-11.9,12.2-27.7,18.9-44.5,18.9l-335.9,0.1c-18.9-0.1-35.6-7.1-46.9-19.5    s-16.8-29.1-15.8-48.4v-209.5l0,0v-115c0-17.2,6.5-33.4,18.4-45.6c11.9-12.2,27.7-18.9,44.5-18.9l313.3-22.1    c4.6-0.1,8.5,1.2,11.5,4.2c3.1,3,4.8,7.1,4.8,11.5v35.4c17.5,4,30.1,19.1,30.1,37.3v36.6c8.7,3.3,16.4,8.2,22.5,14.8    c11.3,12.4,16.7,29.2,15.7,48.7l0.1,37.3L1632.6,2081.8L1632.6,2081.8z M1435.1,2132.5c13.7,0,24.8,11.4,24.8,25.4    c0,14-11.1,25.4-24.8,25.4c-13.7,0-24.7-11.4-24.7-25.4C1410.4,2143.9,1421.4,2132.5,1435.1,2132.5z" style="fill: #f2f4ff;"/>
	</g>
</g>
</svg>
