<?xml version="1.0" encoding="UTF-8"?>
<!-- Generator: Adobe Illustrator 24.3.0, SVG Export Plug-In . SVG Version: 6.00 Build 0)  -->
<svg xmlns="http://www.w3.org/2000/svg" xmlns:xlink="http://www.w3.org/1999/xlink" version="1.1" id="Capa_1" x="0px" y="0px" viewBox="0 0 500 500" style="enable-background:new 0 0 500 500;" xml:space="preserve">
<style type="text/css">
	.st0{fill-rule:evenodd;clip-rule:evenodd;fill:#006AFF;}
</style>
<desc>Created with sketchtool.</desc>
<g id="Page-1">
	<g id="Sábana-de-iconos-Copy" transform="translate(-1127.000000, -2158.000000)">
		<path id="ic_brain_regular" class="st0" d="M1491.6,2578.5c-0.1,0-0.2-0.1-0.3-0.1c-4.3,0-10.2-1.7-16.3-5.6    c-6.3-4.1-10.4-8.5-12-13c-3.1-8.8-12.9-13.5-21.8-10.5c-9,3-13.9,12.5-10.7,21.4c4.1,11.9,12.7,22.1,25.7,30.4    c3.3,2.1,6.8,3.9,10.1,5.4c-7.8,12-20.5,18-38.4,18c-22.5,0-31.5-23.1-33.7-29.7c0.1-5.8,0.1-20,0-23.5v-326.5    c0-4.4,0.1-20.2,0.2-26.9c2.9-6.7,13.2-26.3,33.5-26.3c18.1,0,30.5,5.8,38.3,17.8c-16.8,8-28.1,23.1-33.4,37.8l-1.6,4.6l32.9,10    l1.1-3.5c2.8-7.8,9.9-20.6,26-20.9c0.1,0,0.1,0,0.2,0c72.3,0,80.1,65,80.1,93c0,7.8-1.1,31-11,52.2c-11.5-7.2-23.6-11.3-34.6-13.4    c0.9-11.5-3.9-22.4-11.7-30.4c-0.1-0.1-1.7-1.8-1.8-1.9c-6.5-6.8-16.7-6.2-23.6,0.2s-6.4,17.9,0.1,24.6c2.3,2.4,2.8,4.1,2.3,5.8    h-0.1c-2.6,0.3-5.8,0.6-8.8,1c-2.6,0.4-6.2,1-10.5,1.9c-9.3,2.1-15,11.1-12.9,20.2c2.1,9.1,11.5,14.8,20.6,12.6    c3-0.6,5.5-1.1,7.3-1.4c2.5-0.3,5.3-0.6,7.7-0.9c8.7-0.9,38.1-2.1,57.1,17.6c18.1,23.8,19.6,57.1,19.6,66.8    C1571.8,2513.4,1564,2577.3,1491.6,2578.5 M1326,2624.5c-17.7,0-30-5.7-37.8-17.2c4-1.6,8-3.6,12-6.2c13-8.3,21.6-18.5,25.7-30.4    c3.1-8.8-1.8-18.4-10.7-21.4c-9-3-18.8,1.7-21.8,10.5c-1.6,4.6-5.6,9-12,13c-6,3.9-11.8,5.6-16.3,5.6c-0.8-0.1-1.5,0.2-2.3,0.3    c-0.2,0-0.4-0.1-0.6-0.1c-72.3,0-80.1-65.1-80.1-93c0-8.2,1.1-33.3,12.5-55.3c5.1,1.8,10.5,3.1,16.5,3.7    c1.6,15.7,12.7,26.9,26.1,31.9c0.3,0.1,2.7,1,3,1.1c1.8,0.6,3.6,0.9,5.3,0.9c6.8,0,12.9-4.5,15.5-11.4c3.3-8.6-2.3-18.6-11-21.9    c-3.3-1.2-4.4-2.6-4.6-4.4c20.9-8.6,30.7-28.3,32.6-46.5l0.4-4.6c0.5-9.3-6.7-17.2-16.2-17.8c-9.8-0.5-17.7,6.5-18.2,15.9    l-0.3,3.1c-2.3,22.6-20.9,20.9-27,20.6c-7-0.6-12.2-2.5-15.8-5.2c-17.1-23.7-18.6-55.7-18.6-65.2c0-28,7.8-93,82.1-93    c0.1,0,0.1,0,0.1,0c16.2,0,23.9,13,26.7,20.7l1.4,4.1c2.3,7,8.9,11.2,16,11.2c1.9,0,3.8-0.3,5.6-0.9c9-2.8,13.8-12.8,10.9-21.6    l-1.3-3.8c-5.5-15.3-17.2-30.7-35.3-38.4c7.9-11.3,20.2-17.2,37.7-17.2c22.5,0,31.5,23.1,33.7,29.7c-0.1,5.8-0.1,20,0,23.5v326.5    c0,4.4-0.1,20.1-0.2,26.9C1356.6,2604.9,1346.4,2624.5,1326,2624.5 M1606.2,2330.5c0-55.5-27-119.9-104-126    c-12.5-29.8-38.9-46.5-74.4-46.5c-24.3,0-40.7,12.1-51.2,24.6c-11.1-13.3-27.5-24.6-50.6-24.6c-35.4,0-61.8,16.7-74.3,46.3    c-76.5,5.4-104.1,70.3-104.1,126.3c0,14.2,2.1,48.1,20,77.5c-17.9,29.5-20,63.4-20,77.6c0,55.5,27,119.9,104,126    c12.5,29.7,38.9,46.5,74.4,46.5c24.3,0,40.7-12.1,51.2-24.6c11.1,13.3,27.5,24.6,50.6,24.6c35.4,0,61.8-16.7,74.3-46.3    c76.6-5.4,104.1-70.3,104.1-126.3c0-14.2-2.1-48-20-77.5C1604.1,2378.6,1606.2,2344.7,1606.2,2330.5" style="fill: #f2f4ff;"/>
	</g>
</g>
</svg>
