<?xml version="1.0" encoding="UTF-8"?>
<!-- Generator: Adobe Illustrator 24.3.0, SVG Export Plug-In . SVG Version: 6.00 Build 0)  -->
<svg xmlns="http://www.w3.org/2000/svg" xmlns:xlink="http://www.w3.org/1999/xlink" version="1.1" id="Capa_1" x="0px" y="0px" viewBox="0 0 500 500" style="enable-background:new 0 0 500 500;" xml:space="preserve">
<style type="text/css">
	.st0{fill:#006AFF;}
</style>
<g id="Artwork">
	<path class="st0" d="M81.8,486.2c-13.9,0-26.1-11.8-26.1-25.3v-59.4C23.5,395,0,366.3,0,331V85.6C0,46,32.5,13.7,72.4,13.7H428   c39.9,0,72.3,32.3,72.3,71.9v245.4c0,39.7-32.4,71.9-72.3,71.9H159.9l-56,71.7C95.2,486.2,85.1,486.2,81.8,486.2z M72.3,42.2   c-24.1,0-43.8,19.5-43.8,43.5v245.4c0,24.8,17.8,43.5,41.4,43.5c7.8,0,14.2,6.4,14.2,14.2v64.9l57.6-73.6c2.7-3.4,6.8-5.5,11.3-5.5   h275c24.1,0,43.8-19.5,43.8-43.5V85.6c0-24-19.7-43.5-43.8-43.5L72.3,42.2z" style="fill: #f2f4ff;"/>
	<path class="st0" d="M401.8,167.7H98.3c-7.8,0-14.2-6.4-14.2-14.2c0-7.8,6.4-14.2,14.2-14.2h303.5c7.8,0,14.2,6.4,14.2,14.2   C416,161.3,409.6,167.7,401.8,167.7z" style="fill: #f2f4ff;"/>
	<path class="st0" d="M304.5,278.8H98.3c-7.8,0-14.2-6.4-14.2-14.2c0-7.8,6.4-14.2,14.2-14.2h206.2c7.8,0,14.2,6.4,14.2,14.2   C318.8,272.4,312.4,278.8,304.5,278.8z" style="fill: #f2f4ff;"/>
</g>
</svg>
