<?xml version="1.0" encoding="UTF-8"?>
<!-- Generator: Adobe Illustrator 24.3.0, SVG Export Plug-In . SVG Version: 6.00 Build 0)  -->
<svg xmlns="http://www.w3.org/2000/svg" xmlns:xlink="http://www.w3.org/1999/xlink" version="1.1" id="Capa_1" x="0px" y="0px" viewBox="0 0 500 500" style="enable-background:new 0 0 500 500;" xml:space="preserve">
<style type="text/css">
	.st0{fill-rule:evenodd;clip-rule:evenodd;fill:#006AFF;}
</style>
<desc>Created with sketchtool.</desc>
<g id="Page-1">
	<g id="Sábana-de-iconos-Copy" transform="translate(-1212.000000, -2464.000000)">
		<path id="ic_encrypteddoc_regular" class="st0" d="M1614.3,2933.1c2.4,0,4.8-2.4,4.8-4.3v-290.4h-57.8c-25.3,0-47.2-8.4-63.3-24.2    c-16.2-15.9-24.8-37.8-24.8-63v-56.3h-163.4c-1.8,0-4.7,2.8-4.8,4.3v429.7c0,1.5,2.5,4.3,4.8,4.3H1614.3z M1606.3,2607.6    l-102.9-101.2v44.8c0,16.7,5.4,30.8,15.6,40.8c10.3,10.2,25,15.5,42.3,15.5H1606.3z M1648.2,2610.3c0.8,1.8,1.2,3.9,1.2,6v312.5    c0,19.1-16.1,35.1-35.2,35.1h-304.6c-18.7,0-35.2-16.4-35.2-35.1v-429.7c0-18.4,16.8-35.1,35.2-35.1h185.4    c5.8,0,11.2,2.3,15.4,6.3l132.4,130.2C1645.6,2603.2,1647.2,2606.6,1648.2,2610.3z M1317.9,2592.6c0-28.5,8.8-43.5,32-43.5    c23.2,0,32,14.9,32,43.5c0,28.6-8.8,43.3-32,43.3C1326.7,2636,1317.9,2621.2,1317.9,2592.6z M1363.7,2592.6    c0-23.1-3.9-30.7-13.8-30.7s-13.8,7.5-13.8,30.7s3.9,29.3,13.8,29.3S1363.7,2615.7,1363.7,2592.6z M1394.7,2728    c0-28.6,8.8-43.5,32-43.5c23.2,0,32,14.9,32,43.5c0,28.6-8.8,43.3-32,43.3S1394.7,2756.5,1394.7,2728z M1440.4,2728    c0-23.1-3.9-30.7-13.8-30.7s-13.8,7.5-13.8,30.7c0,23.1,3.9,29.3,13.8,29.3C1436.6,2757.3,1440.4,2751.1,1440.4,2728z     M1477.2,2728c0-28.6,8.8-43.5,32-43.5c23.2,0,32,14.9,32,43.5c0,28.6-8.8,43.3-32,43.3S1477.2,2756.5,1477.2,2728z M1523,2728    c0-23.1-3.9-30.7-13.8-30.7s-13.8,7.5-13.8,30.7c0,23.1,3.9,29.3,13.8,29.3C1519.1,2757.3,1523,2751.1,1523,2728z M1475.1,2858.4    c0-28.5,8.8-43.5,32-43.5c23.2,0,32,14.9,32,43.5c0,28.6-8.8,43.3-32,43.3C1483.9,2901.7,1475.1,2886.9,1475.1,2858.4z     M1520.8,2858.4c0-23.1-3.9-30.7-13.8-30.7s-13.8,7.5-13.8,30.7s3.9,29.3,13.8,29.3C1517,2887.7,1520.8,2881.4,1520.8,2858.4z     M1327.6,2757.8h14v-58.2h-13.4v-11.7c4.9-0.7,13.2-1.4,19.1-1.4c8.5,0,11.5,2.1,11.5,8.2v63.2h11.8v12.3h-43L1327.6,2757.8    L1327.6,2757.8z M1405.6,2622.9h14v-58.2h-13.4V2553c4.9-0.7,13.2-1.4,19.1-1.4c8.5,0,11.5,2.1,11.5,8.2v63.2h11.8v12.3h-43    V2622.9z M1561.9,2757.8h14v-58.2h-13.4v-11.7c4.9-0.7,13.2-1.4,19.1-1.4c8.5,0,11.5,2.1,11.5,8.2v63.2h11.8v12.3h-43    L1561.9,2757.8L1561.9,2757.8z M1561.9,2887.8h14v-58.2h-13.4v-11.7c4.9-0.7,13.2-1.4,19.1-1.4c8.5,0,11.5,2.1,11.5,8.2v63.2h11.8    v12.3h-43L1561.9,2887.8L1561.9,2887.8z M1406.8,2887.8h14v-58.2h-13.4v-11.7c4.9-0.7,13.2-1.4,19.1-1.4c8.5,0,11.5,2.1,11.5,8.2    v63.2h11.8v12.3h-43V2887.8L1406.8,2887.8z M1329.7,2887.8h14v-58.2h-13.4v-11.7c4.9-0.7,13.2-1.4,19.1-1.4    c8.5,0,11.5,2.1,11.5,8.2v63.2h11.8v12.3h-43V2887.8L1329.7,2887.8z" style="fill: #f2f4ff;"/>
	</g>
</g>
</svg>
