<?xml version="1.0" encoding="UTF-8"?>
<!-- Generator: Adobe Illustrator 24.3.0, SVG Export Plug-In . SVG Version: 6.00 Build 0)  -->
<svg xmlns="http://www.w3.org/2000/svg" xmlns:xlink="http://www.w3.org/1999/xlink" version="1.1" id="Capa_1" x="0px" y="0px" viewBox="0 0 500 500" style="enable-background:new 0 0 500 500;" xml:space="preserve">
<style type="text/css">
	.st0{fill-rule:evenodd;clip-rule:evenodd;fill:#006AFF;}
</style>
<desc>Created with sketchtool.</desc>
<g id="Page-1">
	<g id="Sábana-de-iconos-Copy" transform="translate(-791.000000, -694.000000)">
		<path id="ic_team_regular" class="st0" d="M1166.2,878.3c-5,4.6-6,13.7-6,20.5c0,6.8,1,15.8,6,20.3c4.9,4.6,14.2,5.5,21.2,5.5    c7,0,16.2-0.9,21.1-5.4c4.9-4.6,5.9-13.5,5.9-20.3c0-6.8-1.1-15.9-6-20.5c-4.9-4.6-14.2-5.4-21.1-5.4    C1180.4,872.9,1171.2,873.8,1166.2,878.3z M1144.6,940.9c-10.4-9.5-15.7-23.7-15.7-42.1c0-18.4,5.3-32.7,15.7-42.3    c10-9.2,24.4-13.9,42.8-13.9c18.5,0,32.8,4.6,42.8,13.9c10.3,9.6,15.5,23.8,15.5,42.3c0,18.4-5.3,32.6-15.5,42.1    c-10,9.2-24.3,13.9-42.8,13.9C1168.9,954.8,1154.5,950.1,1144.6,940.9z M873.6,878.1c-4.9,4.6-6,13.7-6,20.5    c0,6.8,1.1,15.8,5.9,20.3c4.8,4.5,14.2,5.4,21.1,5.4s16.2-0.9,21.2-5.5c4.9-4.6,6-13.5,6-20.3s-1.1-15.9-6-20.5    c-5-4.6-14.2-5.5-21.1-5.5C887.8,872.6,878.4,873.6,873.6,878.1z M894.7,954.7c-18.4,0-32.8-4.7-42.8-13.9    c-10.3-9.5-15.6-23.7-15.6-42.1c0-18.4,5.3-32.7,15.6-42.3c10-9.2,24.3-13.9,42.8-13.9s32.9,4.6,42.8,13.9    c10.4,9.6,15.7,23.8,15.7,42.3c0,18.4-5.3,32.6-15.7,42.2C927.5,950,913.1,954.7,894.7,954.7z M1039.2,810.4    c-8.7-0.1-15.7-6.8-15.6-15.2l0.4-65.3c0.1-8.3,7-15,15.7-15h0.1c8.7,0.1,15.7,6.8,15.6,15.2l-0.4,65.3    C1054.9,803.7,1047.9,810.4,1039.2,810.4L1039.2,810.4z M971.2,825.5l-29.4-28.7c-6-5.9-6-15.4,0.1-21.3    c6.1-5.8,16.1-5.8,22.1,0.1l29.4,28.7c6,5.9,6,15.5-0.1,21.4c-3.1,2.9-7,4.4-11,4.4C978.3,830,974.3,828.5,971.2,825.5z     M1096.4,830c-3.9,0-8-1.4-11-4.3c-6.2-5.8-6.2-15.4-0.1-21.3l29.4-28.7c6-6,16-6,22.2-0.1c6.1,5.8,6.2,15.4,0.1,21.3l-29.4,28.7    C1104.5,828.5,1100.5,830,1096.4,830z M1258.6,1142.9l1-101.2c0-6.9-1.4-16.5-8-23.1c-7.4-7.5-19.7-9-28.7-9h-71.1    c-0.9,0-2.1-0.1-3.1,0c-0.1,0-0.2,0-0.3,0c-3.3,0.1-6.8-0.1-10.2,0c-3.8,0.1-9.5,0-12.9-1.2c-2.7-0.9-7.7-4.4-9.6-6.5    c-2.1-2.3-7.8-10.1-7.8-10.1l-50.8-65.9v36.1l35.8,45.3l15.5,19.6c0,0,3.6,4.1,5,7.3c1.3,2.8,1.6,9,1.6,10.9l-0.4,31.9l-0.7,66.1    h87v-69.3c0-8.4,7-15.1,15.7-15.1s15.7,6.8,15.7,15.1v69.3L1258.6,1142.9L1258.6,1142.9z M1024.9,961.7v-36.1l-50.8,66    c0,0-5.7,7.8-7.8,10.1c-1.9,2.2-6.9,5.6-9.6,6.5c-3.3,1.2-9.2,1.3-12.9,1.2c-3.5-0.1-7,0.1-10.2,0h-0.3c-1,0-2.1,0-3.1,0h-71.1    c-9,0-21.3,1.6-28.7,9c-6.5,6.6-8,16.2-8,23.1l1,101.2h26.4v-69.3c0-8.3,7-15.1,15.7-15.1s15.7,6.8,15.7,15.1v69.3h87l-0.6-66.2    l-0.4-31.9c0-1.9,0.4-8,1.6-10.9c1.4-3.1,5-7.3,5-7.3l15.5-19.6L1024.9,961.7z M1274.3,997.6c11,11,16.7,26.2,16.7,44.1    l-1.3,125.1c0,3.5-3,6.3-6.6,6.3H1089c-3.6,0-6.6-2.8-6.6-6.3l1.2-121.5l-42.6-53.9l-42.5,53.8l1.3,121.5c0,3.6-3,6.3-6.7,6.3    H798.9c-3.7,0-6.6-2.8-6.6-6.3l-1.3-125.1c0-17.9,5.8-33.1,16.7-44.1c12-12,29.7-18.3,51.3-18.3h71.1c4.8,0,9.3,0.4,13.7,1.1    l84-109l0.1-0.1l0.1-0.2c0.2-0.3,0.6-0.5,0.8-0.7c0.8-0.9,1.6-1.8,2.6-2.5c0.4-0.3,0.9-0.4,1.3-0.6c0.9-0.5,1.8-1.1,2.8-1.4    c0.1-0.1,0.2,0,0.3-0.1c0.2-0.1,0.4-0.1,0.6-0.1c1.4-0.4,2.8-0.6,4.2-0.6c0.4,0,0.6,0.1,1,0.1c1.3,0.1,2.5,0.2,3.7,0.6    c0.1,0,0.1,0.1,0.1,0.1l-0.1-0.1c0.1,0,0.1,0,0.1,0s0.1,0.1,0.1,0.1c0.2,0.1,0.3,0.1,0.5,0.1c0.1,0.1,0.2,0,0.3,0.1    c1.1,0.4,1.9,0.9,2.9,1.4c0.4,0.2,0.9,0.4,1.2,0.6c1,0.7,1.8,1.6,2.6,2.5c0.3,0.3,0.6,0.4,0.8,0.8l0.1,0.1l0.1,0.1l84,109.1    c4.3-0.6,8.9-1,13.7-1h71.1C1244.6,979.4,1262.3,985.7,1274.3,997.6z" style="fill: #f2f4ff;"/>
	</g>
</g>
</svg>
