<?xml version="1.0" encoding="UTF-8"?>
<!-- Generator: Adobe Illustrator 24.3.0, SVG Export Plug-In . SVG Version: 6.00 Build 0)  -->
<svg xmlns="http://www.w3.org/2000/svg" xmlns:xlink="http://www.w3.org/1999/xlink" version="1.1" id="Capa_1" x="0px" y="0px" viewBox="0 0 500 500" style="enable-background:new 0 0 500 500;" xml:space="preserve">
<style type="text/css">
	.st0{fill:#006AFF;}
</style>
<g>
	<path class="st0" d="M429.8,135.5L291.1,3.9c-2.6-2.5-6.2-3.9-9.8-3.9H93.9C79.4,0,65.8,13.7,65.8,28.1v443.8   c0,14.9,13.2,28.1,28.1,28.1h312.2c14.9,0,28.1-13.2,28.1-28.1V145.8C434.2,141.9,432.6,138.2,429.8,135.5z M398.9,145.4h-55.4   c-16.5,0-30.4-5.2-40.2-14.9c-9.7-9.7-14.9-23.6-14.9-40.2V40.6L398.9,145.4z M405.6,471.6h-311c-0.1-0.1-0.3-0.2-0.4-0.3V29   c0.1-0.2,0.4-0.4,0.6-0.6H260v61.9c0,24.3,8.1,45.1,23.3,60.3c15.1,15.2,36.1,23.3,60.3,23.3h62.2v297.5L405.6,471.6z" style="fill: #f2f4ff;"/>
	<path class="st0" d="M340,395.1H159.7c-7.8,0-14.2,6.4-14.2,14.2c0,7.8,6.4,14.2,14.2,14.2H340c7.8,0,14.2-6.4,14.2-14.2   S347.8,395.1,340,395.1z" style="fill: #f2f4ff;"/>
	<path class="st0" d="M340,318.8H159.7c-7.8,0-14.2,6.4-14.2,14.2s6.4,14.2,14.2,14.2H340c7.8,0,14.2-6.4,14.2-14.2   S347.8,318.8,340,318.8z" style="fill: #f2f4ff;"/>
	<path class="st0" d="M340,242.5H159.7c-7.8,0-14.2,6.4-14.2,14.2c0,7.8,6.4,14.2,14.2,14.2H340c7.8,0,14.2-6.4,14.2-14.2   S347.8,242.5,340,242.5z" style="fill: #f2f4ff;"/>
</g>
</svg>
