<?xml version="1.0" encoding="UTF-8"?>
<!-- Generator: Adobe Illustrator 24.3.0, SVG Export Plug-In . SVG Version: 6.00 Build 0)  -->
<svg xmlns="http://www.w3.org/2000/svg" xmlns:xlink="http://www.w3.org/1999/xlink" version="1.1" id="Capa_1" x="0px" y="0px" viewBox="0 0 500 500" style="enable-background:new 0 0 500 500;" xml:space="preserve">
<style type="text/css">
	.st0{fill:#006AFF;}
</style>
<g id="Artwork">
	<path class="st0" d="M464.4,28.4c3.9,0,7.1,3.2,7.1,7.1V228c0,3.9-3.2,7.1-7.1,7.1c0,0,0,0-0.1,0c-1.8,0-3.7-0.8-5-2.1l-32.8-32.8   l-5.2-5.2l0,0c-1.8,1.6-3.6,3.1-5.2,4.9l-172.9,173c-2.8,2.8-7.2,2.8-10,0L126.7,266.4c-2.8-2.8-2.8-7.2,0-10L299.6,83.4   c2.8-2.8,2.8-7.2,0-10l-32.8-32.8c-2.8-2.8-2.8-7.2,0-10c1.4-1.4,3.1-2.1,5-2.1h192.4 M464.4,0H271.9c-19.6,0-35.5,15.9-35.5,35.5   c0,9.5,3.8,18.5,10.4,25.2l17.7,17.7L106.6,236.2c-13.9,13.9-13.9,36.4,0,50.2L213.1,393c13.9,13.9,36.4,13.9,50.2,0l157.8-157.9   l18,18.1c6.6,6.7,15.6,10.4,25.1,10.4c19.6,0,35.5-15.9,35.6-35.5V35.5C499.8,15.9,484,0,464.4,0L464.4,0z" style="fill: #f2f4ff;"/>
	<path class="st0" d="M14.3,499.5c-7.8,0-14.2-6.3-14.2-14.2c0-3.8,1.5-7.4,4.2-10.1l117.5-117.5c5.5-5.6,14.4-5.8,20.1-0.4   c5.6,5.5,5.8,14.4,0.4,20.1c-0.1,0.1-0.2,0.2-0.4,0.4L24.3,495.3C21.7,498,18.1,499.5,14.3,499.5z" style="fill: #f2f4ff;"/>
	<path class="st0" d="M142.1,499.6c-7.8,0-14.2-6.4-14.2-14.2c0-3.8,1.5-7.4,4.2-10c26.4-26.4,57.6-59.1,58-59.4   c5.3-5.8,14.4-6,20.1-0.7s6,14.4,0.7,20.1c-0.1,0.1-0.1,0.1-0.2,0.3c-0.3,0.4-31.8,33.2-58.4,59.8   C149.5,498.1,145.8,499.6,142.1,499.6z" style="fill: #f2f4ff;"/>
	<path class="st0" d="M15.6,373.1c-7.8,0-14.2-6.4-14.2-14.2c0-3.8,1.5-7.4,4.1-10c26.4-26.4,57.6-59.1,58-59.4   c5.3-5.8,14.4-6,20.1-0.7c5.8,5.3,6,14.4,0.7,20.1c-0.1,0.1-0.1,0.1-0.2,0.3c-0.3,0.4-31.8,33.2-58.4,59.8   C23,371.6,19.3,373.1,15.6,373.1z" style="fill: #f2f4ff;"/>
</g>
</svg>
