<?xml version="1.0" encoding="UTF-8"?>
<!-- Generator: Adobe Illustrator 24.3.0, SVG Export Plug-In . SVG Version: 6.00 Build 0)  -->
<svg xmlns="http://www.w3.org/2000/svg" xmlns:xlink="http://www.w3.org/1999/xlink" version="1.0" id="Capa_1" x="0px" y="0px" viewBox="0 0 500 500" style="enable-background:new 0 0 500 500;" xml:space="preserve">
<style type="text/css">
	.st0{fill-rule:evenodd;clip-rule:evenodd;fill:#006AFF;}
</style>
<path class="st0" d="M465.9,391.1c-3.9,4.6-12,5.7-17.9,5.8c-38.4,0.6-400.3-0.1-404.3,0c-2.8-0.4-5.5-1.6-7.5-3.5  c-4.6-4.4-5.5-12.6-5.5-18.6V153.5l173.5,109.1c1.1,0.8,18.4,13,42.2,13c12,0,25.6-3.1,39.7-12.3l183.2-110.4L469,374.8l0.2,2.4  C469.2,377.3,470.4,385.9,465.9,391.1 M44,103.8l413,0.1c0.4,0,8.7,0.3,11.5,14L269.7,237.7c-24.5,16-46.6,1-48.2-0.2L31.3,117.9  c0.6-4.1,2-8.7,4.6-11.4C37.1,105.3,39.2,103.8,44,103.8 M499.6,373.8l0.4-248.3c-1.1-43.5-31.1-52.7-43.3-52L44.1,73.4  c-12.2,0-22.8,4.3-30.5,12.4C-1,101,0,124.2,0.2,125.9v248.8c0,17.3,4.9,30.9,14.7,40.3c12.4,12.1,28,12.5,29.2,12.2  c9.8,0,165.5,0.4,281.7,0.4c60.1,0,109.6-0.1,122.8-0.4c22.6-0.4,34.9-9.5,41.1-16.9C501.2,396.3,500.3,379.3,499.6,373.8" style="fill: #f2f4ff;"/>
</svg>
