<?xml version="1.0" encoding="UTF-8"?>
<!-- Generator: Adobe Illustrator 24.3.0, SVG Export Plug-In . SVG Version: 6.00 Build 0)  -->
<svg xmlns="http://www.w3.org/2000/svg" xmlns:xlink="http://www.w3.org/1999/xlink" version="1.0" id="Capa_1" x="0px" y="0px" viewBox="0 0 500 500" style="enable-background:new 0 0 500 500;" xml:space="preserve">
<style type="text/css">
	.st0{fill-rule:evenodd;clip-rule:evenodd;fill:#006AFF;}
</style>
<path class="st0" d="M186.8,477c-18.1,3.3-33,0.6-44-7.6c-11.1-8.2-18.1-21.9-21.3-40.8c-6-38.1,10-61.5,46.6-68  c5-0.9,9.8-1.1,14.2-1.1c12,0,21.9,2.8,29.9,8.9c11,8.3,18.1,22,21.3,40.8C239.4,447.2,223.3,470.7,186.8,477z M204.3,201.7  c-0.6-3.1,0.9-5.4,2.1-5.7l65.2-11.2l9.4,58.4c0.9,5.2,5.2,9.1,10.2,9.1c0.6,0,1.3-0.2,1.6-0.2l50.4-8.7c2.8-0.6,5.2-2.3,6.9-4.6  c1.7-2.3,2.3-5.3,1.6-8l-9.2-58.5l56.9-9.7h0.4c1.6,0,3.1,2.6,3.3,4.3L427,313.8c0.4,3.1-1.1,5.4-2.3,5.7l-193,33.4  c-1.9,0.6-3.6-2.4-3.7-4.3L204.3,201.7z M329.6,223.6l-29.9,5.2l-7.5-47.6L322,176C321.9,176,329.6,223.6,329.6,223.6z M178.8,46.7  l43-7.2l6.7,41.1c0.4,2.8,1.9,5.4,4.2,7c1.8,1.3,3.9,1.9,6,2h1.6l37.6-6.5c5.8-1.2,9.6-6.8,8.5-12.6L280.1,30l42.6-7.2l20.1,127.4  l-143.2,23.9L178.8,46.7L178.8,46.7z M259.4,33.3l4.8,30l-16.9,3.1l-4.8-30.2C242.5,36,259.4,33.3,259.4,33.3z M457.1,364.4  l-204.6,35.4c-2.1-9.7-5-19.1-9.4-27l185.1-32.2c13-2.1,21.5-15.9,19.2-30.5l-23.6-146.9c-1-6.6-4.3-12.7-9.4-17.1  c-5.2-4.3-11.9-6.5-18.4-5.2l-32.6,5.6c0-0.4,0.2-0.9,0-1.1L343.2,19.1c-0.8-5.6-3.6-10.7-8-14.3c-4.3-3.8-10.2-5.5-15.9-4.6  L175.4,25.4c-5.2,0.9-9.8,3.8-12.7,8.3c-3.6,5-4.8,11.3-3.8,17.6l20.3,126.3c0.6,4.8,3.1,9.2,6.5,12.4c-1.9,4.8-2.9,9.7-2.1,15.2  l21.9,136.5c-9.2-3.1-19.6-4.2-30.7-3.5L127.6,43.4c-0.8-4.3-4.1-7.8-8.3-8.9L44,20c-5.7-1-11.1,2.8-12.1,8.5c0,0.1,0,0.1,0,0.1  c-1.1,5.8,2.6,11.4,8.3,12.6l67.9,13.2l46.2,287.3c-40.9,11.3-61,44.3-53.4,90.4c3.8,24.3,14.2,43.3,29.7,54.8  c11.5,8.7,25.9,13,42.2,13c5.7,0,11.5-0.4,17.4-1.6c23.6-4.1,41.8-14.7,52.9-31c8.6-12.5,12.8-28.2,12.3-45.9l205.4-35.9  c5.7-0.9,9.5-6.5,8.6-12.5C468.1,367.3,462.7,363.1,457.1,364.4z" style="fill: #f2f4ff;"/>
</svg>
