<?xml version="1.0" encoding="UTF-8"?>
<!-- Generator: Adobe Illustrator 24.3.0, SVG Export Plug-In . SVG Version: 6.00 Build 0)  -->
<svg xmlns="http://www.w3.org/2000/svg" xmlns:xlink="http://www.w3.org/1999/xlink" version="1.1" id="Capa_1" x="0px" y="0px" viewBox="0 0 500 500" style="enable-background:new 0 0 500 500;" xml:space="preserve">
<style type="text/css">
	.st0{fill-rule:evenodd;clip-rule:evenodd;fill:#006AFF;}
</style>
<desc>Created with sketchtool.</desc>
<g id="Page-1">
	<g id="Sábana-de-iconos-Copy" transform="translate(-875.000000, -1024.000000)">
		<path id="ic_map_regular" class="st0" d="M1343,1470.4l-81.7-13.4v-398.1l81.7,13.4V1470.4z M907,1072.4l86.6-13.7v398.2    l-86.6,13.7V1072.4L907,1072.4z M1140.9,1089.2l88.4-27.5v397.1l-88.4,27.5V1089.2z M1025.5,1062l83.6,27.1V1486l-83.6-27.1V1062z     M1361.5,1043l-113.6-18.7c-0.4-0.1-0.8,0.1-1.1,0.1c-0.5-0.1-0.9-0.3-1.4-0.3c-1.1,0-2,0.4-3,0.6c-0.6,0.1-1.2-0.1-1.8,0.1    l-115.5,35.9l-110.6-35.8c-0.6-0.2-1.2,0-1.8-0.1c-1.1-0.2-2-0.6-3.1-0.6c-0.5,0-0.9,0.2-1.4,0.3c-0.4,0.1-0.7-0.1-1.1-0.1    L888.4,1043c-7.8,1.2-13.4,8-13.4,15.8v430.4c0,4.7,2.1,9.1,5.6,12.1c3.6,3.1,8.2,4.3,12.9,3.6l114.8-18.1l111.8,36.3    c1.6,0.5,3.3,0.8,4.9,0.8c1.6,0,3.2-0.3,4.8-0.7l116.7-36.3l109.9,18.1c4.6,0.7,9.3-0.6,12.9-3.6c3.6-3.1,5.6-7.5,5.6-12.2v-430.5    C1374.9,1050.9,1369.2,1044.3,1361.5,1043z" style="fill: #f2f4ff;"/>
	</g>
</g>
</svg>
