<?xml version="1.0" encoding="UTF-8"?>
<!-- Generator: Adobe Illustrator 24.3.0, SVG Export Plug-In . SVG Version: 6.00 Build 0)  -->
<svg xmlns="http://www.w3.org/2000/svg" xmlns:xlink="http://www.w3.org/1999/xlink" version="1.1" id="Capa_1" x="0px" y="0px" viewBox="0 0 500 500" style="enable-background:new 0 0 500 500;" xml:space="preserve">
<style type="text/css">
	.st0{fill-rule:evenodd;clip-rule:evenodd;fill:#006AFF;}
</style>
<desc>Created with sketchtool.</desc>
<g id="Page-1">
	<g id="Sábana-de-iconos-Copy" transform="translate(-875.000000, -1065.000000)">
		<path id="ic_museum_regular" class="st0" d="M1252.9,1459.1h29.7v-199.4h-29.7V1459.1z M907.5,1533.7h435.1v-43.3H907.5V1533.7z     M968.2,1459.1H998v-199.4h-29.7L968.2,1459.1L968.2,1459.1z M1110.5,1459.1h29.7v-199.4h-29.7V1459.1z M1029.2,1459.1h50.2    v-199.4h-50.2V1459.1z M1171.5,1459.1h50.2v-199.4h-50.2V1459.1z M1125,1099.7l184.6,128.6h-11.2c-0.1,0-0.1-0.1-0.2-0.1    c-0.1,0-0.1,0.1-0.2,0.1h-60.6c-0.1,0-0.1-0.1-0.2-0.1s-0.1,0.1-0.2,0.1h-80.9c-0.1,0-0.1-0.1-0.2-0.1s-0.1,0.1-0.2,0.1h-60.6    c-0.1,0-0.1-0.1-0.2-0.1s-0.1,0.1-0.2,0.1h-80.9c-0.1,0-0.1-0.1-0.2-0.1s-0.1,0.1-0.2,0.1h-60.6c-0.1,0-0.1-0.1-0.2-0.1    c-0.1,0-0.1,0.1-0.2,0.1h-12L1125,1099.7z M1359.4,1259.6c6.8,0,12.9-4.4,14.9-11c2-6.5-0.4-13.6-6-17.6l-234.4-163.4    c-5.3-3.7-12.4-3.7-17.8,0l-234.4,163.4c-5.6,3.9-8,11-6,17.5c2.1,6.5,8,11,14.9,11H937V1459h-45.2c-8.6,0-15.6,7-15.6,15.7v74.6    c0,8.6,7,15.7,15.6,15.7h466.3c8.6,0,15.6-7,15.6-15.7v-74.6c0-8.6-7-15.7-15.6-15.7h-44.3v-199.4L1359.4,1259.6L1359.4,1259.6z" style="fill: #f2f4ff;"/>
	</g>
</g>
</svg>
