<?xml version="1.0" encoding="UTF-8"?>
<!-- Generator: Adobe Illustrator 24.3.0, SVG Export Plug-In . SVG Version: 6.00 Build 0)  -->
<svg xmlns="http://www.w3.org/2000/svg" xmlns:xlink="http://www.w3.org/1999/xlink" version="1.1" id="Artwork" x="0px" y="0px" viewBox="0 0 500 500" style="enable-background:new 0 0 500 500;" xml:space="preserve">
<style type="text/css">
	.st0{fill:#006AFF;}
</style>
<g>
	<path class="st0" d="M364.2,87.1c-5.9-4.4-13.3-5.7-20.3-3.6L26.7,179c-1.4-6-6.8-10.5-13.2-10.5c-7.5,0-13.6,6-13.6,13.6v133.9   c0,7.5,6,13.6,13.6,13.6c6.5,0,11.8-4.4,13.2-10.5l81.4,24.5l-4.7,14.9c-3.4,10.9,2.7,22.6,13.6,26.1l57.5,18c2.1,0.7,4.2,1,6.2,1   c3.3,0,6.6-0.8,9.6-2.4c5-2.6,8.6-6.9,10.2-12.2l5-16l138.3,41.6c2.2,0.6,4.5,1,6.7,1c4.8,0,9.6-1.6,13.7-4.6   c6.2-4.5,9.9-12.1,9.9-19.9V107.1C374.1,99.2,370.5,91.7,364.2,87.1z M176.2,374.1L132,360.2l1.8-5.7l44.3,13.9L176.2,374.1z    M347,387.2L28,291.1v-84.2l319.1-96V387.2z" style="fill: #f2f4ff;"/>
	<path class="st0" d="M485.2,229.3h-55.4c-7.7,0-13.8,6.2-13.8,13.8c0,7.7,6.2,13.8,13.8,13.8h55.4c7.7,0,13.8-6.2,13.8-13.8   C499,235.4,492.8,229.3,485.2,229.3z" style="fill: #f2f4ff;"/>
	<path class="st0" d="M438.7,336.8c-5.4-5.4-14.2-5.4-19.6,0c-5.4,5.4-5.4,14.2,0,19.6l38.2,38.2c2.7,2.7,6.2,4,9.8,4s7.1-1.3,9.8-4   c5.4-5.4,5.4-14.2,0-19.6L438.7,336.8z" style="fill: #f2f4ff;"/>
	<path class="st0" d="M428.1,152.8c3.5,0,7.1-1.3,9.8-4l39.2-39.2c5.4-5.4,5.4-14.2,0-19.6c-5.4-5.4-14.2-5.4-19.6,0l-39.2,39.2   c-5.4,5.4-5.4,14.2,0,19.6C421,151.5,424.5,152.8,428.1,152.8z" style="fill: #f2f4ff;"/>
</g>
</svg>
