<?xml version="1.0" encoding="UTF-8"?>
<!-- Generator: Adobe Illustrator 24.3.0, SVG Export Plug-In . SVG Version: 6.00 Build 0)  -->
<svg xmlns="http://www.w3.org/2000/svg" xmlns:xlink="http://www.w3.org/1999/xlink" version="1.1" id="Capa_1" x="0px" y="0px" viewBox="0 0 500 500" style="enable-background:new 0 0 500 500;" xml:space="preserve">
<style type="text/css">
	.st0{fill-rule:evenodd;clip-rule:evenodd;fill:#006AFF;}
</style>
<desc>Created with sketchtool.</desc>
<g id="Page-1">
	<g id="Sábana-de-iconos-Copy" transform="translate(-875.000000, -2116.000000)">
		<path id="ic_win_regular" class="st0" d="M1264.5,2519.1l40.6,14.9l-59-128c-22.8,20.3-53.6,31.9-91.3,35.4l61.6,133.6l15.2-40.8    C1236.6,2521,1251.4,2514.3,1264.5,2519.1z M1030.6,2575l62.1-134.7c-37.1-5.3-66.8-19.3-88.1-42.3l-62.8,136.3l40.7-15.1    c13.1-4.8,27.9,1.9,32.9,15L1030.6,2575z M1129.5,2147.7c-89.9,0-131.8,41.9-131.8,131.8c0,89.9,41.9,131.7,131.8,131.7    c90,0,131.9-41.8,131.9-131.7C1261.3,2189.5,1219.4,2147.7,1129.5,2147.7z M1339.8,2533.8c4.1,9,2.8,19.3-3.4,27    c-6.2,7.6-16,11-25.6,8.9l-51.7-18.8l-18.6,49.8c-5.3,10.2-13.9,15.5-23.5,15.5h-0.7c-9.9-0.3-18.6-6-22.6-14.9l-70.2-152.2    l-70.1,152.2c-4.1,9-12.8,14.7-22.6,14.9c-0.3,0-0.5,0-0.8,0c-9.5,0-18.2-5.2-22.7-13.7l-19.4-51.6l-49.7,18.3    c-11.6,2.7-21.3-0.7-27.6-8.3c-6.2-7.7-7.5-18-3.3-26.9l75.8-164.5c0.2-0.5,0.6-0.9,0.9-1.3c-11.7-23.6-17.9-53.1-17.9-88.5    c0-111.2,60.2-163.3,163.4-163.3s163.5,52.1,163.5,163.3c0,41.5-8.4,74.7-24.2,100L1339.8,2533.8z M1105.1,2262.6l-29.5,4.5    l21.7,21.3c3.6,3.6,5.3,9.5,4.5,14.5l-5,30.2l25-14.4c4.8-2.7,10.7-2.6,15.4,0l25,13.7l-5.1-29.7c-0.9-5,1-10.7,4.6-14.3    l21.1-21.5l-28.8-4.2c-5.4-0.8-10.2-4.6-12.4-9.6l-12.9-27.2l-11.7,27.7C1114.9,2258.1,1110.3,2261.7,1105.1,2262.6z M1069.4,2305    l-15.8-16.1c-8.4-8.5-11.2-20.8-7.4-32.2c3.7-11.2,13.2-19.1,24.7-20.9l21.2-3.2l9.6-20.3c5.2-11,15.9-17.7,27.8-17.7    s22.6,6.8,27.8,17.7l9.7,20.3l21.1,3.2c11.5,1.7,20.9,9.7,24.7,20.9c3.8,11.5,0.9,23.8-7.4,32.2l-15.8,16.1l3.8,22.9    c2,12-2.8,23.8-12.7,30.8c-9.5,6.7-22.2,7.4-32.3,1.9l-18.8-10.3l-18.7,10.2c-4.6,2.6-9.7,3.8-14.7,3.8c-6.2,0-12.3-1.9-17.6-5.7    c-9.8-6.9-14.7-18.7-12.7-30.8L1069.4,2305z" style="fill: #f2f4ff;"/>
	</g>
</g>
</svg>
