<?xml version="1.0" encoding="UTF-8"?>
<!-- Generator: Adobe Illustrator 24.3.0, SVG Export Plug-In . SVG Version: 6.00 Build 0)  -->
<svg xmlns="http://www.w3.org/2000/svg" xmlns:xlink="http://www.w3.org/1999/xlink" version="1.1" id="Capa_1" x="0px" y="0px" viewBox="0 0 500 500" style="enable-background:new 0 0 500 500;" xml:space="preserve">
<style type="text/css">
	.st0{fill-rule:evenodd;clip-rule:evenodd;fill:#006AFF;}
</style>
<desc>Created with sketchtool.</desc>
<g id="Page-1">
	<g id="Sábana-de-iconos-Copy" transform="translate(-1169.000000, -2158.000000)">
		<path id="ic_puzzle_regular" class="st0" d="M1200.4,2553.6v55.6c0,3.1,2.4,5.6,5.5,5.6h319.2c2.9,0,5.3-2.6,5.3-5.6V2533    c0-5.2,2.4-10.1,6.5-13.1c4.1-3.1,9.4-3.8,14.2-2.1c8.5,3,16.6,3.6,21.9,3.8c1.4,0,3.3,0,4.8-0.1c18.9-0.4,59.6-7,59.6-62.7    c0-53.2-36.6-62.4-58.5-63h-7c-3.2,0-11.7,0.4-21.2,3.5c-4.7,1.6-10,0.7-14.1-2.3c-4.1-3-6.4-7.8-6.4-13v-68.2    c0-3.1-2.3-5.7-5.3-5.7h-86.9c-5.1,0-9.7-2.4-12.7-6.6c-3-4.1-3.8-9.5-2.3-14.4c2.4-7.8,3.6-16.2,3.6-25.7    c0-53.5-36.8-62.5-58.7-63.1h-6.8c-21.3,0.3-57.4,8.8-57.4,62.6c0,9.7,1.2,18.4,3.6,26.2c1.5,4.9,0.6,10.2-2.3,14.4    c-3,4.1-7.7,6.6-12.7,6.6H1206c-3.1,0-5.5,2.6-5.5,5.7l0.1,47.9c4.6,0.1,16.8,0.7,30.4,5.5c21.8,6.9,59.2,27.9,59.2,89.8    c0,61.7-37.4,82.8-59.7,89.9c-12.7,4.3-24.1,5-29.7,5C1200.7,2553.6,1200.6,2553.6,1200.4,2553.6 M1525.1,2647.1h-319.2    c-20.3,0-36.9-17-36.9-37.8V2537c0-4.6,1.9-9,5.3-12.1c3.3-3.1,7.8-4.6,12.3-3.9c3.1,0.4,5.7,0.6,7.5,0.6h0.9c1.4,0,2.8,0,4.1-0.1    c4.6-0.1,12.6-0.4,21.8-3.6c25.2-8,37.8-27.9,37.8-59.2c0-31.4-12.6-51.3-37.6-59.1c-9.8-3.5-18.5-3.8-21.3-4h-6.8    c-1.4,0.1-3.8,0.1-6.8,0.5c-4.6,0.5-8.9-1-12.2-4c-3.3-3.1-5.2-7.4-5.2-12v-64.5c0-20.9,16.6-37.8,36.9-37.8h67.4    c-0.5-4.8-0.8-9.8-0.8-14.9c0-69.1,45.8-94.3,88.6-94.8h7.4c43.5,1.2,89.7,26.8,89.7,95.3c0,5-0.3,9.8-0.8,14.4h67.7    c20.3,0,36.7,17,36.7,37.8v48.4c4.3-0.5,7.8-0.6,10.2-0.6h7.2h0.4c43.1,1.3,89.2,27,89.2,95.3c0,69.1-48.1,94.3-89.2,94.8    c-1.1,0.1-4.2,0.2-7.2,0.2c-2.1-0.1-5.9-0.2-10.7-0.8v56.3C1561.9,2630.1,1545.4,2647.1,1525.1,2647.1" style="fill: #f2f4ff;"/>
	</g>
</g>
</svg>
