<?xml version="1.0" encoding="UTF-8"?>
<!-- Generator: Adobe Illustrator 24.3.0, SVG Export Plug-In . SVG Version: 6.00 Build 0)  -->
<svg xmlns="http://www.w3.org/2000/svg" xmlns:xlink="http://www.w3.org/1999/xlink" version="1.1" id="Capa_1" x="0px" y="0px" viewBox="0 0 500 500" style="enable-background:new 0 0 500 500;" xml:space="preserve">
<style type="text/css">
	.st0{fill-rule:evenodd;clip-rule:evenodd;fill:#006AFF;}
</style>
<desc>Created with sketchtool.</desc>
<g id="Page-1">
	<g id="Sábana-de-iconos-Copy" transform="translate(-917.000000, -2980.000000)">
		<path id="ic_thunder_regular" class="st0" d="M1113.7,3400l48.1-125.6c1.6-4.2,1.4-8.9-0.6-12.9s-5.6-6.9-9.9-8l-95.7-23.7    l153.7-165l-46.1,117c-1.6,4.2-1.4,9,0.6,13c2,4.1,5.6,7,9.9,8l105.3,26L1113.7,3400z M1323.2,3215.9c-1.5-5.4-5.7-9.5-11-10.9    l-114.4-28.2l69.1-175.4c2.7-6.9,0.3-14.9-5.8-18.9c-6.1-4.1-14.1-3.1-19.1,2.3l-226.5,243.2c-3.8,4-5.1,9.8-3.6,15.2    c1.5,5.3,5.7,9.5,11,10.7l104.5,25.8l-68.6,179.1c-2.6,6.9-0.2,14.7,5.8,18.7c2.6,1.7,5.4,2.6,8.3,2.6c3.9,0,7.8-1.6,10.7-4.6    l235.9-244.4C1323.2,3227.2,1324.7,3221.3,1323.2,3215.9z" style="fill: #f2f4ff;"/>
	</g>
</g>
</svg>
