<?xml version="1.0" encoding="UTF-8"?>
<!-- Generator: Adobe Illustrator 24.3.0, SVG Export Plug-In . SVG Version: 6.00 Build 0)  -->
<svg xmlns="http://www.w3.org/2000/svg" xmlns:xlink="http://www.w3.org/1999/xlink" version="1.1" id="Capa_1" x="0px" y="0px" viewBox="0 0 500 500" style="enable-background:new 0 0 500 500;" xml:space="preserve">
<style type="text/css">
	.st0{fill-rule:evenodd;clip-rule:evenodd;fill:#006AFF;}
</style>
<path class="st0" d="M466.3,387.1c2.3-2.3,2.3-6,0-8.4l-82.5-82.5l-33.5,33c-6.3,6.2-16.4,6-22.6-0.2c-6.2-6.3-6-16.4,0.2-22.6  l33.4-32.8l-29.9-29.9l-52.5,52.4c-6.2,6.3-16.3,6.3-22.5,0.1l-0.1-0.1c-6.3-6.3-6.3-16.4,0-22.6l52.4-52.4l-30-29.9L249.4,220  c-6.3,6.2-16.3,6.1-22.5-0.1l-0.1-0.1c-6.2-6.3-6.1-16.4,0.2-22.6l0,0l29.2-28.7l-29.9-29.9l-58.6,58.6c-6.2,6.3-16.2,6.3-22.5,0.1  l-0.1-0.1c-6.3-6.3-6.3-16.4,0-22.6l58.6-58.6l-29.9-29.9l-27.5,26.9c-6.3,6.2-16.4,6.1-22.5-0.1l-0.1-0.1  c-6.2-6.3-6.1-16.4,0.2-22.6l0,0l27.1-26.7l-30-30c-2.3-2.3-6-2.3-8.3,0l-79.3,79.3c-2.3,2.3-2.3,6,0,8.3l345.1,345  c2.3,2.3,6.1,2.3,8.3,0C387.1,466.3,466.3,387.1,466.3,387.1z M488.9,356.1c14.7,14.8,14.7,38.8,0,53.6l-79.2,79.2  c-7.4,7.4-17.1,11.1-26.8,11.1s-19.4-3.7-26.8-11.1l-345-345c-14.7-14.8-14.7-38.8,0-53.6l79.2-79.2c14.8-14.8,38.8-14.8,53.6,0  C143.9,11.1,488.9,356.1,488.9,356.1z M396.5,390.4c2.8-4.9,1.2-11.2-3.7-14.2c0,0-0.1,0-0.1-0.1c-5-2.9-11.3-1.2-14.2,3.8  c-2.9,5-1.2,11.3,3.8,14.2c2.4,1.4,5.3,1.8,8,1.1C392.9,394.5,395.1,392.8,396.5,390.4L396.5,390.4z M403.4,357.7  c15.2,8.7,20.3,27.9,11.7,43c-0.1,0.1-0.1,0.1-0.1,0.3c-8.7,15.2-28,20.4-43.2,11.7c-0.1,0-0.1-0.1-0.1-0.1  c-15.2-8.8-20.3-28.2-11.6-43.3c4.3-7.3,11.1-12.6,19.3-14.8C387.5,352.4,396.1,353.4,403.4,357.7z" style="fill: #f2f4ff;"/>
</svg>
