<?xml version="1.0" encoding="UTF-8"?>
<!-- Generator: Adobe Illustrator 24.3.0, SVG Export Plug-In . SVG Version: 6.00 Build 0)  -->
<svg xmlns="http://www.w3.org/2000/svg" xmlns:xlink="http://www.w3.org/1999/xlink" version="1.1" id="Capa_1" x="0px" y="0px" viewBox="0 0 500 500" style="enable-background:new 0 0 500 500;" xml:space="preserve">
<style type="text/css">
	.st0{fill-rule:evenodd;clip-rule:evenodd;fill:#006AFF;}
</style>
<path class="st0" d="M19.2,128.9c0-6,4.8-10.8,10.7-10.8h15.2c-0.4-4.4-0.9-8.6-0.9-13.3c0-2,0.4-3.6,0.4-5.5H29.8  c-5.9-0.1-10.7-4.9-10.7-10.8c0-6,4.8-10.8,10.7-10.8h16.9c8.9-48.8,42.9-75.4,98.4-75.4c20,0,37.4,3.4,51.8,10.2  c5.3,2.6,7.7,9,5.2,14.4c-2.4,5.3-8.7,7.8-14,5.3c-0.1,0-0.1-0.1-0.1-0.1c-11.5-5.4-26-8.2-42.8-8.2c-43.7,0-68.7,17.9-76.7,53.8  h60.5c5.9,0,10.7,4.8,10.7,10.8c0,6-4.8,10.8-10.7,10.8H65.8c-0.1,1.8-0.4,3.6-0.4,5.5c0,4.8,0.4,9,0.9,13.4H129  c5.9,0,10.7,4.8,10.7,10.8c0,6-4.8,10.8-10.7,10.8H70.2c9.7,30.8,34.5,45.9,74.9,45.9c17.1,0,31.7-2.8,43.2-8.4  c5.3-2.5,11.7-0.1,14.2,5.2l0,0c2.6,5.4,0.2,11.8-5.1,14.4c-14.4,7-32.1,10.5-52.4,10.5c-52.4,0-85.4-23.9-96.5-67.5H29.8  C23.9,139.8,19.2,134.9,19.2,128.9L19.2,128.9L19.2,128.9z M402.6,24.7l-64.6,66.2l26.1,0.2c8.2,0.2,14.7,7,14.4,15.2v0.1l0.1,62.9  c0,0.9,0.7,1.7,1.6,1.7h0.1h44.5c0.9,0,1.6-0.7,1.6-1.6l-0.1-63.2c-0.1-8,6.2-14.7,14.2-15l26.5-0.2  C467.1,90.8,402.6,24.7,402.6,24.7z M322.1,112.3c-5.6-0.1-10.7-3.3-13-8.5c-2.4-5.3-1.7-11.5,1.9-16.1l81.2-83.1  c1.5-2.1,4.9-4.1,8.7-4.6c4.9-0.6,9.8,1.4,12.9,5.3L493.3,87c4.3,5.3,5,11.7,2.6,16.9c-2.3,5.1-7.4,8.4-13,8.5l-35.1,0.3l0.1,56.6  c0,12.9-10.3,23.3-23,23.3h-44.5c-12.8-0.1-23-10.5-23-23.3l-0.1-56.6C357.3,112.6,322.1,112.3,322.1,112.3z M459.1,472.1  c5.8-1.8,19.6-6.8,19.6-13.7v-30.2c-4.3,2.3-8.7,4.1-13.3,5.5c-15.1,4.6-34.9,7.2-55.6,7.2c-20.8,0-40.5-2.6-55.6-7.2  c-4.7-1.4-9.2-3.3-13.6-5.5v30.1c0,7,13.7,12,19.6,13.8C386.6,480.1,432.4,480.1,459.1,472.1z M299.7,472.1c10.5-3.2,17-8,19.5-11.7  v-33.3c-4.3,2.3-8.7,4.1-13.3,5.5c-15.1,4.6-34.9,7.2-55.6,7.2c-20.8,0-40.5-2.5-55.6-7.2c-4.7-1.4-9.2-3.3-13.6-5.5v33.5  c2.2,3.5,8.7,8,19.8,11.4C227.1,480.1,273.2,480.1,299.7,472.1z M140.1,472.1c10.5-3.2,16.9-7.9,19.5-11.7v-32.8  c-3.9,2-8.3,3.8-13.4,5.3c-15.1,4.6-34.9,7.2-55.6,7.2S50,437.6,35,433c-4.7-1.4-9.2-3.3-13.6-5.5v33.2c2.1,3.2,8.1,7.8,19.8,11.4  C67.5,480.2,113.6,480.2,140.1,472.1L140.1,472.1z M40.9,391.7c-9.2,2.8-15.6,6.5-18.1,10.2c2.4,3.7,8.8,7.5,18.3,10.4  c26.3,8,72.7,8,98.9,0c12.2-3.8,16.6-7.7,18.3-10.1c-3.3-5.3-13.5-8.9-18.4-10.4C113.5,383.7,67.4,383.7,40.9,391.7L40.9,391.7z   M200.5,331.7c-9.4,2.8-15.8,6.6-18.2,10.3c1.6,2.5,6.1,6.5,18.4,10.2c26.4,8,72.5,8,98.9,0c12.2-3.7,16.6-7.7,18.4-10.2  c-3.3-5.2-13.5-8.9-18.4-10.4C273,323.6,226.9,323.6,200.5,331.7z M360,272.6c-11.7,3.6-16.4,7.5-18.2,10c2.3,3.8,8.8,7.6,18.4,10.5  c26.3,8,72.6,8,99,0c12.2-3.8,16.6-7.7,18.3-10.2c-3.3-5.2-13.5-8.9-18.4-10.4C432.6,264.5,386.5,264.5,360,272.6z M340.5,368.2  v33.5c2.2,3.5,8.7,8,19.8,11.4c26.3,8,72.6,8,98.9,0c10.5-3.2,17-8,19.5-11.7v-33.3c-4.3,2.3-8.7,4.1-13.3,5.5  c-15.2,4.6-34.9,7.1-55.6,7.1c-20.7,0-40.5-2.5-55.6-7.1C349.4,372.2,344.8,370.4,340.5,368.2z M354,313.8  c-4.7-1.4-9.2-3.3-13.5-5.5v33.2c2.1,3.2,8,7.8,19.7,11.4c26.5,8,72.5,8,99,0c10.5-3.2,16.9-7.9,19.4-11.6v-32.8  c-4,2-8.3,3.8-13.3,5.3c-15.1,4.6-34.9,7.2-55.6,7.2C388.8,321,369.1,318.4,354,313.8z M180.9,367.4v33.1c2.1,3.3,8.1,7.8,19.8,11.4  c26.3,8,72.6,8,98.9,0c11.7-3.6,17.4-8.5,19.5-11.6v-32.8c-4.3,2.1-8.7,3.9-13.4,5.3c-15.2,4.6-34.9,7.2-55.6,7.2  s-40.4-2.5-55.6-7.2C189.8,371.5,185.3,369.6,180.9,367.4z M465.2,251.9c28.7,8.8,34.8,23.5,34.8,34.4v172c0,10.9-6,25.7-34.8,34.5  c-15.3,4.6-35,7.2-55.6,7.2s-40.4-2.6-55.6-7.1c-11.3-3.5-19.1-7.9-24.3-12.6c-7,5.8-15.1,10-23.8,12.6c-15.2,4.6-34.9,7.2-55.6,7.2  s-40.4-2.6-55.6-7.2c-10.4-3.1-18.4-7.5-24.5-12.6c-6.1,5.2-14.1,9.7-23.8,12.6c-15.2,4.6-34.9,7.2-55.6,7.2s-40.5-2.6-55.6-7.2  c-14.2-4.3-24.3-10.7-30.2-18.5c-3-2-4.8-5.3-4.8-8.8v-60c0-2.6,0.4-5.1,1-7.5l0.1-0.1c3.5-12,14.8-21,33.7-26.8  c30.4-9.2,80.9-9.2,111.3,0c5.3,1.6,9.6,3.5,13.5,5.5v-31.1c0-2.6,0.4-5.1,1.1-7.6c3.4-12.1,14.7-21.1,33.7-26.9  c30.2-9.2,80.9-9.2,111.3,0c4.6,1.4,9.2,3.3,13.4,5.5v-30.1c0-2.6,0.4-5.1,1-7.6c3.4-12,14.8-21.1,33.7-26.9  C384.2,242.6,434.8,242.6,465.2,251.9L465.2,251.9z" style="fill: #f2f4ff;"/>
</svg>
