<?xml version="1.0" encoding="UTF-8"?>
<svg xmlns="http://www.w3.org/2000/svg" viewBox="0 0 500 500"><path fill="#006aff" d="M394 500.6c-22 0-47.3-5.4-74.5-16.3C264 462.1 203.1 419 143.7 359.5l-.1-.1-1.9-1.9-.1-.1C82 297.9 38.8 237 16.6 181.5-4.5 128.3-5 82.8 15.3 53.5c.1-.2.3-.4.4-.6l.3-.4c2.5-3.4 9.9-13.8 17.7-21.2C55.8 10.1 78.4-.3 100.7 0c21.5.4 42.9 11 63.3 31.5 7.7 7.6 14.5 16.1 20 25.5 11 17.7 15 35.9 11.8 54.3-3.1 18.3-13.3 36.2-30.5 53.4-4 4-8.2 7.8-12.6 11.3-1.6 3-.6 12.4 12.6 31.8 15.3 22.4 41 48.9 59 66.8l2.1 2.1c18 18 44.4 43.6 66.8 59C312.5 349 322 350 325 348.3c3.5-4.4 7.2-8.6 11.3-12.6 17.1-17.1 35-27.3 53.4-30.5 18.3-3.1 36.6.9 54.3 11.8 9.3 5.6 17.8 12.3 25.5 20 20.5 20.5 31 41.7 31.5 63.3.4 22.3-10.1 44.9-31.2 67-7.4 7.8-17.8 15.2-21.2 17.7l-.4.3c-.2.1-.4.3-.6.5-14.4 9.9-32.6 14.8-53.6 14.8zm55.4-16.4zm0 0zm0 0zM163.8 339.5C220.5 396.2 278 437.1 330 457.9c43.2 17.2 80 18.8 101 4.6l.9-.6c7.7-5.6 13.5-10.3 17.2-14.2 31.1-32.5 31.2-59.6.2-90.5-5.9-6.1-12.6-11.3-19.8-15.6l-.4-.2c-11.8-7.3-23.2-10-34.6-8.1-12.3 2.1-25.1 9.6-37.9 22.5-3.6 3.6-7 7.3-10.1 11.4-.5.6-1 1.1-1.5 1.6-6.1 5.6-17 11.4-34.2 7-9.8-2.5-20.8-7.9-33.5-16.7-24.3-16.7-52.1-43.6-70.8-62.3l-2.1-2.1c-18.8-18.8-45.6-46.5-62.3-70.9-8.8-12.8-14.3-23.8-16.7-33.5-4.4-17.3 1.4-28.2 7-34.2.5-.6 1.1-1.1 1.6-1.5 4.1-3.1 7.8-6.4 11.4-10.1 12.8-12.8 20.4-25.6 22.5-37.9 1.9-11.5-.7-22.8-8.1-34.6l-.2-.4c-4.4-7.2-9.6-13.9-15.6-19.8-30.9-30.9-58-30.8-90.5.3-3.9 3.7-8.6 9.5-14.2 17.2l-.8.7C24.2 91 26 127.8 43.2 171c20.8 52 61.7 109.5 118.4 166.2l1 1 .3.3.9 1zm295.6 117.9zM15.6 52.9zm1.3-1.4zm0 0zm0 0z" style="fill: #f2f4ff;"/></svg>
