<?xml version="1.0" encoding="UTF-8"?>
<!-- Generator: Adobe Illustrator 24.3.0, SVG Export Plug-In . SVG Version: 6.00 Build 0)  -->
<svg xmlns="http://www.w3.org/2000/svg" xmlns:xlink="http://www.w3.org/1999/xlink" version="1.1" id="Capa_1" x="0px" y="0px" viewBox="0 0 500 500" style="enable-background:new 0 0 500 500;" xml:space="preserve">
<style type="text/css">
	.st0{fill-rule:evenodd;clip-rule:evenodd;fill:#006AFF;}
</style>
<path class="st0" d="M460,397.5c6.2-23.4,9.3-49.9,9.3-78.9c0-142.7-73.8-215.2-219.4-215.2S30.7,175.8,30.7,318.6  c0,29.1,3.1,55.6,9.3,78.9H460L460,397.5z M249.9,73.4c163.6,0,250.1,84.8,250.1,245.2c0,36.1-4.5,68.8-13.5,97.3  c-0.2,0.8-0.6,1.5-0.9,2.2l-0.5,1.1c-2.6,5.2-7.9,8.4-13.8,8.4h-443c-6.6,0.1-12.6-4.2-14.7-10.5C4.6,388.3,0,355.2,0,318.6  C0,158.2,86.4,73.4,249.9,73.4z M250,313.6c8.8,0,16.6,3.5,22.4,9.1L434.5,276c8.2-2.4,16.7,2.2,19,10.2c2.3,7.9-2.3,16.2-10.2,18.6  c-0.1,0-0.1,0.1-0.2,0.1l-161.9,46.5c-3.3,14.5-16.2,24.8-31.1,24.7c-17.6,0-31.9-14-31.9-31.3C218.1,327.6,232.4,313.6,250,313.6  L250,313.6z M249.6,186.6c-8.4,0.1-15.3-6.6-15.3-15v-20.3c0-8.3,6.8-15,15.3-15s15.3,6.8,15.3,15v20.3  C265,179.9,258.1,186.6,249.6,186.6z M133.2,181.4l14.7,14.4c5.8,5.7,6,15,0.4,21c-0.1,0.1-0.2,0.2-0.4,0.4  c-2.9,2.9-6.8,4.4-10.8,4.4c-4.1,0-7.9-1.6-10.8-4.4l-14.8-14.5c-5.8-5.7-6-15.1-0.3-21c0.1-0.1,0.2-0.2,0.3-0.3  C117.5,175.5,127.1,175.5,133.2,181.4z M96.6,287.1c8.5,0,15.3,6.7,15.3,15c0,8.3-6.8,15-15.3,15H75.8c-8.3,0.1-15.3-6.6-15.3-15  c0-8.3,6.8-15,15.3-15H96.6L96.6,287.1z M362.1,221.4c-4.1,0-8-1.6-10.8-4.4c-5.8-5.7-6-15-0.4-21c0.1-0.1,0.2-0.2,0.4-0.4  l14.7-14.4c6.1-5.8,15.7-5.8,21.7,0c5.8,5.7,6,15.1,0.3,21c-0.1,0.1-0.2,0.2-0.3,0.3l-14.7,14.4  C370.1,219.9,366.2,221.4,362.1,221.4z" style="fill: #f2f4ff;"/>
</svg>
