<?xml version="1.0" encoding="UTF-8"?>
<!-- Generator: Adobe Illustrator 24.3.0, SVG Export Plug-In . SVG Version: 6.00 Build 0)  -->
<svg xmlns="http://www.w3.org/2000/svg" xmlns:xlink="http://www.w3.org/1999/xlink" version="1.1" id="Capa_1" x="0px" y="0px" viewBox="0 0 500 500" style="enable-background:new 0 0 500 500;" xml:space="preserve">
<style type="text/css">
	.st0{fill-rule:evenodd;clip-rule:evenodd;fill:#006AFF;}
</style>
<desc>Created with sketchtool.</desc>
<g id="Page-1">
	<g id="Sábana-de-iconos-Copy" transform="translate(-1169.000000, -652.000000)">
		<path id="ic_attach_regular" class="st0" d="M1419.3,1152c-72.7,0-114.5-39.7-114.5-109V732.1c0-50.9,30.7-80.1,84.1-80.1    c53.4,0,84.1,29.2,84.1,80.1l0.6,280.7c0,29.6-19.3,48-50.3,48c-31,0-50.3-18.4-50.3-47.9v-256c0-8.6,7.3-15.5,16.3-15.5    c9,0,16.3,7,16.3,15.5v256c0,12.6,4.5,16.8,17.6,16.8c13.2,0,17.6-4.2,17.6-16.8l-0.7-280.7c0-33.4-16.4-49-51.4-49    c-35.1,0-51.4,15.6-51.4,49V1043c0,52.4,26.8,77.9,81.8,77.9c55.1,0,81.8-25.5,81.8-77.9l0.3-287.5c0-8.6,7.3-15.5,16.3-15.5l0,0    c9,0,16.3,7,16.3,15.6l-0.3,287.5C1533.8,1112.3,1492,1152,1419.3,1152" style="fill: #58617a;"/>
	</g>
</g>
</svg>
