<?xml version="1.0" encoding="UTF-8"?>
<svg xmlns="http://www.w3.org/2000/svg" fill="none" viewBox="0 0 522 500"><path fill="#06F" d="M261.348 450.952c-35.505 0-63.282-20.293-65.753-58.456l-.139-3.121-121.1.002c-3.775 0-7.246-2.217-8.586-5.66-1.34-3.443-.183-7.295 2.801-9.512 29.8-22.78 39.112-60.994 41.91-86.306l.634-6.857.352-6.007.143-5.012-.041-6.043-.068-1.587v-81.232c0-22.952 3.798-43.256 11.039-60.914l2.541-5.788 9.073-16.106c5.541-8.112 11.935-15.465 19.425-22 25.02-21.76 55.793-30.004 78.184-33.025l6.775-.79 6.12-.5 5.364-.27 6.414-.101 4.986.138 4.986-.138 4.046.029 4.948.172 5.753.374 6.457.633c22.588 2.608 55.271 10.514 81.532 33.419 26.495 23.063 40.624 56.079 41.971 98.199l.106 6.726-.068 82.412-.055 4.25.135 6.436.284 5.327.501 6.033c.104 1.058.22 2.141.348 3.247l.925 6.89c3.816 24.944 14.041 57.947 40.861 78.449 2.983 2.276 4.079 6.128 2.801 9.512-1.096 2.901-3.803 4.988-6.97 5.525l-1.616.136h-37.511l-24.479-.059-58.964-.002-.18 3.348c-3.231 38.086-30.679 58.229-65.885 58.229zm0-22.916c23.32 0 39.642-11.7 41.997-36.576l.133-2.085h-84.087l.113 2.283c1.854 24.641 18.307 36.378 41.844 36.378zm4.765-361.39l-3.159.116h-3.064c-7.816-.44-20.229.178-34.038 2.906-18.996 3.753-36.153 10.735-50.183 21.477l-4.559 3.72-4.096 3.823a89.402 89.402 0 0 0-7.568 8.592l-3.011 4.134-7.558 13.29c-6.599 14.076-10.386 30.508-11.146 49.299l-.143 7.158-.076 79.315.17 4.235.013 5.644c-.439 31.64-6.616 62.547-21.929 88.404l-3.549 5.613 274.224.006 24.472.056-.796-1.177c-4.254-6.712-7.938-13.898-11.091-21.498l-2.265-5.777c-5.487-14.819-8.838-30.39-10.524-46.107-.905-8.435-1.252-16.041-1.232-22.549l.131-5.896-.002-80.211c0-38.661-11.451-67.2-33.549-86.436-14.735-12.852-33.52-20.99-54.594-25.142-12.067-2.377-23.043-3.139-30.878-2.994z" style="fill: #58617a;"/></svg>
