<?xml version="1.0" encoding="UTF-8"?>
<!-- Generator: Adobe Illustrator 24.3.0, SVG Export Plug-In . SVG Version: 6.00 Build 0)  -->
<svg xmlns="http://www.w3.org/2000/svg" xmlns:xlink="http://www.w3.org/1999/xlink" version="1.1" id="Capa_1" x="0px" y="0px" viewBox="0 0 500 500" style="enable-background:new 0 0 500 500;" xml:space="preserve">
<style type="text/css">
	.st0{fill-rule:evenodd;clip-rule:evenodd;fill:#006AFF;}
</style>
<desc>Created with sketchtool.</desc>
<g id="Page-1">
	<g id="Sábana-de-iconos-Copy" transform="translate(-1001.000000, -2200.000000)">
		<path id="ic_box2_regular" class="st0" d="M1464.3,2657.5c0,6-4.5,11.4-9.6,11.4h-407.4c-5.1,0-9.5-5.3-9.5-11.4v-290.9    c0-6,4.4-11.4,9.5-11.4h128.2v62.6c0,8.6,8.3,15.6,18.4,15.6h106.2c10.2,0,18.4-7,18.4-15.6l-0.1-62.6h136.2    c5.1,0,9.6,5.3,9.6,11.4V2657.5z M1073.2,2239.2c0.4-1.2,0.5-2.4,0.5-3.6c0-2.4,2.3-4.4,5.3-4.4h108.3l-9.8,92.9h-128.1    L1073.2,2239.2z M1281.7,2355.2v46.9h-69.4v-46.9H1281.7z M1267.5,2231.3l11.8,92.7h-65.1l9.8-92.7H1267.5z M1428.4,2235.6    c0,1.3,0.1,2.5,0.6,3.7l24.6,84.7h-137.1l-11.7-92.9h118.5C1426,2231.2,1428.4,2233.1,1428.4,2235.6z M1500.3,2359.7    c0.3-1.9,0.3-3.8-0.3-5.8l-34.9-120.4c-1.4-18.6-19.6-33.5-42-33.5h-344.3c-22.4,0-40.8,14.9-42,33.5l-33.9,120.4    c-0.1,0.4,0,0.6-0.1,1c-1.2,3.8-2,7.7-2,11.8v290.9c0,23.5,20.8,42.6,46.4,42.6h407.4c25.6,0,46.4-19.1,46.4-42.6v-290.9    C1501.1,2364.2,1500.8,2361.9,1500.3,2359.7z" style="fill: #58617a;"/>
	</g>
</g>
</svg>
