<?xml version="1.0" encoding="UTF-8"?>
<!-- Generator: Adobe Illustrator 24.3.0, SVG Export Plug-In . SVG Version: 6.00 Build 0)  -->
<svg xmlns="http://www.w3.org/2000/svg" xmlns:xlink="http://www.w3.org/1999/xlink" version="1.1" id="Capa_1" x="0px" y="0px" viewBox="0 0 500 500" style="enable-background:new 0 0 500 500;" xml:space="preserve">
<style type="text/css">
	.st0{fill-rule:evenodd;clip-rule:evenodd;fill:#006AFF;}
</style>
<path class="st0" d="M469.5,352.6c0,5.1-2.5,10.9-6.5,15.1c-4.3,4.5-9.8,7-14.5,7h-22.5c-6.5-36.7-32.9-58.7-72.1-58.7  c-3.9,0-7.5,0.2-11.2,0.6V142.4l21-0.2c8,0,17.2,4.9,21.7,11.2c10,14.2,65.6,91,72.7,100.6c4.3,5.8,11.5,15.5,11.5,23.4V352.6  L469.5,352.6z M353.8,437.5c-28.6,0-43.1-15.1-43.1-44.6c0-29.8,14.5-44.9,43.1-44.9c28.4,0,42.9,15.1,42.9,44.8  C396.7,422.4,382.2,437.5,353.8,437.5z M281.4,374.8H180.7c-6.5-36.7-32.9-58.7-72.1-58.7c-39.4,0-65.8,21.9-72.3,58.7  c-3.2-0.1-5.7-2.7-5.8-5.9V69.5c-0.1-3.2,2.5-5.9,5.7-6l0,0l269.9,0.2c3.1,0,5.8,2.6,5.8,5.8v257.4  C295.8,336.9,285.4,353.3,281.4,374.8z M108.5,437.5c-28.6,0-43.1-15.1-43.1-44.6c0-29.8,14.5-44.8,43.1-44.8  c28.4,0,42.9,15.1,42.9,44.8C151.5,422.4,136.9,437.5,108.5,437.5L108.5,437.5z M482.1,234.7c-7-9.3-62.5-86.3-71.9-99.7  c-10.4-14.9-28.6-24.6-46.6-24.6h-0.2l-20.9,0.2V69.5c0-20.9-16.4-37.7-36.4-37.7L36.2,31.6c-20.1,0-36.4,17-36.4,37.9v299.3  c0,20.6,15.9,37.4,35.8,37.8c5.1,39.2,32.1,62.7,73,62.7c40.6,0,67.6-23.6,72.5-62.7H281c4.9,39.2,31.9,62.7,72.7,62.7  c40.6,0,67.6-23.6,72.5-62.7h22.1c12.9,0,26.2-5.9,36.2-16.4c9.8-10.4,15.5-24.1,15.5-37.7v-75.5  C500.1,258.7,488.4,242.9,482.1,234.7L482.1,234.7z" style="fill: #58617a;"/>
</svg>
