<?xml version="1.0" encoding="UTF-8"?>
<!-- Generator: Adobe Illustrator 24.3.0, SVG Export Plug-In . SVG Version: 6.00 Build 0)  -->
<svg xmlns="http://www.w3.org/2000/svg" xmlns:xlink="http://www.w3.org/1999/xlink" version="1.1" id="Capa_1" x="0px" y="0px" viewBox="0 0 500 500" style="enable-background:new 0 0 500 500;" xml:space="preserve">
<style type="text/css">
	.st0{fill-rule:evenodd;clip-rule:evenodd;fill:#006AFF;}
</style>
<path class="st0" d="M462.9,97.5c20.5,0,37.1,16.6,37.1,37.1v286.6c0,20.5-16.6,37.1-37.1,37.1H37.1C16.6,458.3,0,441.7,0,421.2  V78.8c0-20.5,16.6-37.1,37.1-37.1h181.4c20.5,0,37.1,16.6,37.1,37.1v18.6H462.9z M146.5,212c0-28.5,8.8-43.5,32-43.5  s32,14.9,32,43.5s-8.8,43.3-32,43.3S146.5,240.6,146.5,212z M192.3,212c0-23.1-3.9-30.7-13.8-30.7c-9.9,0-13.8,7.5-13.8,30.7  s3.9,29.3,13.8,29.3C188.4,241.3,192.3,235.1,192.3,212z M55.3,212c0-28.5,8.8-43.5,32-43.5s32,14.9,32,43.5s-8.8,43.3-32,43.3  S55.3,240.6,55.3,212z M101.1,212c0-23.1-3.9-30.7-13.8-30.7s-13.8,7.5-13.8,30.7s3.9,29.3,13.8,29.3S101.1,235.1,101.1,212z   M378.2,212c0-28.5,8.8-43.5,32-43.5c23.2,0,32,14.9,32,43.5s-8.8,43.3-32,43.3C387,255.3,378.2,240.6,378.2,212z M423.9,212  c0-23.1-3.9-30.7-13.8-30.7s-13.8,7.5-13.8,30.7s3.9,29.3,13.8,29.3S423.9,235.1,423.9,212z M236.3,242.3h14v-58.2h-13.4v-11.7  c4.9-0.7,13.2-1.4,19.1-1.4c8.5,0,11.5,2.1,11.5,8.2v63.2h11.8v12.3h-43L236.3,242.3L236.3,242.3z M67.2,379.5h14v-58.2H67.8v-11.7  c4.9-0.7,13.2-1.4,19.1-1.4c8.5,0,11.5,2.1,11.5,8.2v63.2h11.8v12.3h-43V379.5z M310.2,242.3h14v-58.2h-13.4v-11.7  c4.9-0.7,13.2-1.4,19.1-1.4c8.5,0,11.5,2.1,11.5,8.2v63.2h11.8v12.3h-43V242.3z M146.5,349.2c0-28.5,8.8-43.5,32-43.5  s32,14.9,32,43.5s-8.8,43.3-32,43.3S146.5,377.8,146.5,349.2z M192.3,349.2c0-23.1-3.9-30.7-13.8-30.7c-9.9,0-13.8,7.5-13.8,30.7  c0,23.1,3.9,29.3,13.8,29.3C188.4,378.6,192.3,372.3,192.3,349.2z M378.2,349.2c0-28.5,8.8-43.5,32-43.5c23.2,0,32,14.9,32,43.5  s-8.8,43.3-32,43.3C387,392.6,378.2,377.8,378.2,349.2z M423.9,349.2c0-23.1-3.9-30.7-13.8-30.7s-13.8,7.5-13.8,30.7  c0,23.1,3.9,29.3,13.8,29.3S423.9,372.3,423.9,349.2z M236.3,379.6h14v-58.2h-13.4v-11.7c4.9-0.7,13.2-1.4,19.1-1.4  c8.5,0,11.5,2.1,11.5,8.2v63.2h11.8v12.3h-43L236.3,379.6L236.3,379.6z M310.2,379.6h14v-58.2h-13.4v-11.7  c4.9-0.7,13.2-1.4,19.1-1.4c8.5,0,11.5,2.1,11.5,8.2v63.2h11.8v12.3h-43V379.6z" style="fill: #58617a;"/>
</svg>
