<?xml version="1.0" encoding="UTF-8"?>
<!-- Generator: Adobe Illustrator 24.3.0, SVG Export Plug-In . SVG Version: 6.00 Build 0)  -->
<svg xmlns="http://www.w3.org/2000/svg" xmlns:xlink="http://www.w3.org/1999/xlink" version="1.1" id="Capa_1" x="0px" y="0px" viewBox="0 0 500 500" style="enable-background:new 0 0 500 500;" xml:space="preserve">
<style type="text/css">
	.st0{fill-rule:evenodd;clip-rule:evenodd;fill:#006AFF;}
</style>
<path class="st0" d="M284.2,250L492.9,41.3c9.5-9.5,9.5-24.8,0-34.2c-9.5-9.5-24.8-9.5-34.2,0L250,215.8L41.3,7.1  c-9.7-9.2-25-8.8-34.2,0.9c-8.9,9.3-8.9,24,0,33.4L215.8,250L7.1,458.7c-9.5,9.5-9.5,24.8,0,34.2c9.5,9.4,24.8,9.4,34.2-0.1l0,0  L250,284.1l208.7,208.7c9.4,9.5,24.6,9.5,34.1,0.1c0.1-0.1,0.1-0.1,0.1-0.1c9.5-9.5,9.5-24.8,0-34.2L284.2,250z" style="fill: #58617a;"/>
</svg>
