<?xml version="1.0" encoding="UTF-8"?>
<!-- Generator: Adobe Illustrator 24.3.0, SVG Export Plug-In . SVG Version: 6.00 Build 0)  -->
<svg xmlns="http://www.w3.org/2000/svg" xmlns:xlink="http://www.w3.org/1999/xlink" version="1.1" id="Capa_1" x="0px" y="0px" viewBox="0 0 500 500" style="enable-background:new 0 0 500 500;" xml:space="preserve">
<style type="text/css">
	.st0{fill-rule:evenodd;clip-rule:evenodd;fill:#006AFF;}
</style>
<path class="st0" d="M403.2,412c-35.6,0-64.6-29-64.6-64.6s29-64.6,64.6-64.6c35.6,0,64.7,29,64.7,64.6  C467.8,383,438.8,412,403.2,412 M164.3,184.4c0.1-34.4,27.9-62.1,62.2-62.2c34.4,0,62.2,27.8,62.2,62.2  c-0.1,34.4-27.9,62.2-62.2,62.2S164.3,218.7,164.3,184.4 M70.6,364.9c-21.1,0-38.2-17.1-38.2-38.3c0.7-21.1,18.4-37.7,39.5-37  c20.1,0.6,36.3,16.9,37,37C108.8,347.8,91.7,364.9,70.6,364.9 M226.8,466.6c-14.5,0-26.3-11.8-26.3-26.3c0-14.6,11.8-26.3,26.4-26.3  c14.5,0,26.3,11.8,26.3,26.3C253.2,454.8,241.4,466.6,226.8,466.6 M70.6,83.8c-14.5,0-26.2-11.8-26.3-26.3  c0-14.6,11.8-26.3,26.4-26.3C85.2,31.2,97,43,97,57.5S85.1,83.8,70.6,83.8 M434.4,96.7c16.7,0,30.2,13.6,30.2,30.2  c0,16.7-13.6,30.2-30.2,30.2c-16.7,0-30.2-13.5-30.2-30.2S417.7,96.7,434.4,96.7 M403.2,250.6c-23.5,0-44.7,8.7-61.5,22.7L303,239.4  c11.7-16,18-35.2,18-55c0-2.4-0.6-4.7-0.7-7l61-18c11.2,18.6,31.4,29.9,53.1,30c34.5,0,62.5-28,62.5-62.5  c-0.9-34.5-29.6-61.7-64.1-60.9c-33.3,0.9-60,27.6-60.9,60.9c0,0.5,0.1,1,0.1,1.6L312.6,146c-15.2-34-48.9-55.9-86.1-56  c-25.2,0-49.3,10-66.9,27.9l-37.8-32.4c4.6-8.4,7.5-17.9,7.5-28.1c-0.6-32.3-27.4-58-59.8-57.4C38,0.6,12.6,26,12,57.5  C12,89.8,38.3,116,70.6,116c10.3,0,19.8-2.9,28.2-7.6l42.3,36.3c-6,12.4-9,26-9.1,39.8c0,20.1,6.5,38.8,17.3,54.1l-34.5,33.7  c-12.4-10.3-28.1-16-44.3-16c-38.8,0-70.4,31.5-70.5,70.4c0.1,38.9,31.6,70.4,70.5,70.5c38.9,0,70.5-31.6,70.5-70.5  c0-10.2-2.3-20-6.3-28.7l37.3-36.5c32.2,23,75.3,23.3,107.8,0.8l40.5,35.6c-8.8,14.5-14.2,31.4-14.2,49.7c0,12.6,2.6,24.5,7,35.5  l-42.2,19.4c-11-13-27.2-20.5-44.2-20.6c-32.4,0-58.5,26.2-58.6,58.5c0.1,32.3,26.2,58.5,58.6,58.5c32.3,0,58.5-26.2,58.5-58.5  c0-3-0.4-5.8-0.9-8.7l45.8-21.1c17.7,20.4,43.6,33.6,72.8,33.6c53.4,0,96.8-43.3,96.9-96.8C500,294,456.7,250.7,403.2,250.6" style="fill: #58617a;"/>
</svg>
