<?xml version="1.0" encoding="UTF-8"?>
<!-- Generator: Adobe Illustrator 24.3.0, SVG Export Plug-In . SVG Version: 6.00 Build 0)  -->
<svg xmlns="http://www.w3.org/2000/svg" xmlns:xlink="http://www.w3.org/1999/xlink" version="1.1" id="Capa_1" x="0px" y="0px" viewBox="0 0 500 500" style="enable-background:new 0 0 500 500;" xml:space="preserve">
<style type="text/css">
	.st0{fill-rule:evenodd;clip-rule:evenodd;fill:#006AFF;}
</style>
<desc>Created with sketchtool.</desc>
<g id="Page-1">
	<g id="Sábana-de-iconos-Copy" transform="translate(-875.000000, -2464.000000)">
		<path id="ic_shield_regular" class="st0" d="M937.6,2561.4c0.2,44.1,1.8,160.7,11.1,214.6c10.4,60.3,125.4,129.3,176.8,155    c51.4-25.7,166.6-94.7,177-155c9.2-54,10.7-170.6,10.9-214.7c-42.5,2.1-69.2-15.7-94.9-32.9c-25.5-17.1-49.7-33.3-92.8-33.4h-0.1    c-43.1,0-67.3,16.2-92.8,33.4C1006.9,2545.7,980.2,2564,937.6,2561.4z M1125.5,2964c-2.2,0-4.5-0.5-6.5-1.5    c-18.9-9-185-90.9-200.6-181.1c-12-69.6-11.6-230.6-11.6-237.5c0-4.8,2.2-9.3,6-12.3c3.8-2.9,8.7-3.9,13.2-2.8    c40.7,6.5,62.2-8,89.5-26.4c27-18.1,57.5-38.5,109.9-38.5h0.2c52.4,0.1,83,20.5,109.8,38.6c27.3,18.4,48.9,32.7,90.2,26.3    c4.4-0.7,9.3,0.5,12.7,3.5c3.4,3,5.8,7.2,5.8,11.7c0,6.8,0.4,167.8-11.4,237.5l0,0c-15.5,90.2-181.8,172-200.8,181.1    C1130,2963.5,1127.7,2964,1125.5,2964z" style="fill: #58617a;"/>
	</g>
</g>
</svg>
