<?xml version="1.0" encoding="UTF-8"?>
<!-- Generator: Adobe Illustrator 24.3.0, SVG Export Plug-In . SVG Version: 6.00 Build 0)  -->
<svg xmlns="http://www.w3.org/2000/svg" xmlns:xlink="http://www.w3.org/1999/xlink" version="1.1" id="Capa_1" x="0px" y="0px" viewBox="0 0 500 500" style="enable-background:new 0 0 500 500;" xml:space="preserve">
<style type="text/css">
	.st0{fill:#006AFF;}
</style>
<g>
	<circle class="st0" cx="322.7" cy="90.3" r="21" style="fill: #58617a;"/>
	<circle class="st0" cx="378.2" cy="90.3" r="21" style="fill: #58617a;"/>
	<circle class="st0" cx="433.6" cy="90.3" r="21" style="fill: #58617a;"/>
	<path class="st0" d="M459,0H297.4c-22.6,0-41,18.4-41,41v99c0,23.3,16.7,41,38.8,41h2.8v39.6c0,10.8,8.5,21,19.1,22.5   c0.9,0.1,1.9,0.2,2.8,0.2c9.5,0,20.1-6.8,27.5-18.1c3.3-5,20.2-31.6,28.2-44.2H459c22.6,0,41-18.4,41-41V41C500,18.4,481.7,0,459,0   z M471.6,140c0,6.9-5.6,12.5-12.5,12.5h-91.3c-4.9,0-9.4,2.5-12,6.6c-0.2,0.4-20.9,33-29.2,45.9v-38.3c0-7.8-6.4-14.2-14.2-14.2   h-17c-7.2,0-10.4-6.3-10.4-12.5V41c0-6.9,5.6-12.5,12.5-12.5H459c6.9,0,12.5,5.6,12.5,12.5V140z" style="fill: #58617a;"/>
	<path class="st0" d="M166.9,333.4c30.8,0,54.9-8.9,71.6-26.6c15.6-16.6,23.6-39.7,23.6-68.6s-8-52.1-23.6-68.6   c-16.6-17.6-40.7-26.5-71.6-26.5c-30.9,0-54.9,9-71.6,26.6c-15.6,16.6-23.6,39.7-23.6,68.6s7.9,52.1,23.6,68.6   C111.9,324.5,136,333.4,166.9,333.4z M166.9,171.4c44.2,0,66.7,22.5,66.7,66.7s-22.5,66.7-66.7,66.7c-44.2,0-66.7-22.5-66.7-66.7   S122.5,171.4,166.9,171.4z" style="fill: #58617a;"/>
	<path class="st0" d="M228.7,353.6H105c-33.9,0-60.2,9.2-78.1,27.1C9,398.7,0,425,0,459.2v26.4c0,7.8,6.4,14.2,14.2,14.2h305.2   c7.9,0,14.2-6.3,14.2-14.2v-26.4c0-34.1-9-60.5-26.9-78.5C288.9,362.7,262.7,353.6,228.7,353.6z M305.2,471.3H28.4v-12.2   c0-26.3,6.3-45.9,18.6-58.4s31.8-18.7,57.9-18.7h123.8c26.1,0,45.6,6.3,57.9,18.7c12.3,12.4,18.6,32.1,18.6,58.4V471.3z" style="fill: #58617a;"/>
</g>
</svg>
