<?xml version="1.0" encoding="UTF-8"?>
<!-- Generator: Adobe Illustrator 24.3.0, SVG Export Plug-In . SVG Version: 6.00 Build 0)  -->
<svg xmlns="http://www.w3.org/2000/svg" xmlns:xlink="http://www.w3.org/1999/xlink" version="1.1" id="Capa_1" x="0px" y="0px" viewBox="0 0 500 500" style="enable-background:new 0 0 500 500;" xml:space="preserve">
<style type="text/css">
	.st0{fill-rule:evenodd;clip-rule:evenodd;fill:#006AFF;}
</style>
<path class="st0" d="M230.9,36.8c-4.3,4.2-5.3,12.9-5.3,19.5c0,5.3,0.6,14.9,5.3,19.4c4.5,4.3,13.9,5,19.1,5  c5.2,0,14.7-0.6,19.2-5.1c4.3-4.2,5.3-12.8,5.3-19.3c0-6.5-0.9-15.2-5.3-19.5c-4.3-4.2-12.8-5.1-19.2-5.1  C244.7,31.8,235.4,32.4,230.9,36.8z M249.9,112.4c-17.7,0-31.5-4.6-41.1-13.9c-10-9.6-14.9-23.8-14.9-42.3c0-18.4,5-32.7,14.9-42.3  c9.5-9.3,23.3-14,41.1-14s31.6,4.7,41.2,13.9c10,9.6,15,23.9,15,42.3s-5.1,32.7-15,42.3C281.5,107.8,267.6,112.4,249.9,112.4z   M189.3,177.3c-4.1,4.3-6,10.1-6.8,15.4h135c-0.8-5.3-2.6-11-6.8-15.4c-6.8-7.1-18.1-8.5-26.5-8.5h-68.4  C207.4,168.8,196.1,170.2,189.3,177.3z M156.7,224.5c-3.5,0-6.3-2.8-6.3-6.4l0,0v-18.7c0-17.9,5.5-33.2,16.1-44.1  c11.5-12,28.5-18.3,49.3-18.3h68.4c20.8,0,37.8,6.3,49.4,18.3c10.6,11,16.2,26.3,16.2,44.1v18.7c0,3.5-2.8,6.4-6.3,6.4  c0,0,0,0-0.1,0H156.7z M80.5,312.3c-4.3,4.2-5.3,12.9-5.3,19.5c0,6.5,0.9,15.2,5.3,19.4c4.5,4.3,13.9,5,19.1,5  c5.2,0,14.7-0.6,19.2-5.1c4.3-4.2,5.3-12.8,5.3-19.3c0-6.5-0.9-15.2-5.3-19.5c-4.3-4.2-12.8-5.1-19.1-5.1  C94.4,307.3,85.1,307.9,80.5,312.3z M99.6,387.9c-17.7,0-31.5-4.7-41.1-13.9c-10-9.5-14.9-23.8-14.9-42.3c0-18.4,5-32.7,14.9-42.3  c9.6-9.2,23.4-13.9,41.1-13.9s31.6,4.7,41.2,13.9c10,9.7,15,23.9,15,42.3c0,18.4-5.1,32.7-15.1,42.3  C131.2,383.3,117.3,387.9,99.6,387.9z M32.2,468.2h135c-0.8-5.3-2.6-11-6.8-15.4c-6.8-7.1-18.2-8.5-26.5-8.5H65.4  c-8.3,0-19.6,1.5-26.4,8.5C34.8,457.1,32.9,462.9,32.2,468.2L32.2,468.2z M133.8,412.5c20.8,0,37.8,6.3,49.4,18.3  c10.6,11,16.1,26.3,16.1,44.2v18.6c0,3.6-2.8,6.4-6.3,6.4H6.4c-3.5,0-6.4-2.8-6.4-6.4l0,0v-18.7c0-17.9,5.5-33.2,16-44.1  c11.5-12,28.5-18.4,49.3-18.4L133.8,412.5L133.8,412.5z M381.3,312.1c-4.3,4.3-5.3,12.9-5.3,19.5c0,5.3,0.6,14.9,5.3,19.4  c4.5,4.3,13.9,5,19.1,5c5.2,0,14.7-0.6,19.2-5.1c4.3-4.2,5.3-12.8,5.3-19.3c0-6.5-0.9-15.2-5.3-19.5c-4.3-4.2-12.8-5.1-19.1-5.1  C395.1,307.1,385.7,307.8,381.3,312.1z M359.1,373.9c-10-9.6-14.9-23.8-14.9-42.3s5-32.7,14.9-42.3c9.5-9.3,23.4-14,41.1-14  c17.7,0,31.6,4.7,41.2,13.9c10,9.6,15,23.9,15,42.3s-5.1,32.7-15.1,42.3c-9.5,9.2-23.4,13.9-41.1,13.9  C382.5,387.7,368.7,383,359.1,373.9z M332.9,468.1h135c-0.8-5.3-2.6-11-6.8-15.4c-6.8-7.1-18.2-8.5-26.5-8.5H366  c-8.3,0-19.6,1.5-26.4,8.5C335.4,457,333.6,462.7,332.9,468.1L332.9,468.1z M483.9,430.6c10.6,11,16.1,26.3,16.1,44.1v18.7  c0,3.5-2.8,6.4-6.3,6.4l0,0H307c-3.5,0-6.3-2.8-6.3-6.4l0,0v-18.7c0-17.9,5.5-33.1,16-44.1c11.5-12,28.5-18.3,49.3-18.3h68.4  C455.3,412.4,472.3,418.7,483.9,430.6z M317.4,364.2c-4.6,7.5-14.3,9.8-21.8,5.3l-46.1-28.2l-46.2,28.2c-7.5,4.6-17.2,2.2-21.8-5.2  c0,0,0-0.1-0.1-0.1c-4.6-7.5-2.2-17.2,5.3-21.8l46.8-28.7v-54.4c0-8.8,7.1-15.9,15.9-15.9c8.8,0,15.9,7.1,15.9,15.9v54.4l46.8,28.7  C319.6,347,322,356.7,317.4,364.2z" style="fill: #58617a;"/>
</svg>
