<?xml version="1.0" encoding="UTF-8"?>
<!-- Generator: Adobe Illustrator 24.3.0, SVG Export Plug-In . SVG Version: 6.00 Build 0)  -->
<svg xmlns="http://www.w3.org/2000/svg" xmlns:xlink="http://www.w3.org/1999/xlink" version="1.1" id="Capa_1" x="0px" y="0px" viewBox="0 0 500 500" style="enable-background:new 0 0 500 500;" xml:space="preserve">
<style type="text/css">
	.st0{fill:#006AFF;}
</style>
<desc>Created with sketchtool.</desc>
<g id="Page-1">
	<g id="Sábana-de-iconos-Copy" transform="translate(-875.000000, -1522.000000)">
		<g id="ic_fingerprint_regular" transform="translate(877.000000, 1522.000000)">
			<g id="Stroke-1">
				<path class="st0" d="M434.1,125.9c-4.8,0-9.6-2.3-12.6-6.6c-24.8-36.1-65.6-65.8-109.1-79.4c-64.9-20.3-135.3-7-193.2,36.4      c-15.9,11.9-31.4,26.1-46,42.4c-5.6,6.3-15.3,6.8-21.6,1.1c-6.3-5.6-6.8-15.3-1.1-21.6C66.5,80.4,83.5,64.8,101,51.7      c65.9-49.3,146.3-64.2,220.7-41c49.8,15.6,96.5,49.7,125.1,91.2c4.8,7,3.1,16.4-3.9,21.3C440.1,124.9,437,125.9,434.1,125.9z" style="fill: #58617a;"/>
			</g>
			<g id="Stroke-3">
				<path class="st0" d="M284.9,499.6c-1.2,0-2.4-0.1-3.6-0.4c-40.7-9.8-82.5-31.4-117.6-60.5c-41.3-34.4-75.1-88.9-90.3-145.8      c-17.6-65.6-8.5-125.9,25.4-169.9c42.5-55.1,117.8-81.3,187.5-65.4c4.8,0.8,30,5.6,58.1,23.4c28,17.8,64.7,52.4,80.3,116.5      c1.2,4.6,10.7,42.7-9.6,70c-12.5,16.8-32.7,25.5-60,25.9c-4.9,0.4-22.2,0.7-38.8-12.4c-16.5-13.2-26.4-35.1-29.2-65      c-0.8-8.6-4.3-15.3-10.5-20c-8.5-6.5-21.7-9-35.4-6.7l-0.8,0.1H240c-0.9,0.1-9.2,1.1-17.6,6.3c-10.7,6.5-16.4,16.6-17.5,30.9      c-1.4,17.6,4.1,46.3,23.6,74.3c14.4,20.6,41.2,47.6,87.6,58.9c8.2,2,13.2,10.2,11.2,18.5c-2,8.2-10.2,13.2-18.5,11.2      c-55.7-13.6-88.1-46.2-105.5-71.1c-20.4-29.4-31.3-64.5-29-94.1c2.4-31.2,19.5-47.4,33.4-55.5c12.9-7.5,25.3-9.3,28.8-9.7      c22.1-3.6,43.4,1,58.6,12.7c12.9,10,20.6,24.3,22.3,41.3c2,21,8.2,36.2,17.9,43.9c8.3,6.6,16.9,6,16.9,6l0.9-0.1h0.9      c17.6-0.1,29.8-4.8,36.4-13.6c10.2-13.6,6.7-36.6,4.6-43.7l-0.1-0.6c-25-103.5-112.9-117-113.8-117.2l-0.6-0.1l-0.6-0.1      c-58.5-13.5-121.5,8.3-157,54.1c-28,36.2-35.1,87.1-20.1,143.3c13.4,50.3,44.3,100.2,80.3,130.2c31.6,26.3,68.9,45.6,105.2,54.4      c8.2,2,13.2,10.2,11.2,18.4C298,494.9,291.8,499.6,284.9,499.6z" style="fill: #58617a;"/>
			</g>
			<g id="Stroke-5">
				<path class="st0" d="M301.7,446.9c-1.4,0-2.7-0.2-4.1-0.6c-65.5-18.2-124.9-65.5-155-123.6c-23.8-45.7-27.6-94.3-11.2-140.4      c8.8-26.2,27.5-48.3,52.7-62.4c24.6-13.7,53.7-18.9,82-14.5c28.5,4.4,55.2,18.4,75.1,39.6c20.8,22.1,32,49.9,31.8,78.3      c-0.1,8.4-6.9,15.2-15.3,15.2c-0.1,0-0.1,0-0.1,0c-8.5-0.1-15.2-7-15.2-15.4c0.4-42-35.2-80.3-81-87.4      c-44.6-6.8-88.1,17.4-101.1,56.6l-0.1,0.3c-13.5,37.9-10.2,78.1,9.5,116.2c25.9,49.9,79.3,92.4,136.1,108.2      c8.1,2.3,12.9,10.7,10.7,18.8C314.5,442.4,308.4,446.9,301.7,446.9z" style="fill: #58617a;"/>
			</g>
			<g id="Stroke-7">
				<path class="st0" d="M353,345.1c-30.7,0-56.7-8.5-77.6-25.4c-45.2-36.7-48.2-99.1-48.2-101.7c-0.4-8.5,6.3-15.5,14.7-15.9      c8.5-0.4,15.5,6.3,15.9,14.7c0.1,0.8,2.7,51.6,37.1,79.4c20.8,16.8,49.9,22.1,86.2,15.9c8.3-1.4,16.2,4.1,17.6,12.4      s-4.1,16.2-12.4,17.6C374.6,344.1,363.5,345.1,353,345.1z" style="fill: #58617a;"/>
			</g>
		</g>
	</g>
</g>
</svg>
