<?xml version="1.0" encoding="UTF-8"?>
<!-- Generator: Adobe Illustrator 24.3.0, SVG Export Plug-In . SVG Version: 6.00 Build 0)  -->
<svg xmlns="http://www.w3.org/2000/svg" xmlns:xlink="http://www.w3.org/1999/xlink" version="1.1" id="Artwork" x="0px" y="0px" viewBox="0 0 500 500" style="enable-background:new 0 0 500 500;" xml:space="preserve">
<style type="text/css">
	.st0{fill:#006AFF;}
</style>
<path class="st0" d="M433.7,61.4c-42.4-40.8-104-61.5-183.2-61.5S109.7,20.7,67.4,61.5c-43.9,42.4-66.3,105.6-66.3,188  S23.3,395,67.3,437.4c42.4,40.8,104,61.5,183.2,61.5c79.3,0,140.9-20.7,183.2-61.6C477.7,395,500,331.7,500,249.4  S477.8,103.8,433.7,61.4z M29.4,249.5c0-24.9,2.1-47.7,6.4-68.4h70.9c-3.6,21.8-5.4,44.6-5.4,67.9c0,28.9,2.9,57.1,8.3,83.5H39.3  C32.8,308,29.4,280.4,29.4,249.5z M129.6,249c0-23.4,2-46.2,5.8-67.9h99.6v151.4h-96.5C132.7,306.4,129.6,278.1,129.6,249z   M263.4,32.1c23.5,6.6,45.6,26.9,63.5,58.8c10.2,18.2,18.5,39.1,24.5,61.9h-88V32.1z M235.1,30.8v121.9h-93.4  c6-22.7,14.3-43.6,24.5-61.9C185.5,56.5,209.6,35.7,235.1,30.8z M235.1,360.9v106.3c-25.5-4.8-49.6-25.8-68.9-60.1  c-7.8-14-14.5-29.5-19.9-46.2H235.1z M263.4,465.8v-105h83.4c-5.4,16.7-12.1,32.2-19.9,46.2C309,439,286.9,459.3,263.4,465.8z   M263.4,332.5V181.1h94.2c3.8,21.6,5.8,44.5,5.8,67.9c0,29.1-3.1,57.4-8.9,83.5H263.4z M386.4,181.1h79c4.3,20.7,6.4,43.5,6.4,68.4  c0,30.9-3.3,58.6-9.9,83h-78.4c5.5-26.5,8.3-54.6,8.3-83.5C391.8,225.7,389.9,202.9,386.4,181.1z M457.7,152.8h-77.1  c-6.8-27.9-16.6-53.5-29-75.7c-9.3-16.6-19.8-30.6-31.3-42.1C390.4,49.8,436.3,89.2,457.7,152.8z M170.5,37.4  c-10.6,11-20.3,24.2-28.9,39.7c-12.5,22.2-22.3,47.9-29.1,75.7h-69C63.8,92.3,106.2,53.8,170.5,37.4z M49,360.9h67.7  c6.4,21.8,14.7,42.1,24.8,60.1c8.9,15.9,19,29.6,30,40.7C112.1,446.8,71.2,413.1,49,360.9z M319.1,464.1  c11.9-11.6,22.8-26,32.4-43.1c10.1-18,18.4-38.2,24.9-60.1h75.7C428.7,416.1,384.2,450.6,319.1,464.1z" style="fill: #58617a;"/>
</svg>
