<?xml version="1.0" encoding="UTF-8"?>
<!-- Generator: Adobe Illustrator 24.3.0, SVG Export Plug-In . SVG Version: 6.00 Build 0)  -->
<svg xmlns="http://www.w3.org/2000/svg" xmlns:xlink="http://www.w3.org/1999/xlink" version="1.1" id="Capa_1" x="0px" y="0px" viewBox="0 0 500 500" style="enable-background:new 0 0 500 500;" xml:space="preserve">
<style type="text/css">
	.st0{fill-rule:evenodd;clip-rule:evenodd;fill:#006AFF;}
</style>
<desc>Created with sketchtool.</desc>
<g id="Page-1">
	<g id="Sábana-de-iconos-Copy" transform="translate(-1085.000000, -2692.000000)">
		<path id="ic_intranet_regular" class="st0" d="M1526.1,3102.7c15.2,0,27.6,12,27.6,26.9c0,14.7-12.3,26.7-27.6,26.7    c-15.1,0-27.4-12-27.4-26.7C1498.7,3114.7,1511,3102.7,1526.1,3102.7z M1244.1,3057.1c33.4-7.5,64.4-10.4,81.5-11.5V3159    C1291.4,3150,1261.7,3111.5,1244.1,3057.1z M1158.7,3090c16.7-10.6,35.9-18.6,55.3-24.9c11.7,35.6,28.2,65.7,48.3,87.6    C1217.4,3142,1182.9,3121,1158.7,3090z M1117.1,2959.2h79.2c1.1,26.9,4.4,52.6,9.8,76.4c-22.1,6.9-44.3,16.1-64,28.4    C1127.3,3035.5,1118.7,3000.4,1117.1,2959.2z M1141.7,2820.4c20.1,12.4,42.3,21.6,64.2,28.5c-5.4,24.9-9,51.6-9.8,79.7h-79.2    C1118.3,2886,1126.7,2849.9,1141.7,2820.4z M1262.6,2731.1c-20.3,22-36.8,52.1-48.5,88.3c-19.4-6.3-38.6-14.3-55.8-25.1    C1182.4,2762.9,1217.2,2741.9,1262.6,2731.1z M1325.7,2724.8v114c-17.1-1-47.9-3.7-81.5-11.2    C1261.7,2772.7,1291.1,2734,1325.7,2724.8z M1227.4,2928.6c0.9-25,3.8-49.3,8.5-71.6c37.4,8.8,71.3,11.5,89.6,12.2v59.3    L1227.4,2928.6L1227.4,2928.6z M1325.7,2959.2v55.8c-18.4,1.1-52.3,4.1-89.4,12.4c-4.8-21.2-7.8-44.2-8.5-68.3H1325.7z     M1526.1,2731.7c15.2,0,27.6,12,27.6,26.7c0,14.9-12.3,26.9-27.6,26.9c-15.1,0-27.4-12-27.4-26.9    C1498.7,2743.8,1511,2731.7,1526.1,2731.7z M1526.1,2917.9c15.2,0,27.6,12,27.6,26.9c0,14.9-12.3,26.9-27.6,26.9    c-15.1,0-27.4-12-27.4-26.9S1511,2917.9,1526.1,2917.9z M1469.6,2960.1c6.9,24.3,29.5,42.2,56.4,42.2c32.6,0,58.9-25.9,58.9-57.5    c0-31.6-26.3-57.5-58.9-57.5c-27,0-49.5,17.9-56.4,42.2H1357v-28h72.6c8.5,0,15.4-6.8,15.7-15.1l1.1-112.8h23.4    c6.9,24.3,29.5,42.2,56.4,42.2c32.6,0,58.9-25.7,58.9-57.5c0-31.6-26.3-57.3-58.9-57.3c-27,0-49.5,17.9-56.4,42h-38.8    c-8.5,0-15.7,6.8-15.7,15.3l-1.2,112.5h-56.8v-163.6c0-8.5-6.9-15.3-15.7-15.3c-167.6,0-256.2,86.4-256.2,249.8v2.1v0.4    c0.4,61,13.2,110.9,37.6,149.6c0.4,0.8,0.6,1.8,1.3,2.4c0.4,0.4,0.9,0.4,1.1,0.8c41.2,62.4,113.9,94.8,216.3,94.8    c8.8,0,15.7-6.9,15.7-15.3v-159.5h56.8l1.2,112.7c0,8.3,7.1,15.1,15.7,15.1h38.9c6.9,24.3,29.5,42,56.4,42    c32.6,0,58.9-25.7,58.9-57.3c0-31.6-26.3-57.5-58.9-57.5c-27,0-49.5,17.9-56.4,42.2h-23.4l-1.1-112.7c-0.2-8.3-7.1-15.1-15.7-15.1    h-72.6v-26.5H1469.6z" style="fill: #58617a;"/>
	</g>
</g>
</svg>
