<?xml version="1.0" encoding="UTF-8"?>
<!-- Generator: Adobe Illustrator 24.3.0, SVG Export Plug-In . SVG Version: 6.00 Build 0)  -->
<svg xmlns="http://www.w3.org/2000/svg" xmlns:xlink="http://www.w3.org/1999/xlink" version="1.1" id="Capa_1" x="0px" y="0px" viewBox="0 0 500 500" style="enable-background:new 0 0 500 500;" xml:space="preserve">
<style type="text/css">
	.st0{fill-rule:evenodd;clip-rule:evenodd;fill:#006AFF;}
</style>
<desc>Created with sketchtool.</desc>
<g id="Page-1">
	<g id="Sábana-de-iconos-Copy" transform="translate(-1570.000000, -196.000000)">
		<path id="ic_question_masa" class="st0" d="M1859.3,447.8c-34,39.3-35.3,40.9-35.3,77.6c0,5.6-4.6,10.2-10.2,10.2h-11.2    c-4.9,0-9.1-3.4-10-8.3c-1-5.1-1.4-9.9-1.4-16.1c0-27.5,9.7-43.8,31.4-69.9l4.1-5c35.7-42.3,42.5-54,42.5-74    c0-14.2-4.1-23.4-13.6-31c-5.5-4.3-15.1-9.4-41.3-9.4c-14.2,0-26.9,1.6-42.3,5.6c-2.7,0.6-5.6,0.2-8-1.4c-2.3-1.5-4-3.9-4.5-6.7    l-1.6-8.8c-0.9-4.6,1.4-9.1,5.6-11.1c9.6-4.6,33.1-9.3,55.8-9.3c23.9,0,43,5.3,56.8,15.7c17.7,13,26,31.1,26,56.7    C1902,394.1,1889,412.7,1859.3,447.8 M1809.7,605.7c-13.6,0-22.2-8.5-22.2-21v-1.6c0-12.6,8.8-21.4,21.4-21.4    c13.4,0,22.2,8.8,22.2,21.4C1831.1,597.3,1822.5,605.7,1809.7,605.7 M1830.2,196.3c-7-0.1-15.3-0.4-22.7-0.2    c-39.7,0.4-237.5,13.9-237.5,249.3c0,235.4,199.2,250.2,239.1,250.8c2.3,0.1,4.8,0.1,7.2,0.1c5.2,0,10.3-0.1,14.7-0.1    c39.9-0.7,239-16.2,239-249.3C2070,213.8,1870.2,197.2,1830.2,196.3" style="fill: #58617a;"/>
	</g>
</g>
</svg>
