<?xml version="1.0" encoding="UTF-8"?>
<!-- Generator: Adobe Illustrator 24.3.0, SVG Export Plug-In . SVG Version: 6.00 Build 0)  -->
<svg xmlns="http://www.w3.org/2000/svg" xmlns:xlink="http://www.w3.org/1999/xlink" version="1.1" id="Capa_1" x="0px" y="0px" viewBox="0 0 500 500" style="enable-background:new 0 0 500 500;" xml:space="preserve">
<style type="text/css">
	.st0{fill-rule:evenodd;clip-rule:evenodd;fill:#006AFF;}
</style>
<path class="st0" d="M315.7,168.4c2.4,5.1,7.6,8.3,13.2,8.3h0.9l147.5-8.5c7.2-0.3,13-5.9,13.6-13.1l9-140.1  c0.4-5.8-3.1-11.3-8.5-13.7c-5.5-2.3-11.8-1.3-16.1,2.8L410,66.2c-45.1-35-100.7-53.9-157.7-53.8C113.1,12.3,0,121.7,0,256.1  s113.1,243.8,252.2,243.8c104.7,0,199.7-63.7,236.3-158.6c4.1-10.7-1.4-22.7-12.2-26.7c-0.2-0.1-0.4-0.1-0.6-0.2  c-11.1-4.1-23.5,1.4-28,12.3c-30.3,78.5-108.9,131.3-195.5,131.3C137.1,458,43.5,367.4,43.5,256.1S137.1,54.2,252.2,54.2  c46.2,0,90.4,14.6,126.7,41.4l-60.2,57.1C314.4,156.7,313.2,163.1,315.7,168.4" style="fill: #58617a;"/>
</svg>
