<?xml version="1.0" encoding="UTF-8"?>
<!-- Generator: Adobe Illustrator 24.3.0, SVG Export Plug-In . SVG Version: 6.00 Build 0)  -->
<svg xmlns="http://www.w3.org/2000/svg" xmlns:xlink="http://www.w3.org/1999/xlink" version="1.1" id="Capa_1" x="0px" y="0px" viewBox="0 0 500 500" style="enable-background:new 0 0 500 500;" xml:space="preserve">
<style type="text/css">
	.st0{fill-rule:evenodd;clip-rule:evenodd;fill:#006AFF;}
</style>
<path class="st0" d="M117.6,304.9c12,0,16.8-4.9,16.8-16.9c0-12-4.9-16.9-16.8-16.9s-16.8,4.9-16.8,16.9S105.6,304.9,117.6,304.9z   M117.6,240.1c29,0,47.7,18.8,47.7,47.9s-18.8,47.9-47.7,47.9c-29,0-47.7-18.8-47.7-47.9S88.6,240.1,117.6,240.1z M416.5,186  c19.9-24.8,52.4-73.3,52.5-102.2c0.1-34.9-17.4-52.5-52.1-52.6h-0.3c-17.1,0-30.2,4.4-38.9,13.1c-8.8,8.8-13.3,21.9-13.3,39.2  C364.3,112.3,397.1,161.4,416.5,186z M417,0c51.4,0.1,83.2,32.2,83,83.8c-0.1,52.2-63.1,127.3-72.6,136.8c-6,6-15.8,6-21.8,0.1  l-0.1-0.1c-1.2-1.2-2.3-2.5-3.4-3.8c-0.6,7.5-6.7,13.4-14.2,13.9c-0.6,0.1-2.6,0.3-5.4,0.7c-8.5,1.2-16.3-4.7-17.5-13.1  c-1.2-8.5,4.6-16.3,13.1-17.6l0,0c2.7-0.4,5.3-0.7,8-1c0.9-0.1,1.6,0.3,2.3,0.3c-21.7-28.2-55.1-78.9-55-116.7  c0.1-25.4,7.8-46.5,22.5-61.1C370.4,7.6,391.4,0,416.7,0H417L417,0z M416.7,90.4c7.9,0,11.2-3.2,11.2-11.2c0-7.9-3.2-11.2-11.2-11.2  c-7.9,0-11.1,3.2-11.1,11.2C405.6,87.1,408.8,90.4,416.7,90.4z M416.7,47.3c19.3,0,31.8,12.5,31.8,31.8c0,19.4-12.5,31.8-31.8,31.8  c-19.3,0-31.7-12.5-31.7-31.8S397.4,47.3,416.7,47.3z M397.8,388.2c8,3.1,12,12,9,20c-2.9,7.8-7.6,15.2-13.9,22  c-5.8,6.3-15.5,6.6-21.8,0.9l-0.1-0.1c-6.3-5.8-6.6-15.7-0.8-21.9c3.6-3.8,6.1-7.8,7.6-11.8C381,389.2,389.9,385.2,397.8,388.2z   M341.8,428.5c7.7-3.8,17-0.5,20.7,7.2c3.8,7.7,0.5,17-7.2,20.7l0,0c-6.3,3.1-12.9,5.9-20,8.5c-7.9,3-16.8-0.9-19.8-8.9  c0-0.1-0.1-0.1-0.1-0.2c-3-8,1-16.9,9-19.9l0,0C330.5,433.7,336.2,431.3,341.8,428.5z M305.6,346.6c-7.8-3.4-11.5-12.6-8-20.4  c3.3-7.5,11.7-11.1,19.4-8.5c6,2.4,12.3,4.7,18.6,6.9c8,2.9,12.2,11.8,9.3,19.8c-2.9,8-11.8,12.2-19.8,9.3l0,0  C318.6,351.5,312,349.1,305.6,346.6z M321.1,245.4c-8.5-0.1-15.5-7-15.4-15.6c0-6.6,4.3-12.5,10.5-14.6c6.9-2.3,13.7-4.3,20.3-6  c8.3-2.2,16.8,2.7,18.9,11c2.1,8.3-2.7,16.8-11,18.9c-6,1.6-12.2,3.4-18.4,5.5C324.5,245.1,322.9,245.4,321.1,245.4L321.1,245.4z   M269.3,275.5c-8.5,0-15.5-7-15.4-15.5c0-3.6,1.3-7.2,3.6-10c4.8-5.8,11-11.2,18.6-16.1c7.2-4.7,16.8-2.7,21.5,4.5  c4.7,7.2,2.7,16.8-4.5,21.5l0,0c-5.1,3.3-9.1,6.8-12,10.2C278.2,273.5,273.8,275.5,269.3,275.5z M275.8,328.7c-3.6,0-7-1.3-9.8-3.6  c-7.1-5.7-12.9-12.9-16.7-21.1c-3.5-7.8-0.1-17,7.7-20.6c7.8-3.5,16.9,0,20.5,7.8c1.6,3.5,4.3,6.8,8.3,10c6.6,5.5,7.5,15.3,2.1,21.9  C284.8,326.6,280.4,328.7,275.8,328.7L275.8,328.7z M360.6,368.3c-7.6-3.9-10.5-13.3-6.6-20.9c3.9-7.6,13.3-10.5,20.9-6.6  c8.3,4.3,14.9,8.8,20.1,13.8c6.2,5.9,6.5,15.8,0.5,22c-2.9,3.1-6.9,4.8-11.2,4.8c-3.9,0-7.8-1.5-10.6-4.2  C369.7,373.7,365.3,370.7,360.6,368.3z M229.5,458.5c8.9-1,16.4,4.6,17.6,13c1.3,8.5-4.6,16.4-13,17.6c-7.1,1.1-13.9,2-20.5,2.8  c-8.5,1.1-16.1-4.9-17.2-13.4c0-0.1,0-0.1,0-0.1c-1.1-8.5,5-16.2,13.4-17.3l0,0C216.1,460.4,222.8,459.5,229.5,458.5L229.5,458.5z   M287.6,447.2c8.3-2.1,16.6,2.9,18.7,11.2c0,0.1,0,0.1,0,0.1c2.1,8.3-3,16.7-11.2,18.8c-6.8,1.7-13.5,3.3-20.3,4.7  c-8.4,1.7-16.6-3.6-18.3-12l0,0c-1.8-8.4,3.6-16.6,12-18.4C274.9,450.3,281.3,448.8,287.6,447.2L287.6,447.2z M117.2,461.3  c29.7-35.4,86.9-118,87-166.5c0.1-28.1-7.3-49.9-22.1-64.7c-14.7-14.8-36.3-22.3-64.4-22.4h-0.4c-56.3,0-86.2,30-86.4,86.7  C30.8,343.3,87.7,425.9,117.2,461.3L117.2,461.3z M170.2,465.1c8.5-0.5,15.8,5.8,16.6,14.3c0.6,8.5-5.7,16-14.2,16.6  c-9.3,0.7-15.9,1.1-18.9,1.3c-0.3,0.1-0.6,0.1-0.9,0.1c-7.3-0.1-13.7-5-15.7-12.1c-4.1,4.8-7.3,8.4-9,10.1c-6,6-15.7,6.1-21.8,0.1  c-0.1-0.1-0.1-0.1-0.1-0.1C93,482.1-0.2,369.9,0,294.2c0.2-73.6,44.1-117.5,117.4-117.5h0.6c36.1,0.1,65.9,11,86.2,31.6  c20.4,20.6,31.1,50.5,31,86.7c-0.2,55.1-50.7,130.2-82.7,171.5C155.5,466.2,161.7,465.9,170.2,465.1z" style="fill: #58617a;"/>
</svg>
