<?xml version="1.0" encoding="UTF-8"?>
<!-- Generator: Adobe Illustrator 24.3.0, SVG Export Plug-In . SVG Version: 6.00 Build 0)  -->
<svg xmlns="http://www.w3.org/2000/svg" xmlns:xlink="http://www.w3.org/1999/xlink" version="1.1" id="Capa_1" x="0px" y="0px" viewBox="0 0 500 500" style="enable-background:new 0 0 500 500;" xml:space="preserve">
<style type="text/css">
	.st0{fill-rule:evenodd;clip-rule:evenodd;fill:#006AFF;}
</style>
<desc>Created with sketchtool.</desc>
<g id="Page-1">
	<g id="Sábana-de-iconos-Copy" transform="translate(-558.000000, -98.000000)">
		<path id="ic_more" class="st0" d="M808,410.5c-34.5,0-62.5-28-62.5-62.5s28-62.5,62.5-62.5c34.5,0,62.5,28,62.5,62.5    S842.5,410.5,808,410.5z M808,223c-34.5,0-62.5-28-62.5-62.5S773.5,98,808,98s62.5,28,62.5,62.5S842.5,223,808,223z M808,598    c-34.5,0-62.5-28-62.5-62.5s28-62.5,62.5-62.5c34.5,0,62.5,28,62.5,62.5S842.5,598,808,598z" style="fill: #ffffff;"/>
	</g>
</g>
</svg>
