<?xml version="1.0" encoding="UTF-8"?>
<!-- Generator: Adobe Illustrator 24.3.0, SVG Export Plug-In . SVG Version: 6.00 Build 0)  -->
<svg xmlns="http://www.w3.org/2000/svg" xmlns:xlink="http://www.w3.org/1999/xlink" version="1.1" id="Capa_1" x="0px" y="0px" viewBox="0 0 500 500" style="enable-background:new 0 0 500 500;" xml:space="preserve">
<style type="text/css">
	.st0{fill-rule:evenodd;clip-rule:evenodd;fill:#006AFF;}
</style>
<path class="st0" d="M344.4,86.2L344.4,86.2c-11.4-0.1-20.6,9-20.8,20.3l-0.3,281.7c0,48.6-23.2,71.2-72.9,71.2  c-49.7,0-72.9-22.6-72.9-71.2V83.5c0-30.1,13.1-42.9,43.9-42.9s43.9,12.8,43.9,43L266,372c0,9.5-2,11.4-11.7,11.4  c-9.7,0-11.6-1.9-11.6-11.4V107.8c-0.1-11.3-9.4-20.4-20.8-20.3l0,0c-11.3-0.1-20.6,9-20.8,20.3l0,0v264.2c0,32.1,20.3,52,53.2,52  c32.8,0,53.2-19.9,53.2-52l-0.6-288.4C306.9,31.2,274.9,0,221.4,0S136,31.2,136,83.5v304.6c0,71.1,41.7,111.9,114.5,111.9  c72.7,0,114.4-40.8,114.4-111.8l0.3-281.7C365,95.1,355.7,86.1,344.4,86.2L344.4,86.2" style="fill: #ffffff;"/>
</svg>
