<?xml version="1.0" encoding="UTF-8"?>
<!-- Generator: Adobe Illustrator 24.3.0, SVG Export Plug-In . SVG Version: 6.00 Build 0)  -->
<svg xmlns="http://www.w3.org/2000/svg" xmlns:xlink="http://www.w3.org/1999/xlink" version="1.1" id="Artwork" x="0px" y="0px" viewBox="0 0 500 500" style="enable-background:new 0 0 500 500;" xml:space="preserve">
<style type="text/css">
	.st0{fill:#006AFF;}
</style>
<g>
	<path class="st0" d="M481.5,500H20c-6.7,0-12.6-3.1-15.9-8.5c-3.3-5.3-3.5-12-0.6-18l229.1-463c3.3-6.5,9.1-10.4,15.6-10.4l0,0   c6.5,0,12.4,3.8,15.6,10.3l234,463c0,0,0,0.1,0.1,0.1c3,6,2.8,12.8-0.5,18C494.1,496.8,488.1,500,481.5,500z M35.2,472.2H466   L248.3,41.4L35.2,472.2z M239,22.9L239,22.9L239,22.9L239,22.9z" style="fill: #ffffff;"/>
</g>
<g>
	<path class="st0" d="M251,376.4c-7.7,0-13.9-6.2-13.9-13.9V166.9c0-7.7,6.2-13.9,13.9-13.9c7.7,0,13.9,6.2,13.9,13.9v195.6   C265,370.1,258.7,376.4,251,376.4z" style="fill: #ffffff;"/>
</g>
<g>
	<path class="st0" d="M251,430.2c-8.9,0-14.1-5.1-14.1-14.1s5.1-14.1,14.1-14.1c8.9,0,14.1,5.1,14.1,14.1S259.9,430.2,251,430.2z" style="fill: #ffffff;"/>
</g>
</svg>
