<?xml version="1.0" encoding="UTF-8"?>
<!-- Generator: Adobe Illustrator 24.3.0, SVG Export Plug-In . SVG Version: 6.00 Build 0)  -->
<svg xmlns="http://www.w3.org/2000/svg" xmlns:xlink="http://www.w3.org/1999/xlink" version="1.1" id="Capa_1" x="0px" y="0px" viewBox="0 0 500 500" style="enable-background:new 0 0 500 500;" xml:space="preserve">
<style type="text/css">
	.st0{fill-rule:evenodd;clip-rule:evenodd;fill:#006AFF;}
</style>
<path class="st0" d="M477,225.7H274.4V23c-0.7-13.4-12.2-23.7-25.6-23c-12.4,0.6-22.3,10.6-23,23v202.7H23  C9.6,226.5-0.7,238,0,251.4c0.6,12.4,10.6,22.3,23,23h202.7v202.7c0.7,13.4,12.2,23.7,25.6,23c12.4-0.6,22.3-10.6,23-23V274.4h202.7  c13.4-0.7,23.7-12.2,23-25.6C499.4,236.3,489.5,226.4,477,225.7" style="fill: #ffffff;"/>
</svg>
