<?xml version="1.0" encoding="UTF-8"?>
<!-- Generator: Adobe Illustrator 24.3.0, SVG Export Plug-In . SVG Version: 6.00 Build 0)  -->
<svg xmlns="http://www.w3.org/2000/svg" xmlns:xlink="http://www.w3.org/1999/xlink" version="1.1" id="Capa_1" x="0px" y="0px" viewBox="0 0 500 500" style="enable-background:new 0 0 500 500;" xml:space="preserve">
<style type="text/css">
	.st0{fill-rule:evenodd;clip-rule:evenodd;fill:#006AFF;}
</style>
<desc>Created with sketchtool.</desc>
<g id="Page-1">
	<g id="Sábana-de-iconos-Copy" transform="translate(-1612.000000, -196.000000)">
		<path id="ic_avoid_masa" class="st0" d="M1861.9,654.3c-60.7,0-107.4-12.2-141.2-37.1l311.8-311.7c25.3,33.9,37.8,80.6,37.8,140.6    C2070.3,588.1,2004.1,654.3,1861.9,654.3 M1861.9,237.7c60.3,0,107.2,12.7,141.1,38.2l-311.9,311.9    c-25.2-33.8-37.5-80.7-37.5-141.7C1653.7,303.9,1719.9,237.7,1861.9,237.7 M1861.9,196C1704,196,1612,275.8,1612,446.1    S1704,696,1861.9,696S2112,616.4,2112,446.1S2019.9,196,1861.9,196" style="fill: #ffffff;"/>
	</g>
</g>
</svg>
