<?xml version="1.0" encoding="UTF-8"?>
<!-- Generator: Adobe Illustrator 24.3.0, SVG Export Plug-In . SVG Version: 6.00 Build 0)  -->
<svg xmlns="http://www.w3.org/2000/svg" xmlns:xlink="http://www.w3.org/1999/xlink" version="1.1" id="Capa_1" x="0px" y="0px" viewBox="0 0 500 500" style="enable-background:new 0 0 500 500;" xml:space="preserve">
<style type="text/css">
	.st0{fill-rule:evenodd;clip-rule:evenodd;fill:#006AFF;}
</style>
<desc>Created with sketchtool.</desc>
<g id="Page-1">
	<g id="Sábana-de-iconos-Copy" transform="translate(-749.000000, -1065.000000)">
		<path id="ic_flag_regular" class="st0" d="M1180.4,1306.2c-0.4,0.9-1.4,2.3-3.5,2.3H818.2v-19.2v-151.4v-39.6c0-2.2,1.7-4,3.9-4    h355c2.1,0,3.1,1.4,3.5,2.3c0.5,1.1,0.8,2.6,0.8,2.8l-75.4,78.4c-12.3,12.9-12.4,33.8-0.1,47l74.2,77.3    C1181.2,1303.6,1180.9,1305.2,1180.4,1306.2z M1125.9,1204.2c-1.6-1.7-1.6-4.3-0.1-5.8l76.6-79.9c7.4-10.1,8.7-23.5,3.3-34.9    c-5.5-11.4-16.4-18.6-28.8-18.6H822c-17.6,0-32,14.9-32,33.2v39.6v151.4v260.9c0,8,6.3,14.6,14.1,14.6s14.1-6.5,14.1-14.6v-212.5    h358.8c12.3,0,23.3-7.1,28.8-18.6c5.5-11.4,4.2-24.8-4.4-36.3L1125.9,1204.2z" style="fill: #ffffff;"/>
	</g>
</g>
</svg>
