<?xml version="1.0" encoding="UTF-8"?>
<!-- Generator: Adobe Illustrator 24.3.0, SVG Export Plug-In . SVG Version: 6.00 Build 0)  -->
<svg xmlns="http://www.w3.org/2000/svg" xmlns:xlink="http://www.w3.org/1999/xlink" version="1.1" id="Capa_1" x="0px" y="0px" viewBox="0 0 500 500" style="enable-background:new 0 0 500 500;" xml:space="preserve">
<style type="text/css">
	.st0{fill:#006AFF;}
</style>
<g id="Artwork">
	<path class="st0" d="M485.5,208.5c-8.4-8.3-19.5-13.4-31.3-14.3c-7.2-0.6-14.5,0.6-21.2,3.5V97.4c0-28.8-7.9-53.3-23.5-69.8   C393,10,368.9,1.2,338.2,1.2H94.8c-30.7,0-54.7,8.9-71.3,26.4C7.9,44.1,0,68.6,0,97.4v306.5c0,28.8,7.9,51.9,23.5,68.4   c16.6,17.6,40.5,26.4,71.3,26.4h243.4c30.7,0,54.7-8.9,71.3-26.4c15.6-16.5,23.5-39.6,23.5-68.4v-80.1   c26.4-23.5,48.9-43.6,52.3-46.9c9.5-9.4,14.5-21,14.6-33.6C499.9,230.2,494.7,217.8,485.5,208.5z M96.3,107.4h242   c7.8,0,14.2,6.4,14.2,14.2s-6.4,14.2-14.2,14.2h-242c-7.8,0-14.2-6.4-14.2-14.2S88.5,107.4,96.3,107.4z M96.3,193.5h242   c7.8,0,14.2,6.4,14.2,14.2s-6.4,14.2-14.2,14.2h-242c-7.8,0-14.2-6.4-14.2-14.2S88.5,193.5,96.3,193.5z M96.3,279.5h241.3   c-10.6,9.4-21.5,19-32.1,28.4H96.3c-7.8,0-14.2-6.4-14.2-14.2S88.5,279.5,96.3,279.5L96.3,279.5z M251.4,393.9H96.3   c-7.8,0-14.2-6.4-14.2-14.2s6.4-14.2,14.2-14.2h164.7L251.4,393.9z M465.5,256.7c-5.7,5.7-87.5,78.2-142.5,126.8l-43,14.2l14.1-42   c23.1-20.4,135.2-119.4,143-127.2c4.5-4.5,9.5-6.5,15-6.1c10.9,0.8,19.4,9.8,19.4,20.7C471.6,248.1,469.5,252.7,465.5,256.7   L465.5,256.7z" style="fill: #ffffff;"/>
</g>
</svg>
