<?xml version="1.0" encoding="UTF-8"?>
<!-- Generator: Adobe Illustrator 24.3.0, SVG Export Plug-In . SVG Version: 6.00 Build 0)  -->
<svg xmlns="http://www.w3.org/2000/svg" xmlns:xlink="http://www.w3.org/1999/xlink" version="1.1" id="Artwork" x="0px" y="0px" viewBox="0 0 500 500" style="enable-background:new 0 0 500 500;" xml:space="preserve">
<style type="text/css">
	.st0{fill:#006AFF;}
</style>
<g>
	<path class="st0" d="M434,45.6H66c-36.4,0-66,29.7-66,66v285.8c0,36.4,29.7,66,66,66h365.9c37.5,0,68.1-30.6,68.1-68.1V111.7   C500,75.2,470.3,45.6,434,45.6z M472.6,395.4c0,22.5-18.2,40.7-40.7,40.7H66c-21.3,0-38.6-17.3-38.6-38.6V171h445.3V395.4z    M472.6,143.7H27.4v-32C27.4,90.3,44.7,73,66,73l368,0c21.3,0,38.6,17.3,38.6,38.6V143.7z" style="fill: #ffffff;"/>
	<path class="st0" d="M297.8,379.8v-22.5h-61l26.3-28.7c12-13.3,20.5-24.1,25.2-32.6c4.7-8.5,7.1-17.4,7.1-26.7   c0-12.3-3.6-22.2-10.8-29.4c-9.4-9.4-24.5-14.1-45.3-14.1c-5.9,0-12,0.4-18.5,1.2c-6.4,0.9-12,1.8-16.7,3v23.5   c10.3-1.9,20.2-2.9,29.6-2.9c10.9,0,18.5,1.9,23,5.8c4,3.3,6,8.1,6,14.6c0,5.8-1.6,11.7-5.1,17.5c-3.4,5.8-9.6,14.3-18.7,25.3   l-29.4,35.8c-3.2,3.8-5.5,7.5-6.8,11c-1.4,3.6-2,7.6-2,12.2c0,3.1,0.3,5.4,0.9,6.9H297.8z" style="fill: #ffffff;"/>
	<path class="st0" d="M138.8,88.1c-12.3,0-20.7,8.3-20.7,20.7c0,7.6,3.1,12.3,5.6,14.8c2.6,2.6,7.3,5.8,15.1,5.8   c7.8,0,12.5-3.2,15.1-5.8c2.6-2.6,5.6-7.3,5.6-14.8C159.5,96.4,151.1,88.1,138.8,88.1z" style="fill: #ffffff;"/>
	<path class="st0" d="M376.2,93.4c-2.6-2.4-7.2-5.3-14.6-5.3c-12.3,0-20.7,8.3-20.7,20.7c0,7.6,3.1,12.3,5.6,14.8   c2.6,2.6,7.3,5.8,15.1,5.8c7.8,0,12.5-3.2,15.1-5.9c2.6-2.6,5.6-7.3,5.6-14.8C382.2,100.8,379,96,376.2,93.4z" style="fill: #ffffff;"/>
</g>
</svg>
