<?xml version="1.0" encoding="UTF-8"?>
<!-- Generator: Adobe Illustrator 24.3.0, SVG Export Plug-In . SVG Version: 6.00 Build 0)  -->
<svg xmlns="http://www.w3.org/2000/svg" xmlns:xlink="http://www.w3.org/1999/xlink" version="1.1" id="Capa_1" x="0px" y="0px" viewBox="0 0 500 500" style="enable-background:new 0 0 500 500;" xml:space="preserve">
<style type="text/css">
	.st0{fill:#006AFF;}
</style>
<g>
	<path class="st0" d="M104.2,146.6c7.8,0.9,14.9-4.7,15.8-12.5c4.1-35.6,17.1-62.5,39-79.9c21.5-17.1,52.1-25.8,91-25.8   c43,0,75.7,10.6,97.5,31.6c22.4,21.6,33.8,55.2,33.8,99.8l-0.2,13.8c0,0.1,0,0.1,0,0.2c0,4.6-0.7,11-4.3,14.5   c-2.8,2.8-7.5,4.3-14,4.3h-2.7c1.2-7.9,1.8-16.4,1.8-25.3c0-72-39.8-111.7-111.7-111.7S138.3,95.2,138.3,167.3S178,279,250,279   c51.4,0,86.3-20.2,102.1-58h10.5c14.2,0,25.7-4.3,34-12.5c8.3-8.2,12.8-20.2,12.8-34.6l0.2-13.8c0-0.1,0-0.1,0-0.2   c0-52.6-14.3-93.1-42.5-120.3C340,13.3,300.5,0,250,0c-45.4,0-82.1,10.7-108.7,32c-27.9,22.3-44.5,55.5-49.5,98.8   C90.9,138.7,96.4,145.7,104.2,146.6z M312,230.8c-13.7,13.2-34.5,19.8-62,19.8s-48.4-6.7-62-19.8c-14.2-13.6-21.3-34.9-21.3-63.5   c0-28.6,7.2-49.9,21.3-63.5C201.7,90.7,222.5,84,250,84c27.6,0,48.4,6.6,62,19.8c14.2,13.6,21.3,34.9,21.3,63.5   c0,9.2-0.7,17.6-2.2,25.2h-32.5c-4-5.9-10.9-9.3-19.8-9.3c-14.7,0-23.8,9.1-23.8,23.7c0,7.3,2.1,12.9,6.3,17.2   c4.1,4.3,10.2,6.5,17.5,6.5s13.5-2.3,17.6-6.5c0.9-1,1.8-2,2.5-3.1h21.3C317.7,224.6,315.1,227.9,312,230.8z" style="fill: #ffffff;"/>
	<path class="st0" d="M443,345.9c-25.7-26.7-63.8-40.7-110.2-40.7H166.9c-46.4,0-84.5,14.1-110.2,40.7   c-23.6,24.5-36.1,58.5-36.1,98.3v41.6c0,7.8,6.4,14.2,14.2,14.2h429.9c7.9,0,14.2-6.3,14.2-14.2v-41.6   C479,404.4,466.6,370.4,443,345.9z M450.6,471.6H49.1v-27.4c0-32.3,9.7-59.5,28.2-78.5c20.5-21.3,50.6-32.1,89.7-32.1h165.8   c39,0,69.2,10.8,89.7,32.1c18.3,19.1,28.1,46.2,28.1,78.5V471.6z" style="fill: #ffffff;"/>
</g>
</svg>
