<?xml version="1.0" encoding="UTF-8"?>
<!-- Generator: Adobe Illustrator 24.3.0, SVG Export Plug-In . SVG Version: 6.00 Build 0)  -->
<svg xmlns="http://www.w3.org/2000/svg" xmlns:xlink="http://www.w3.org/1999/xlink" version="1.1" id="Capa_1" x="0px" y="0px" viewBox="0 0 500 500" style="enable-background:new 0 0 500 500;" xml:space="preserve">
<style type="text/css">
	.st0{fill-rule:evenodd;clip-rule:evenodd;fill:#006AFF;}
</style>
<path class="st0" d="M371.9,128c6.1,6.1,6.1,16,0,22.1l-100,100l99.9,99.9c6.2,6,6.4,15.9,0.4,22.1c-6,6.2-15.9,6.4-22.1,0.4  c-0.1-0.1-0.3-0.3-0.4-0.4l-99.8-99.9l-99.6,99.6c-6,6.1-15.9,6.1-22.1,0.1c0,0,0,0-0.1-0.1c-6.1-6.1-6.1-16,0-22.1l0,0l99.6-99.6  l-99.6-99.6c-6.3-5.9-6.7-15.8-0.8-22.1c5.9-6.3,15.8-6.7,22.1-0.8c0.3,0.3,0.5,0.5,0.8,0.8l99.6,99.6l99.9-99.9  C355.9,121.9,365.8,121.9,371.9,128C371.8,128,371.8,128,371.9,128L371.9,128z M249.9,468.8c147.2,0,218.8-71.6,218.8-218.7  c0-147.2-71.6-218.8-218.8-218.8S31.3,102.8,31.3,250.1C31.2,397.2,102.8,468.8,249.9,468.8L249.9,468.8z M249.9,0  C407.9,0,500,79.8,500,250.1C500,420.4,407.9,500,249.9,500S0,420.4,0,250.1C0,79.8,92,0,249.9,0L249.9,0z" style="fill: #ffffff;"/>
</svg>
