<?xml version="1.0" encoding="UTF-8"?>
<!-- Generator: Adobe Illustrator 24.3.0, SVG Export Plug-In . SVG Version: 6.00 Build 0)  -->
<svg xmlns="http://www.w3.org/2000/svg" xmlns:xlink="http://www.w3.org/1999/xlink" version="1.1" id="Capa_1" x="0px" y="0px" viewBox="0 0 500 500" style="enable-background:new 0 0 500 500;" xml:space="preserve">
<style type="text/css">
	.st0{fill-rule:evenodd;clip-rule:evenodd;fill:#006AFF;}
</style>
<desc>Created with sketchtool.</desc>
<g id="Page-1">
	<g id="Sábana-de-iconos-Copy" transform="translate(-1169.000000, -1336.000000)">
		<path id="ic_certificate_regular" class="st0" d="M1570.4,1805.1c2.4,0,4.8-2.4,4.8-4.3v-290.4h-57.5c-25.2,0-47-8.4-62.9-24.2    c-16.1-16-24.7-37.8-24.7-63v-56.3h-162.4c-1.8,0-4.7,2.8-4.8,4.3v143.4v0.1l1,202.6l-1,83.8c0,1.3,2.5,4.1,4.8,4.1L1570.4,1805.1    L1570.4,1805.1z M1562.5,1479.6l-102.3-101.2v44.8c0,16.7,5.4,30.8,15.5,40.8c10.3,10.2,24.8,15.5,42,15.5L1562.5,1479.6    L1562.5,1479.6z M1604.1,1482.3c0.8,1.8,1.2,3.9,1.2,6v312.5c0,19.1-16.1,35.1-35,35.1h-302.7c-18.6,0-35-16.4-35-35.1l1-83.7    l-1-202.5v-0.1v-143.4c0-18.4,16.7-35.1,35-35.1h184.3c5.7,0,11.3,2.3,15.3,6.4l131.5,130.1    C1601.5,1475.2,1603.1,1478.6,1604.1,1482.3z M1495.2,1731.2l16.3,6.1l-28.1-62.4c-11.1,9.5-25.5,15.1-43,17.1l29.3,65.1l6.1-16.9    C1478.8,1732.3,1487.6,1728.3,1495.2,1731.2z M1375,1757.2l29.6-65.8c-17.2-2.8-31.3-9.5-41.7-20.2l-29.8,66.3l16.3-6.2    c7.7-2.8,16.4,1.1,19.4,9L1375,1757.2z M1425.4,1542.5c-43.9,0-63.5,20.1-63.5,65c0,45,19.6,65,63.5,65s63.5-20.1,63.5-65    C1488.9,1562.6,1469.3,1542.5,1425.4,1542.5z M1498.2,1658.6l36.6,81.5c2.4,5.4,1.7,11.6-2,16.2c-3.6,4.6-9.5,6.5-15.1,5.4    l-24.8-9.3l-8.8,24.2c-3.2,6.3-8.3,9.5-13.9,9.5h-0.4c-5.8-0.1-10.9-3.6-13.4-9l-34.1-75.8l-34.1,75.8c-2.4,5.3-7.6,8.8-13.4,9    h-0.4c-5.6,0-10.7-3.1-13.4-8.3l-9.3-25.4l-23.6,8.9c-6.9,1.6-12.7-0.4-16.3-5c-3.7-4.6-4.4-10.8-2-16.2l38.8-86.2    c0.4-0.9,1.1-1.5,1.6-2.2c-5.4-12-8.4-26.5-8.4-44c0-58.3,30.8-85.6,83.6-85.6s83.7,27.3,83.7,85.6c0,20.6-4,37.2-11.4,50.2    C1497.8,1658.1,1498,1658.3,1498.2,1658.6z M1411.6,1599.3l-13.7,2.2l11.4,10.3c1.9,2,2.8,5.1,2.4,7.9l-2.5,15.9l11-7.3    c0.4-0.2,0.6-0.5,1-0.7l0.1-0.1l0,0c2.8-1.6,6.3-1.5,9,0.4l11.6,6.5l-2.8-14.7c-0.4-2.8,0.6-6,2.5-8l10.8-11.2l-14.5-1.4    c-2.8-0.4-5.3-2.3-6.5-4.8l-6.8-14.7l-5.1,14.5C1418.1,1597.2,1415,1599.3,1411.6,1599.3z M1394.2,1621l-7.9-8.2    c-4.4-4.6-5.9-11.2-3.9-17.4c2-6,6.9-10.4,13-11.3l10.6-1.6l4.8-10.4c5.4-11.8,23.8-11.8,29.3,0l4.9,10.5l10.6,1.6    c6,0.9,11,5.2,13,11.2c2,6.2,0.5,12.8-3.9,17.4l-7.9,8.3l1.9,11.7c1,6.5-1.6,12.9-6.7,16.6c-5.1,3.6-11.8,4-17,1l-9.3-5.3    l-9.4,5.3c-2.4,1.4-5.1,2.1-7.8,2.1c-3.3,0-6.5-1-9.3-3.1c-5.2-3.7-7.7-10.1-6.6-16.6L1394.2,1621z" style="fill: #ffffff;"/>
	</g>
</g>
</svg>
