<?xml version="1.0" encoding="UTF-8"?>
<!-- Generator: Adobe Illustrator 24.3.0, SVG Export Plug-In . SVG Version: 6.00 Build 0)  -->
<svg xmlns="http://www.w3.org/2000/svg" xmlns:xlink="http://www.w3.org/1999/xlink" version="1.1" id="Capa_1" x="0px" y="0px" viewBox="0 0 500 500" style="enable-background:new 0 0 500 500;" xml:space="preserve">
<style type="text/css">
	.st0{fill-rule:evenodd;clip-rule:evenodd;fill:#006AFF;}
</style>
<desc>Created with sketchtool.</desc>
<g id="Page-1">
	<g id="Sábana-de-iconos-Copy" transform="translate(-1781.000000, -568.000000)">
		<path id="ic_connections_masa" class="st0" d="M2184,819.6c-23.5,0-44.8,8.7-61.5,22.7l-38.7-33.9c11.2-15.5,18-34.4,18-54.9    c0-2.4-0.6-4.7-0.7-7l60.9-18c10.9,17.9,30.6,30,53.1,30c34.5,0,62.4-28,62.4-62.4c0-34.4-28-62.4-62.4-62.4    c-34.4,0-62.5,28-62.5,62.4c0,0.6,0.1,1,0.1,1.6l-59.4,17.5c-14.8-32.8-47.7-55.9-86-55.9c-26.2,0-49.8,10.7-66.9,27.9l-37.8-32.4    c4.6-8.3,7.5-17.8,7.5-28.1c0-32.3-26.3-58.5-58.6-58.5s-58.5,26.2-58.5,58.5c0,32.3,26.2,58.5,58.5,58.5    c10.3,0,19.8-2.8,28.2-7.5l42.3,36.2c-5.7,12.2-9.1,25.5-9.1,39.7c0,20.1,6.5,38.7,17.3,54.1l-34.4,33.7    c-12.2-9.9-27.4-16.1-44.2-16.1c-38.8,0-70.4,31.6-70.4,70.4s31.6,70.4,70.4,70.4s70.4-31.6,70.4-70.4c0-10.2-2.3-20-6.3-28.8    l37.3-36.5c15.4,10.9,34,17.4,54.3,17.4c19.8,0,38.2-6.2,53.5-16.7l40.5,35.5c-8.8,14.6-14.1,31.4-14.1,49.7    c0,12.6,2.6,24.5,7,35.5l-42.2,19.4c-10.7-12.4-26.4-20.5-44.2-20.5c-32.3,0-58.6,26.2-58.6,58.5c0,32.2,26.3,58.5,58.6,58.5    c32.3,0,58.5-26.2,58.5-58.5c0-3-0.4-5.8-0.9-8.7l45.8-21c17.8,20.4,43.6,33.6,72.7,33.6c53.4,0,96.8-43.4,96.8-96.7    C2280.8,863.1,2237.4,819.6,2184,819.6" style="fill: #ffffff;"/>
	</g>
</g>
</svg>
