<?xml version="1.0" encoding="UTF-8"?>
<!-- Generator: Adobe Illustrator 24.3.0, SVG Export Plug-In . SVG Version: 6.00 Build 0)  -->
<svg xmlns="http://www.w3.org/2000/svg" xmlns:xlink="http://www.w3.org/1999/xlink" version="1.1" id="Capa_1" x="0px" y="0px" viewBox="0 0 500 500" style="enable-background:new 0 0 500 500;" xml:space="preserve">
<style type="text/css">
	.st0{fill-rule:evenodd;clip-rule:evenodd;fill:#006AFF;}
</style>
<desc>Created with sketchtool.</desc>
<g id="Page-1">
	<g id="Sábana-de-iconos-Copy" transform="translate(-833.000000, -2116.000000)">
		<path id="ic_cup_regular" class="st0" d="M1229.2,2317.3c-2.6,0.1-5.5,0-7.9-0.1c-0.7,0-1.8-0.1-2.7-0.1    c13.5-36.9,18.2-83.6,18.7-137.5c0-1,0-6,0-12.2c23.6,2,63.8,14.2,63.8,74.4C1301.1,2309,1250.9,2317,1229.2,2317.3     M1205.3,2179.3c-1.4,143.6-32.2,193.7-121.6,195.6c-0.3-0.1-4.1,0.1-5.1,0.1c-94,0-126-50.6-126.7-200.4v-27.1h253.3    C1205.4,2160.6,1205.4,2177.3,1205.3,2179.3 M1159.5,2584.5h-153.1c4.7-41.6,29.4-61.2,76.5-61.2    C1130.1,2523.3,1154.8,2542.9,1159.5,2584.5 M936.7,2317.3c-21.6-0.3-71.9-8.3-71.9-75.4c0-53.4,31.7-69.1,55.3-73.4v6.1    c0.3,56.2,5,104.5,18.9,142.6C938.3,2317.3,937.5,2317.3,936.7,2317.3 M1237.3,2135.9v-4.1c0-8.8-7.2-15.8-15.9-15.8H936.1    c-8.8,0-15.9,7.1-15.9,15.8v4.9c-44.6,5.8-87.3,35.5-87.3,105.3c0,77.8,53.4,106.3,103.3,107c1.1,0,2.2,0,3.3,0c2,0,3.9,0,5.6-0.1    c2.3,0,5.6-0.2,9.1-0.6c22.1,34.7,57.4,55.2,112.8,57.9v86.7c-60.1,5.6-93.4,43-93.4,107.5c0,8.8,7.2,15.8,16,15.8h186.7    c8.8,0,15.9-7.1,15.9-15.8c0-64.5-33.2-101.8-93.4-107.5v-87c51.6-4.3,84.5-24.8,105.3-58.6c0,0,0,0,3.4,0.6l0,0    c5.5,0.7,10.1,0.9,13,1c1.8,0.1,3.7,0.1,5.8,0.1c1.1,0,2.2,0,3.3,0c50-0.7,103.3-29.3,103.3-107    C1333.1,2167.8,1284.9,2138.8,1237.3,2135.9" style="fill: #ffffff;"/>
	</g>
</g>
</svg>
