<?xml version="1.0" encoding="UTF-8"?>
<!-- Generator: Adobe Illustrator 24.3.0, SVG Export Plug-In . SVG Version: 6.00 Build 0)  -->
<svg xmlns="http://www.w3.org/2000/svg" xmlns:xlink="http://www.w3.org/1999/xlink" version="1.1" id="Capa_1" x="0px" y="0px" viewBox="0 0 500 500" style="enable-background:new 0 0 500 500;" xml:space="preserve">
<style type="text/css">
	.st0{fill-rule:evenodd;clip-rule:evenodd;fill:#006AFF;}
</style>
<desc>Created with sketchtool.</desc>
<g id="Page-1">
	<g id="Sábana-de-iconos-Copy" transform="translate(-959.000000, -1522.000000)">
		<path id="ic_harddisk_regular" class="st0" d="M1422.3,1990.4c2.8,0,5.1-2.3,5.1-5.2v-119l-0.2-1.4c-0.2-2.6-2.3-4.8-5-4.8H995.5    c-2.8,0-5.1,2.3-5.1,5.2v120c0,2.8,2.3,5.2,5.1,5.2L1422.3,1990.4L1422.3,1990.4z M1031.2,1558.8l-35.9,269.8    c0.1,0,0.2-0.1,0.4-0.1h426.7c0.1,0,0.3,0.1,0.4,0.1l-33.6-266.5c-0.8-4.3-4.1-8-7.5-8l-345.2-0.4    C1033.5,1553.6,1031.2,1555.9,1031.2,1558.8z M1458.9,1863.8c0.1,0.6,0.1,1,0.1,1.6v120c0,20.3-16.4,36.8-36.7,36.8H995.6    c-20.2,0-36.7-16.5-36.7-36.8v-120c0-0.8,0.2-1.6,0.3-2.3c0-0.5-0.1-0.9-0.1-1.4l40.7-304.9c-0.1-18.1,16.4-34.7,36.6-34.7    l345.2,0.4c19,0,34.9,14.3,38.7,34.8l37.9,300.4c0.2,0.9,0.2,1.8,0.4,2.7l0.4,3.1C1458.9,1863.5,1458.9,1863.6,1458.9,1863.8z     M1209,1673.1c-22.7,0-22.7,9.5-22.7,13.5s0,13.4,22.7,13.4s22.7-9.4,22.7-13.4C1231.7,1682.6,1231.7,1673.1,1209,1673.1z     M1209,1721.1c-39.4,0-43.7-24.1-43.7-34.5s4.3-34.6,43.7-34.6c39.5,0,43.8,24.2,43.8,34.6C1252.7,1697,1248.4,1721.1,1209,1721.1    z M1362.7,1946.4c12.8,0,17.9-5,17.9-17.9c0-12.9-5.1-17.9-17.9-17.9s-17.9,5.1-17.9,17.9    C1344.9,1941.4,1349.9,1946.4,1362.7,1946.4z M1362.7,1889.6c24.3,0,38.8,14.6,38.8,38.9c0,24.4-14.5,39-38.8,39    c-24.3,0-38.8-14.6-38.8-39C1323.8,1904.1,1338.4,1889.6,1362.7,1889.6z M1061.6,1592.2c-12,0-19-4.4-19-13.7    c0-9.4,7-13.7,19-13.7c12,0,19,4.4,19,13.7C1080.6,1587.9,1073.7,1592.2,1061.6,1592.2z M1346.7,1592.2c-12,0-19-4.4-19-13.7    c0-9.4,7-13.7,19-13.7c12,0,19,4.4,19,13.7C1365.7,1587.9,1358.6,1592.2,1346.7,1592.2z M1387.4,1816.8c-12,0-19-4.4-19-13.7    c0-9.4,7-13.7,19-13.7c12,0,19,4.3,19,13.7C1406.4,1812.4,1399.4,1816.8,1387.4,1816.8z M1036.7,1777.6c-3.4,3.1-5.3,6.1-5.1,8.3    c0.2,2.3,3,5.5,7.4,8.4c7.5,4.9,19,8.6,30.4-1.8c25.5-23.3,55.1-59.8,53.4-69.2c-0.3-0.1-0.6-0.1-1-0.1    C1109.2,1723.3,1057,1759.1,1036.7,1777.6z M1094.3,1686.6c0,8.8,1.4,16.9,3.4,24.2c14.9-6.8,28.7-9.7,37.3-4.1    c5.1,3.3,8.3,8.6,8.8,14.9c0.6,8.3-3.9,18.9-10.8,29.7l0.5,0.2c18.7,9,44.2,13.5,75.5,13.5c114.7,0,114.7-59.1,114.7-78.5    c0-19.4,0-78.6-114.7-78.6C1094.3,1608.1,1094.3,1667.2,1094.3,1686.6z M1027.6,1812c-13-8.5-16.4-17.9-16.9-24.3    c-0.5-6.3,1.1-15.7,11.9-25.6c0.4-0.4,22-19.2,46.9-35.4c0-0.1-0.1-0.1-0.1-0.1c-4.3-12-6.6-25.4-6.6-39.9    c0-41.2,19-110.2,146.1-110.2c127.3,0,146.3,69,146.3,110.2c0,41.1-19,110.1-146.3,110.1c-36.1,0-66.1-5.5-89.1-16.6l-3.8-1.8    c-0.9-0.4-1.4-1.1-2.1-1.7c-14.5,16.9-29.2,30.4-30.4,31.4c-8.8,8.1-19.1,12.2-29.8,12.2C1045.1,1820.3,1036.2,1817.5,1027.6,1812    z" style="fill: #ffffff;"/>
	</g>
</g>
</svg>
