<?xml version="1.0" encoding="UTF-8"?>
<!-- Generator: Adobe Illustrator 24.3.0, SVG Export Plug-In . SVG Version: 6.00 Build 0)  -->
<svg xmlns="http://www.w3.org/2000/svg" xmlns:xlink="http://www.w3.org/1999/xlink" version="1.1" id="Capa_1" x="0px" y="0px" viewBox="0 0 500 500" style="enable-background:new 0 0 500 500;" xml:space="preserve">
<style type="text/css">
	.st0{fill-rule:evenodd;clip-rule:evenodd;fill:#006AFF;}
</style>
<desc>Created with sketchtool.</desc>
<g id="Page-1">
	<g id="Sábana-de-iconos-Copy" transform="translate(-1169.000000, -1294.000000)">
		<path id="ic_doccheck_regular" class="st0" d="M1638.4,1759v-290.7h-58.7c-25.7,0-47.9-8.4-64.2-24.2c-16.3-15.9-25-37.7-25-63    v-56.3h-165.7c-1.8,0-4.9,2.8-4.9,4.3v100.3c25.7,2.9,42.6,13.9,56.3,23.3c16.1,10.7,27.7,18.4,50.2,14.7    c4.5-0.6,9.2,0.4,12.7,3.5c3.3,2.8,5.5,7,5.5,11.5c0,1.8,0,24.8-0.9,52.9h135c8.3,0,15.3,7,15.3,15.4c0,8.6-7,15.4-15.3,15.4    h-135.9c-0.6,15.2-1.6,30.3-3.1,43.3h139.4c8.5,0,15.3,6.8,15.3,15.4c0,8.4-6.8,15.4-15.3,15.4H1433    c-6.5,14.9-18.9,29.5-33.2,42.4h179.1c8.5,0,15.3,6.8,15.3,15.4c0,8.4-6.8,15.4-15.3,15.4h-220.5c-15.7,10-30.2,17.6-38.5,21.9    v24.2c0,1.4,2.4,4.3,4.9,4.3h308.5C1636,1763.3,1638.4,1760.8,1638.4,1759z M1206.2,1620.2c5.1,29.5,61.7,67.4,100.4,86.8    c38.7-19.4,95.6-57.3,100.7-86.8c2.4-14.7,4.1-37.8,5.1-60.8c0.8-22.9,1.2-45.9,1.4-60.6c-24.7-0.6-40.3-11-54.6-20.5    c-15.1-10.2-28.3-19.1-52.6-19.1c-24.3,0-37.3,8.8-52.6,19.1c-14.3,9.4-30.4,20.1-54.4,20.7    C1199.8,1528.6,1201.1,1590.5,1206.2,1620.2z M1521,1336.2v44.8c0,16.8,5.5,30.9,15.9,41c10.4,10.2,25.3,15.6,42.8,15.6h45.9    L1521,1336.2z M1662.2,1430.6c4.3,3.8,6.8,9.6,6.8,15.7V1759c0,18.9-16.3,35-35.6,35h-308.5c-18.9,0-35.4-16.4-35.4-35v-26.2    c-29.5-15.6-104.7-59.2-113.3-107.3c-7.3-42.2-7.2-139-7-143.1c0-4.7,2.1-9.2,5.9-12.1c3.6-2.8,8.3-3.8,13-2.6    c21.6,3.3,33.2-4.3,49.2-14.9c13-8.8,28.7-19.2,52.1-22.7v-100.9c0-18.4,16.9-35,35.4-35h187.9c5.7,0,11.2,2.2,15.5,6.1    L1662.2,1430.6z M1361.9,1530.3c6-6,15.7-6,21.6,0c6,6,6,15.7,0,21.7l-82.8,83.2c-3,3-6.9,4.5-10.8,4.5s-7.8-1.5-10.8-4.5    l-37.2-37.4c-6-6-6-15.7,0-21.7c6-6,15.7-6,21.6,0l26.4,26.5L1361.9,1530.3z" style="fill: #ffffff;"/>
	</g>
</g>
</svg>
