<?xml version="1.0" encoding="UTF-8"?>
<!-- Generator: Adobe Illustrator 24.3.0, SVG Export Plug-In . SVG Version: 6.00 Build 0)  -->
<svg xmlns="http://www.w3.org/2000/svg" xmlns:xlink="http://www.w3.org/1999/xlink" version="1.1" id="Capa_1" x="0px" y="0px" viewBox="0 0 500 500" style="enable-background:new 0 0 500 500;" xml:space="preserve">
<style type="text/css">
	.st0{fill-rule:evenodd;clip-rule:evenodd;fill:#006AFF;}
	.st1{fill:#006AFF;}
</style>
<desc>Created with sketchtool.</desc>
<g id="Page-1">
	<g id="Sábana-de-iconos-Copy" transform="translate(-1212.000000, -1210.000000)">
		<path id="ic_docPDF_regular" class="st0" d="M1676.2,1679.1c2.5,0,4.9-2.4,4.9-4.3v-290.4h-58.7c-25.8,0-48-8.4-64.4-24.2    c-16.5-15.9-25.3-37.8-25.3-63v-56.3h-166c-1.8,0-4.8,2.8-4.9,4.3v132.1h161.6c33.9,0,61.5,27.7,61.5,61.6v104    c0,33.9-27.6,61.6-61.5,61.6h-160.8l-0.9,70.6c0,1.3,2.6,4.1,4.9,4.1L1676.2,1679.1L1676.2,1679.1z M1242.8,1542.9    c0,16.9,13.7,30.7,30.7,30.7h250.1c16.9,0,30.7-13.8,30.7-30.7v-104c0-16.9-13.7-30.7-30.7-30.7h-250.1    c-16.9,0-30.7,13.8-30.7,30.7V1542.9z M1668.2,1353.6l-104.5-101.2v44.8c0,16.7,5.5,30.8,15.8,40.8c10.5,10.2,25.3,15.5,43,15.5    L1668.2,1353.6L1668.2,1353.6z M1710.8,1356.3c0.8,1.8,1.2,3.9,1.2,6v312.5c0,19.1-16.4,35.1-35.8,35.1h-309.4    c-19.1,0-35.8-16.4-35.8-35.1l0.9-70.4h-58.4c-33.9,0-61.5-27.7-61.5-61.6v-104c0-33.9,27.6-61.6,61.5-61.6h57.6v-132.2    c0-18.4,17.1-35.1,35.8-35.1h188.3c5.8,0,11.3,2.2,15.5,6.2l134.6,130.3C1708,1349.1,1709.7,1352.6,1710.8,1356.3z" style="fill: #ffffff;"/>
	</g>
</g>
<g>
	<path class="st1" d="M67.6,235.4h32.3c14.7,0,24,2.1,30.1,7.7c5.1,4.7,7.5,12,7.5,22c0,10-2.3,17.6-7,22.8   c-5.5,6.2-14,9.1-26.4,9.1H88.9v32.4H67.6V235.4z M99.6,280.9c6.9,0,9.7-1,12.5-3.6c2.5-2.5,3.7-6.5,3.7-12c0-5.1-1.1-8.8-3.6-11.2   c-2.6-2.3-6.6-3.3-13.2-3.3H89v30L99.6,280.9L99.6,280.9z" style="fill: #ffffff;"/>
	<path class="st1" d="M152.8,235.4h29c17.9,0,29.7,2.8,37.6,10.6c7.5,7.4,11.5,19.1,11.5,36.1c0,17.1-3.7,28.9-11.5,36.9   c-7,7.2-17.9,10.6-34.6,10.6h-31.9L152.8,235.4L152.8,235.4z M183.3,313.9c9.6,0,16.5-2.9,20.2-8.4c3.7-5.5,5-11.8,5-23.4   c0-13.5-2.1-19.8-6.6-24.8c-4.3-4.6-10.6-6.2-21.1-6.2h-6.6v62.7H183.3z" style="fill: #ffffff;"/>
	<path class="st1" d="M247.2,235.4h62l-1.6,15.5h-38.9v22.8h30.8v16.1h-30.8v39.6h-21.5V235.4z" style="fill: #ffffff;"/>
</g>
</svg>
