<?xml version="1.0" encoding="UTF-8"?>
<!-- Generator: Adobe Illustrator 24.3.0, SVG Export Plug-In . SVG Version: 6.00 Build 0)  -->
<svg xmlns="http://www.w3.org/2000/svg" xmlns:xlink="http://www.w3.org/1999/xlink" version="1.1" id="Capa_1" x="0px" y="0px" viewBox="0 0 500 500" style="enable-background:new 0 0 500 500;" xml:space="preserve">
<style type="text/css">
	.st0{fill-rule:evenodd;clip-rule:evenodd;fill:#006AFF;}
	.st1{fill:#006AFF;}
</style>
<desc>Created with sketchtool.</desc>
<g id="Page-1">
	<g id="Sábana-de-iconos-Copy" transform="translate(-1169.000000, -1252.000000)">
		<path id="ic_docZIP_regular" class="st0" d="M1633.1,1721c2.5,0,4.9-2.4,4.9-4.3v-290.3h-58.7c-25.7,0-48-8.4-64.4-24.2    c-16.5-15.9-25.2-37.8-25.2-63v-56.3h-165.9c-1.8,0-4.8,2.8-4.9,4.3v132.1h161.6c33.9,0,61.4,27.7,61.4,61.6v104    c0,33.9-27.6,61.6-61.4,61.6h-160.7l-0.9,70.6c0,1.3,2.6,4.1,4.9,4.1L1633.1,1721L1633.1,1721z M1199.9,1584.8    c0,16.9,13.7,30.7,30.7,30.7h250c16.9,0,30.7-13.8,30.7-30.7v-104c0-16.9-13.7-30.7-30.7-30.7h-250c-16.9,0-30.7,13.8-30.7,30.7    V1584.8z M1625.2,1395.6l-104.5-101.1v44.8c0,16.7,5.5,30.8,15.8,40.8c10.5,10.2,25.3,15.5,43,15.5L1625.2,1395.6L1625.2,1395.6z     M1662.2,1388.5c4.3,4.3,6.7,9.9,6.7,15.8v312.4c0,19.1-16.4,35.1-35.8,35.1h-309.3c-19.1,0-35.8-16.4-35.8-35.1l0.9-70.4h-58.4    c-33.9,0-61.4-27.7-61.4-61.6v-104c0-33.9,27.6-61.6,61.4-61.6h57.5v-132.1c0-18.4,17.1-35.1,35.8-35.1h188.3    c5.8,0,11.3,2.2,15.5,6.2L1662.2,1388.5z" style="fill: #ffffff;"/>
	</g>
</g>
<g>
	<path class="st1" d="M84.6,316.5l45.7-65.6H85.9v-15.8h70.7v13.2l-44.9,65h45.2v15.8H84.6V316.5z" style="fill: #ffffff;"/>
	<path class="st1" d="M172.4,235.1h21.5v94h-21.5V235.1z" style="fill: #ffffff;"/>
	<path class="st1" d="M214.4,235.1h32.3c14.7,0,24,2.1,30.1,7.7c5.1,4.7,7.5,11.9,7.5,22c0,10-2.3,17.6-7,22.8   c-5.5,6.2-14,9.1-26.4,9.1h-15.1v32.4h-21.5v-94H214.4z M246.5,280.6c6.9,0,9.7-1,12.5-3.6c2.5-2.5,3.7-6.5,3.7-11.9   c0-5-1.1-8.8-3.6-11.2c-2.6-2.3-6.6-3.3-13.2-3.3h-10v30L246.5,280.6L246.5,280.6z" style="fill: #ffffff;"/>
</g>
</svg>
