<?xml version="1.0" encoding="UTF-8"?>
<!-- Generator: Adobe Illustrator 24.3.0, SVG Export Plug-In . SVG Version: 6.00 Build 0)  -->
<svg xmlns="http://www.w3.org/2000/svg" xmlns:xlink="http://www.w3.org/1999/xlink" version="1.1" id="Capa_1" x="0px" y="0px" viewBox="0 0 500 500" style="enable-background:new 0 0 500 500;" xml:space="preserve">
<style type="text/css">
	.st0{fill-rule:evenodd;clip-rule:evenodd;fill:#006AFF;}
	.st1{fill:#006AFF;}
</style>
<desc>Created with sketchtool.</desc>
<g id="Page-1">
	<g id="Sábana-de-iconos-Copy" transform="translate(-1781.000000, -1210.000000)">
		<path id="ic_docPDF_masa" class="st0" d="M1811.8,1542.9c0,16.9,13.7,30.7,30.7,30.7h250.1c16.9,0,30.7-13.8,30.7-30.7v-104    c0-16.9-13.7-30.7-30.7-30.7h-250.1c-16.9,0-30.7,13.8-30.7,30.7L1811.8,1542.9L1811.8,1542.9z M2237.2,1353.6l-104.5-101.2v44.8    c0,16.7,5.5,30.8,15.8,40.8c10.5,10.2,25.3,15.5,43,15.5L2237.2,1353.6L2237.2,1353.6z M2279.8,1356.3c0.8,1.8,1.2,3.9,1.2,6    v312.5c0,19.1-16.4,35.1-35.8,35.1h-309.4c-19.1,0-35.8-16.4-35.8-35.1l0.9-70.4h-58.4c-33.9,0-61.5-27.7-61.5-61.6v-104    c0-33.9,27.6-61.6,61.5-61.6h57.6v-132.2c0-18.4,17.1-35.1,35.8-35.1h188.3c5.8,0,11.3,2.2,15.5,6.2l134.6,130.3    C2277,1349.1,2278.7,1352.6,2279.8,1356.3z" style="fill: #ffffff;"/>
	</g>
</g>
<g>
	<path class="st1" d="M65.5,235.4h32.3c14.7,0,24,2.1,30.1,7.7c5.1,4.7,7.5,12,7.5,22c0,10-2.3,17.6-7,22.8   c-5.5,6.2-14,9.1-26.4,9.1H86.8v32.4H65.5V235.4z M97.5,280.9c6.9,0,9.7-1,12.5-3.6c2.5-2.5,3.7-6.5,3.7-12c0-5.1-1.1-8.8-3.6-11.2   c-2.6-2.3-6.6-3.3-13.2-3.3h-10v30L97.5,280.9L97.5,280.9z" style="fill: #ffffff;"/>
	<path class="st1" d="M150.7,235.4h29c17.9,0,29.7,2.8,37.6,10.6c7.5,7.4,11.5,19.1,11.5,36.1c0,17.1-3.7,28.9-11.5,36.9   c-7,7.2-17.9,10.6-34.6,10.6h-31.9L150.7,235.4L150.7,235.4z M181.2,313.9c9.6,0,16.5-2.9,20.2-8.4s5-11.8,5-23.4   c0-13.5-2.1-19.8-6.6-24.8c-4.3-4.6-10.6-6.2-21.1-6.2h-6.6v62.7H181.2z" style="fill: #ffffff;"/>
	<path class="st1" d="M245.1,235.4h62l-1.6,15.5h-38.9v22.8h30.8v16.1h-30.8v39.6h-21.5V235.4z" style="fill: #ffffff;"/>
</g>
</svg>
