<?xml version="1.0" encoding="UTF-8"?>
<!-- Generator: Adobe Illustrator 24.3.0, SVG Export Plug-In . SVG Version: 6.00 Build 0)  -->
<svg xmlns="http://www.w3.org/2000/svg" xmlns:xlink="http://www.w3.org/1999/xlink" version="1.1" id="Capa_1" x="0px" y="0px" viewBox="0 0 500 500" style="enable-background:new 0 0 500 500;" xml:space="preserve">
<style type="text/css">
	.st0{fill-rule:evenodd;clip-rule:evenodd;fill:#006AFF;}
</style>
<path class="st0" d="M402.4,469.3c2.5,0,4.9-2.5,4.9-4.3V174.4h-57.9c-25.3,0-47.2-8.3-63.3-24.2c-16.2-16-24.8-37.8-24.8-63V30.7  H97.7c-1.8,0-4.8,2.8-5,4.3v429.9c0,1.5,2.6,4.3,5,4.3H402.4L402.4,469.3z M394.7,143.6L291.4,42.1v45c0,16.7,5.4,30.9,15.7,40.9  c10.3,10.2,25,15.5,42.3,15.5C349.4,143.6,394.7,143.6,394.7,143.6z M430.9,136.5c4.2,4.1,6.6,9.9,6.6,15.8v312.6  c0,19-16.1,35.1-35.1,35.1H97.7c-18.7,0-35.1-16.4-35.1-35.1V35.1C62.6,16.7,79.3,0,97.7,0h185.5c5.8,0,11.2,2.2,15.3,6.3  L430.9,136.5z M141.8,287.5c-5.9-6-5.9-15.7,0-21.7l19.8-20.1l-19.8-20.1c-5.9-6-5.9-15.7,0-21.7c5.8-5.9,15.2-6,21.1-0.3  c0.1,0.1,0.1,0.1,0.3,0.3l19.8,20.1l19.8-20.1c5.8-5.9,15.2-6,21.1-0.2c0.1,0.1,0.1,0.1,0.2,0.2c5.9,6,5.9,15.7,0,21.7l-19.8,20.1  l19.8,20.1c5.9,6,5.9,15.7,0,21.7c-5.8,5.9-15.2,6-21.1,0.2c-0.1-0.1-0.1-0.1-0.2-0.2l-19.8-20.1l-19.8,20.1  c-5.8,5.9-15.3,6-21.2,0.1C141.9,287.6,141.9,287.5,141.8,287.5z M361.6,203.8c5.9,6,5.9,15.7,0,21.7l-19.8,20.1l19.8,20.1  c5.9,6,5.9,15.7,0,21.7c-5.8,5.9-15.2,6-21.1,0.2c-0.1-0.1-0.1-0.1-0.2-0.2l-19.8-20.1l-19.8,20.1c-5.8,5.9-15.3,6-21.2,0.1  c-0.1-0.1-0.1-0.1-0.1-0.1c-5.9-6-5.9-15.7,0-21.7l19.8-20.1l-19.8-20.1c-5.9-6-5.9-15.7,0-21.7c5.8-5.9,15.2-6,21.1-0.3  c0.1,0.1,0.1,0.1,0.3,0.3l19.8,20.1l19.8-20.1c5.8-5.9,15.2-6,21.1-0.3C361.4,203.5,361.6,203.7,361.6,203.8z M309.8,327.3  c21.8,0.5,43.8,15,43.8,46.3c0.1,8.4-6.7,15.3-15.1,15.4l0,0c-8.3,0-15.1-6.9-15.1-15.4c0-4.6,0-15.2-14.3-15.6h-2.2  c-13.9,0.1-13.9,10.8-13.9,15.4c0,32-22,46.3-43.7,46.5H246c-21.8-0.6-43.8-15-43.8-46.2c0-4.6,0-15.2-14.3-15.6h-2.2  c-13.9,0.1-13.9,10.8-13.9,15.4c0.1,8.4-6.7,15.3-15.1,15.4c-8.3,0-15.1-6.9-15.1-15.4c0-31.7,21.9-46,43.8-46.1h3.3  c21.8,0.5,43.8,15,43.8,46.3c0,4.6,0,15.2,14.3,15.6h2.2c13.9-0.1,13.9-10.8,13.9-15.4c0-32,22-46.3,43.7-46.5L309.8,327.3  L309.8,327.3z" style="fill: #ffffff;"/>
</svg>
