<?xml version="1.0" encoding="UTF-8"?>
<!-- Generator: Adobe Illustrator 24.3.0, SVG Export Plug-In . SVG Version: 6.00 Build 0)  -->
<svg xmlns="http://www.w3.org/2000/svg" xmlns:xlink="http://www.w3.org/1999/xlink" version="1.1" id="Artwork" x="0px" y="0px" viewBox="0 0 500 500" style="enable-background:new 0 0 500 500;" xml:space="preserve">
<style type="text/css">
	.st0{fill:#006AFF;}
</style>
<path class="st0" d="M305.2,0h0.7c11.6,0.2,22.9,5.7,33.7,16.5l148.7,148.1l0.5,0.5c9.4,10.2,13,20.9,10.6,31.8  c-2.1,9.9-8.9,17.8-15.4,24.3l-0.4,0.4L332.9,363.3l76,76l0.2,0.2c9.3,9.7,12.1,26.3,6.4,39.5c-5.2,12.2-16.7,19.5-30.6,19.5H28.7  c-8.3,0.6-15.7-2.1-21.1-7.5s-8.1-13-7.4-21.1L0.3,112c-0.3-12.2,6.9-23.4,18.1-28.1c13.5-6,30.9-3.3,41.4,6.4l0.5,0.4l70.1,70.1  L271.5,16.2l0.2-0.2C282.1,5.4,293.4,0,305.2,0z M386,461.3L386,461.3z" style="fill: #ffffff;"/>
</svg>
