<?xml version="1.0" encoding="UTF-8"?>
<!-- Generator: Adobe Illustrator 24.3.0, SVG Export Plug-In . SVG Version: 6.00 Build 0)  -->
<svg xmlns="http://www.w3.org/2000/svg" xmlns:xlink="http://www.w3.org/1999/xlink" version="1.1" id="Capa_1" x="0px" y="0px" viewBox="0 0 500 500" style="enable-background:new 0 0 500 500;" xml:space="preserve">
<style type="text/css">
	.st0{fill-rule:evenodd;clip-rule:evenodd;fill:#006AFF;}
</style>
<path class="st0" d="M498,256c2.1-5.2,2.1-11,0-16.1c-0.5-1.3-1.4-2.2-2.1-3.3c-0.7-1.1-1.2-2.3-2.2-3.4L279.7,6.7  c-8.1-8.6-21.7-9-30.3-0.9c-8.6,8.1-9,21.7-0.9,30.3l179.9,190.3H21.1C9.3,226.9,0,236.9,0.5,248.8c0.4,11.2,9.4,20.2,20.6,20.6  h407.3L244.6,463.7c-8.1,8.6-7.8,22.2,0.8,30.3c8.6,8.1,22.2,7.8,30.3-0.8l218-230.6c1-1,1.4-2.3,2.2-3.4  C496.6,258.2,497.5,257.2,498,256" style="fill: #ffffff;"/>
</svg>
