<?xml version="1.0" encoding="UTF-8"?>
<!-- Generator: Adobe Illustrator 24.3.0, SVG Export Plug-In . SVG Version: 6.00 Build 0)  -->
<svg xmlns="http://www.w3.org/2000/svg" xmlns:xlink="http://www.w3.org/1999/xlink" version="1.1" id="Artwork" x="0px" y="0px" viewBox="0 0 500 500" style="enable-background:new 0 0 500 500;" xml:space="preserve">
<style type="text/css">
	.st0{fill:#006AFF;}
</style>
<path class="st0" d="M194.7,498.2h-0.7c-11.6-0.2-22.9-5.8-33.6-16.5L11.8,333.7l-0.5-0.5C1.9,323-1.6,312.4,0.7,301.5  c2.1-9.9,8.9-17.8,15.3-24.2l0.4-0.4l150.7-141.7L91.1,59.2L90.9,59c-9.3-9.7-12-26.3-6.4-39.4c5.2-12.2,16.7-19.5,30.6-19.5H471  c8.2-0.6,15.7,2.1,21.1,7.5c5.4,5.4,8.1,12.9,7.4,21.1l-0.2,357.6c0.3,12.2-6.8,23.3-18.1,28.1c-13.4,6-30.9,3.3-41.4-6.3l-0.5-0.4  l-69.9-70L228.4,482l-0.2,0.2C217.7,492.8,206.4,498.2,194.7,498.2z M113.9,37.3L113.9,37.3z" style="fill: #ffffff;"/>
</svg>
