<?xml version="1.0" encoding="UTF-8"?>
<!-- Generator: Adobe Illustrator 24.3.0, SVG Export Plug-In . SVG Version: 6.00 Build 0)  -->
<svg xmlns="http://www.w3.org/2000/svg" xmlns:xlink="http://www.w3.org/1999/xlink" version="1.1" id="Capa_1" x="0px" y="0px" viewBox="0 0 500 500" style="enable-background:new 0 0 500 500;" xml:space="preserve">
<style type="text/css">
	.st0{fill-rule:evenodd;clip-rule:evenodd;fill:#006AFF;}
</style>
<path class="st0" d="M396.9,470c5.9,0,10.2-3.1,10.7-4.3l-0.2-396.2c-0.5,0-5.1-3.3-10.5-3.3h-67.2c0.1,0.8,0.2,1.4,0.2,2.1l0.2,4.9  L330,76c-1.4,38.3-39.2,43.8-79.9,43.8s-78.5-5.4-80-44.5l-0.1-2l0.1-3.2l0.2-2.6c0-0.4,0.1-0.9,0.1-1.4h-67.3  c-5.5,0-10.1,3.3-10.9,4.7l0.3,395.9c0.4,0.1,4.7,3.3,10.6,3.3C103.2,470,396.9,470,396.9,470z M250,30c-42.5,0-48.9,21.3-49.7,39.8  l-0.1,3.6c0.3,6.8,0.6,16.6,49.9,16.6s49.7-9.8,49.8-15.6v-3c-0.1-5.4-0.9-10.7-2.5-15.9l0,0C295.4,49.1,289.4,30,250,30z   M396.9,36.4c21.7,0,40.7,15.5,40.7,33.2v397.3c0,18-18.6,33.2-40.7,33.2H103.2c-22.1,0-40.7-15.2-40.7-33.2V69.4  c0-17.6,19-33.2,40.6-33.2h75.1C190.2,13.1,214.9,0,250,0c42.8,0,62.7,18,71.9,36.4H396.9z M232.4,79.5c-7.8,0-14-6.2-14.1-13.9l0,0  c0-7.7,6.3-13.9,14.1-13.9h35.4c7.8,0,14,6.3,14,13.9c0,7.7-6.3,13.9-14,13.9H232.4z M378.3,293.3c7.8,0,14,6.3,14,13.9  s-6.3,13.9-14,13.9h-49.7c-6,0-11.2-3.7-13.2-9.3l-8-22.8l-6.5,22.1c-1.8,6-7.3,10-13.4,10h-14.9l-23.1,51.4  c-3.2,7.1-11.5,10.2-18.6,7c-4.1-1.8-7.1-5.5-8-10l-22.2-110.1l-15.7,50.5c-1.8,5.8-7.3,9.8-13.4,9.8h-49.7c-7.8,0-14-6.2-14.1-13.9  l0,0c0-7.7,6.3-13.9,14.1-13.9h39.3l29-93.2c1.8-6.2,7.8-10.2,14.2-9.8c6.4,0.3,11.7,4.9,13,11.2l24.4,121.2l8.9-19.7  c2.3-5.1,7.3-8.3,12.8-8.3h13.4l15.9-53.7c1.8-5.8,7-9.9,13.2-10c6-0.1,11.5,3.6,13.6,9.3l19.2,54.4  C338.6,293.3,378.3,293.3,378.3,293.3z" style="fill: #ffffff;"/>
</svg>
