<?xml version="1.0" encoding="UTF-8"?>
<!-- Generator: Adobe Illustrator 24.3.0, SVG Export Plug-In . SVG Version: 6.00 Build 0)  -->
<svg xmlns="http://www.w3.org/2000/svg" xmlns:xlink="http://www.w3.org/1999/xlink" version="1.1" id="Capa_1" x="0px" y="0px" viewBox="0 0 500 500" style="enable-background:new 0 0 500 500;" xml:space="preserve">
<style type="text/css">
	.st0{fill:#006AFF;}
</style>
<g id="Artwork">
	<path class="st0" d="M14.3,499.5c-7.8,0-14.2-6.3-14.2-14.2c0-3.8,1.5-7.4,4.2-10.1l117.5-117.5c5.5-5.5,14.6-5.5,20.1,0   c5.5,5.5,5.5,14.6,0,20.1L24.3,495.3C21.7,498,18.1,499.5,14.3,499.5z" style="fill: #ffffff;"/>
	<path class="st0" d="M142.1,499.6c-7.8,0-14.2-6.3-14.2-14.2c0-3.7,1.4-7.3,4.1-9.9l58.2-59.6c5.3-5.8,14.3-6.2,20.1-0.9   c5.8,5.3,6.2,14.3,0.9,20.1c-0.2,0.2-0.4,0.4-0.6,0.6l-58.2,59.7C149.6,498.1,145.9,499.6,142.1,499.6z" style="fill: #ffffff;"/>
	<path class="st0" d="M15.6,373.1c-7.8,0-14.2-6.3-14.2-14.2c0-3.7,1.4-7.3,4.1-9.9l58.2-59.6c5.5-5.6,14.5-5.7,20.1-0.2   c5.6,5.5,5.7,14.5,0.2,20.1l-58.2,59.6C23.1,371.6,19.4,373.1,15.6,373.1z" style="fill: #ffffff;"/>
	<path class="st0" d="M464.4,0H271.9c-19.6,0-35.5,15.9-35.5,35.5c0,9.5,3.8,18.5,10.4,25.2l17.7,17.7L106.6,236.2   c-13.9,13.9-13.9,36.4,0,50.2L213.1,393c13.9,13.9,36.4,13.9,50.2,0l157.8-157.9l18,18.1c6.6,6.7,15.6,10.4,25.1,10.4   c19.6,0,35.5-15.9,35.6-35.5V35.5C499.8,15.9,484,0,464.4,0L464.4,0z" style="fill: #ffffff;"/>
</g>
</svg>
