<?xml version="1.0" encoding="UTF-8"?>
<!-- Generator: Adobe Illustrator 24.3.0, SVG Export Plug-In . SVG Version: 6.00 Build 0)  -->
<svg xmlns="http://www.w3.org/2000/svg" xmlns:xlink="http://www.w3.org/1999/xlink" version="1.1" id="Capa_1" x="0px" y="0px" viewBox="0 0 500 500" style="enable-background:new 0 0 500 500;" xml:space="preserve">
<style type="text/css">
	.st0{fill-rule:evenodd;clip-rule:evenodd;fill:#006AFF;}
</style>
<path class="st0" d="M451.3,163.7L451.3,163.7l-21.1,20.9l-116-114.7l21.5-21.3c51.7-51.1,95.7-19.3,112.3-3.2c2,2,4.1,4.2,5.9,6  C470.2,68.3,502.5,112.9,451.3,163.7L451.3,163.7z M28.3,443.8l27.2,27l-32.3,5.9L28.3,443.8L28.3,443.8z M101,382.1l-51.1-50.6  L299.4,84.5l51.1,50.6C350.6,135.2,101,382.1,101,382.1z M80.6,466.1l-48.4-47.9l10-64.9l102.2,101.1L80.6,466.1z M166.4,446.8  l-50.6-50l249.6-246.9l50,49.4L166.4,446.8L166.4,446.8z M469.2,37c-2.1-2.1-4.2-4.3-6.4-6.4C429.1-2.2,374-18.6,320.9,34  L27.4,324.2c-1.4,1.4-2.3,3.3-2.6,5.2c-0.1,0.2-0.3,0.4-0.3,0.6L0.2,488c-0.5,3.3,0.6,6.7,3.1,9c2.5,2.3,5.9,3.3,9.2,2.8l152.9-28  c0.4,0,0.7,0.2,1.1,0.2c2.8,0,5.5-1.1,7.5-3.1c0.1-0.1,0.2-0.4,0.4-0.6c0.1-0.1,0.3-0.1,0.4-0.1l291.7-289.9  C534.1,111.2,480.6,48.8,469.2,37L469.2,37z" style="fill: #ffffff;"/>
</svg>
