<?xml version="1.0" encoding="UTF-8"?>
<!-- Generator: Adobe Illustrator 24.3.0, SVG Export Plug-In . SVG Version: 6.00 Build 0)  -->
<svg xmlns="http://www.w3.org/2000/svg" xmlns:xlink="http://www.w3.org/1999/xlink" version="1.1" id="Capa_1" x="0px" y="0px" viewBox="0 0 500 500" style="enable-background:new 0 0 500 500;" xml:space="preserve">
<style type="text/css">
	.st0{fill-rule:evenodd;clip-rule:evenodd;fill:#006AFF;}
</style>
<desc>Created with sketchtool.</desc>
<g id="Page-1">
	<g id="Sábana-de-iconos-Copy" transform="translate(-1612.000000, -2074.000000)">
		<path id="ic_pencil_masa" class="st0" d="M1780,2509.6l-42.3-41.8l237.2-234.6l41.6,41.2L1780,2509.6z M1687,2532.9l-34.9-34.1    l9.8-62.8l85.9,85L1687,2532.9z M1910.3,2169.3l42.8,42.4L1716,2446.3l-42.8-42.3L1910.3,2169.3z M2080.2,2111.9    c-1.9-2-4.3-4.3-6.3-6.3c-34.8-33.9-91.6-50.9-146.3,3.3l-287.3,284.2c-1.4,1.4-2.3,2.9-3.1,4.6c-0.2,0.6-0.4,1.1-0.6,1.7    c-0.2,0.7-0.6,1.4-0.7,2.1l-23.9,154.8c-0.8,4.9,0.9,9.8,4.5,13.3c2.9,2.8,6.8,4.3,10.7,4.3c0.9,0,1.8-0.1,2.8-0.3l149-27.3    c0.3,0,0.6,0.1,0.9,0.1c2.8,0,5.4-1,7.8-2.4c0.2-0.1,0.4-0.2,0.6-0.4c0.9-0.6,1.8-0.9,2.6-1.7c0.1-0.1,0.1-0.3,0.3-0.4    c0.1-0.1,0.4-0.2,0.5-0.4l285.5-283.8C2131.3,2204,2114.2,2147.3,2080.2,2111.9z" style="fill: #ffffff;"/>
	</g>
</g>
</svg>
