<?xml version="1.0" encoding="UTF-8"?>
<!-- Generator: Adobe Illustrator 24.3.0, SVG Export Plug-In . SVG Version: 6.00 Build 0)  -->
<svg xmlns="http://www.w3.org/2000/svg" xmlns:xlink="http://www.w3.org/1999/xlink" version="1.1" id="Capa_1" x="0px" y="0px" viewBox="0 0 500 500" style="enable-background:new 0 0 500 500;" xml:space="preserve">
<style type="text/css">
	.st0{fill-rule:evenodd;clip-rule:evenodd;fill:#006AFF;}
</style>
<desc>Created with sketchtool.</desc>
<g id="Page-1">
	<g id="Sábana-de-iconos-Copy" transform="translate(-1781.000000, -652.000000)">
		<path id="ic_link_masa" class="st0" d="M2035.3,1018.7c7.7-8.3,20.7-8.7,29-1c8.3,7.8,8.7,20.8,1,29.1c-7,7.5-14.3,15.3-20.4,21.3    c-49.9,50.2-95.4,83.9-140.8,83.9c-27.5,0-54.8-12.3-83.1-40.7c-34.7-34.9-46.7-70.7-36.7-109.5c8.5-33,33.1-68.6,79.7-115.5    c80.1-80.5,148.7-118.7,223.8-43.2c18.7,18.8,30.5,37.4,36.2,56.8c3.2,11-3.1,22.3-13.9,25.5c-10.8,3.3-22.3-3.1-25.5-13.9    c-3.7-12.7-12.2-25.5-25.9-39.3c-40.7-41-77.5-45.5-165.8,43.2c-88.3,88.7-83.7,125.8-43,166.7s77.6,45.5,165.9-43.2    C2021.7,1033.2,2028.7,1025.8,2035.3,1018.7z M2240.9,692.3c34.6,34.9,46.7,70.7,36.7,109.5c-8.5,33-33.1,68.6-79.7,115.5    c-46.5,46.8-82,71.5-114.8,80c-8.7,2.3-17.4,3.4-25.8,3.4c-29,0-56.3-13.3-83.2-40.3c-17-17.1-28.2-33.9-34.5-51.5    c-3.8-10.7,1.8-22.5,12.4-26.3c10.6-3.8,22.4,1.8,26.2,12.5c4.1,11.7,12.2,23.5,24.8,36.2c30.9,31.1,53.5,30.3,69.7,26.1    c25-6.5,55.6-28.5,96.1-69.3c40.5-40.8,62.5-71.5,68.9-96.7c4.2-16.3,5.1-38.9-26-70.1c-30.9-31.2-53.5-30.4-69.7-26.1    c-25,6.5-55.6,28.5-96.2,69.3c-7.7,7.8-14.8,15.2-21.4,22.5c-7.6,8.5-20.6,9-29,1.4c-8.4-7.6-9-20.7-1.4-29.1    c7-7.7,14.6-15.6,22.8-23.9c46.6-46.8,82-71.5,114.9-80C2170.6,645.3,2206.2,657.4,2240.9,692.3z" style="fill: #ffffff;"/>
	</g>
</g>
</svg>
