<?xml version="1.0" encoding="UTF-8"?>
<!-- Generator: Adobe Illustrator 24.3.0, SVG Export Plug-In . SVG Version: 6.00 Build 0)  -->
<svg xmlns="http://www.w3.org/2000/svg" xmlns:xlink="http://www.w3.org/1999/xlink" version="1.1" id="Capa_1" x="0px" y="0px" viewBox="0 0 500 500" style="enable-background:new 0 0 500 500;" xml:space="preserve">
<style type="text/css">
	.st0{fill-rule:evenodd;clip-rule:evenodd;fill:#006AFF;}
</style>
<desc>Created with sketchtool.</desc>
<g id="Page-1">
	<g id="Sábana-de-iconos-Copy" transform="translate(-1360.000000, -1702.000000)">
		<path id="ic_querylist_masa" class="st0" d="M1568.2,1787c-30.3-8.9-48.7-20.9-53.6-34.9c0-0.2,0-0.2-0.3-0.4    c4.9-13.9,23.3-26.2,53.4-35.1c31.9-9.3,74.1-14.6,118.9-14.6c44.8,0,86.9,5.3,118.6,14.6c31.7,9.4,49.7,21.6,53.6,36.2    c0,0-0.2,0.2-0.2,0.5c-5.3,13.4-23.5,25-53.1,33.7c-31.9,9.3-73.9,14.6-118.6,14.6C1642.1,1801.6,1600.1,1796.3,1568.2,1787z     M1645.7,1973.6c0-14.7-3.6-28.3-9.7-40.8c-3.4-7.1-7.9-13.6-12.9-19.6c-1-1.2-1.9-2.4-3-3.5c-2.2-2.4-4.5-4.6-7-6.8    c-1.8-1.6-3.7-3.1-5.7-4.6c-2.2-1.6-4.3-3.4-6.6-4.8c-4.3-2.7-8.7-5.1-13.3-7c-1.7-0.8-3.6-1.3-5.3-2c-3.8-1.4-7.6-2.6-11.6-3.6    c-1.7-0.4-3.5-0.8-5.2-1.1c-5.7-1-11.5-1.7-17.5-1.7c-6.3,0-12.2,0.7-18.1,1.8c-5.8,1.1-11.4,2.8-16.8,4.8    c-36.6,13.8-62.8,48.4-62.8,89s26.2,75.2,62.8,89c7.5,2.8,15.4,4.6,23.7,5.5l0,0c3.8,0.4,7.4,1.1,11.2,1.1    c14.9,0,28.7-3.5,41.3-9.2c6.7-3.1,12.9-7,18.7-11.5c1.8-1.4,3.8-2.9,5.5-4.5c2.1-1.8,4.2-3.8,6.1-5.9c2.1-2.2,4-4.6,5.9-7    c1.4-1.8,2.8-3.4,4.1-5.2c2.9-4.3,5.3-8.8,7.5-13.5c0.8-1.6,1.4-3.3,2-5.1c1.4-3.8,2.7-7.6,3.6-11.5c0.4-1.7,0.9-3.3,1.2-5.1    C1644.9,1985.1,1645.7,1979.4,1645.7,1973.6z M1686.8,1935.3c-5.5,0-10.7-0.2-16.1-0.4c2.4,7.3,4.1,14.9,5.1,22.8    c3.7,0.1,7.3,0.4,11,0.4c47.1,0,91.6-5.5,125.4-15.5c19.1-5.5,35.4-13.2,47.7-22.6v101.2c-5.8,10.7-23.1,24.8-54.6,34.2    c-31.7,9.3-73.9,14.6-118.6,14.6c-18.3,0-36-0.9-52.8-2.6c-8.7,7.6-18.4,14-28.8,19.2c25.2,3.9,52.8,6.3,81.6,6.3    c47.1,0,91.6-5.5,125.4-15.5c19.1-5.5,35.4-13.4,47.7-22.8v90c0,17.8-18.4,32.4-54.8,43c-31.9,9.3-74.1,14.6-118.6,14.6    c-44.5,0-86.7-5.2-118.9-14.6c-36.4-10.7-54.8-25.3-54.8-43v-49.7c-14.9-4.1-28.7-10.5-40.8-19.2l-85.4,83.5    c-3.1,3-7,4.5-11.1,4.5c-4,0-8-1.5-11.1-4.5c-6.1-6-6.1-15.7,0-21.6l84.5-82.7c-18.9-22-30.3-50.2-30.3-81.1    c0-57.7,39.9-106.4,94.2-121.4v-66.1c11.7,9.1,27.7,16.9,48.5,22.8c34,10,78.5,15.5,125.4,15.5c46.8,0,91.4-5.5,125.4-15.5    c20.3-5.9,36.1-13.2,47.7-22.3v100.2c-5.8,10.7-23.1,24.8-54.6,34.2C1773.8,1930.2,1731.6,1935.3,1686.8,1935.3z" style="fill: #ffffff;"/>
	</g>
</g>
</svg>
