<?xml version="1.0" encoding="UTF-8"?>
<!-- Generator: Adobe Illustrator 24.3.0, SVG Export Plug-In . SVG Version: 6.00 Build 0)  -->
<svg xmlns="http://www.w3.org/2000/svg" xmlns:xlink="http://www.w3.org/1999/xlink" version="1.1" id="Capa_1" x="0px" y="0px" viewBox="0 0 500 500" style="enable-background:new 0 0 500 500;" xml:space="preserve">
<style type="text/css">
	.st0{fill-rule:evenodd;clip-rule:evenodd;fill:#006AFF;}
</style>
<desc>Created with sketchtool.</desc>
<g id="Page-1">
	<g id="Sábana-de-iconos-Copy" transform="translate(-1654.000000, -238.000000)">
		<path id="ic_members_maa" class="st0" d="M1903.3,290.6c30,0,53.5,8.3,69.7,24.6c16.9,17,25.5,42.1,25.5,74.6s-8.6,57.6-25.5,74.5    c-16.2,16.2-39.7,24.5-69.7,24.5c-30,0-53.5-8.3-69.7-24.5c-16.8-16.9-25.3-42-25.3-74.5c0-32.6,8.5-57.7,25.3-74.6    C1849.9,298.8,1873.3,290.6,1903.3,290.6z M1756.7,414c15.8,0,28.2,4.3,36.7,12.9c8.9,8.9,13.4,22.1,13.4,39.3    c0,17.1-4.5,30.3-13.4,39.2c-8.5,8.5-20.9,12.9-36.7,12.9s-28.1-4.3-36.6-12.9c-8.9-8.9-13.4-22.1-13.4-39.2s4.5-30.4,13.3-39.3    C1728.6,418.4,1740.9,414,1756.7,414z M2050,414.7c15.6,0,27.8,4.3,36.3,12.8c8.8,8.8,13.2,21.9,13.2,38.8    c0,16.9-4.4,30-13.2,38.8c-8.4,8.5-20.6,12.7-36.3,12.7c-15.7,0-27.9-4.3-36.4-12.7c-8.8-8.8-13.2-21.8-13.2-38.8    c0-16.9,4.5-30,13.2-38.8C2022.1,419,2034.4,414.7,2050,414.7z M1961.3,522.9c35.2,0,64.2,11.8,83.7,34.2    c17.9,20.6,27.4,49.1,27.4,82.5v34.9c0,6.6-4.8,12-10.8,12h-316.2c-6,0-10.8-5.3-10.8-12v-34.9c0-33.4,9.4-61.9,27.2-82.5    c19.4-22.4,48.3-34.2,83.6-34.2L1961.3,522.9L1961.3,522.9z M1746.4,541.7c-0.1,0.1-0.4,0.3-0.5,0.5    c-21.4,24.7-32.7,58.4-32.7,97.4v19h-37.4c-12,0-21.8-10.2-21.8-22.8V618c0-21.5,6.6-40,19.2-53.6c13.7-14.8,33.3-22.6,56.8-22.6    H1746.4z M2134.8,563.9c12.6,13.7,19.2,32.2,19.2,53.6v17.9c0,12.6-9.8,22.8-21.8,22.8h-38.5v-18.6c0-39-11.4-72.6-32.9-97.4    c-0.3-0.3-0.6-0.6-0.9-0.9h18.1C2101.6,541.3,2121.2,549.1,2134.8,563.9z" style="fill: #ffffff;"/>
	</g>
</g>
</svg>
