<?xml version="1.0" encoding="UTF-8"?>
<!-- Generator: Adobe Illustrator 24.3.0, SVG Export Plug-In . SVG Version: 6.00 Build 0)  -->
<svg xmlns="http://www.w3.org/2000/svg" xmlns:xlink="http://www.w3.org/1999/xlink" version="1.1" id="Capa_1" x="0px" y="0px" viewBox="0 0 500 500" style="enable-background:new 0 0 500 500;" xml:space="preserve">
<style type="text/css">
	.st0{fill-rule:evenodd;clip-rule:evenodd;fill:#006AFF;}
</style>
<desc>Created with sketchtool.</desc>
<g id="Page-1">
	<g id="Sábana-de-iconos-Copy" transform="translate(-1781.000000, -1336.000000)">
		<path id="ic_notes_masa" class="st0" d="M2175.8,1479.7L2072.4,1378v45.2c0,16.6,5.4,30.9,15.7,41c10.2,10,25,15.6,42.3,15.6    L2175.8,1479.7L2175.8,1479.7z M2211.8,1472.6c4.2,4.1,6.6,9.8,6.6,15.7V1801c0,19.1-16.1,35-35.2,35h-304.8    c-18.7,0-35-16.4-35-35v-430c0-18.2,16.7-35,35-35h185.6c5.8,0,11.2,2.2,15.3,6.3L2211.8,1472.6z M2128.9,1623.1    c-3.8,3.7-46.1,42-113.1,102.4l-50.5,17.6l16.5-49.9c9.9-8.8,107.9-96.9,114.3-103.4c6-6.1,12.5-7.4,17.1-7    c5.8,0.2,11.5,2.8,15.7,7.2c4.4,4.3,7,10.9,7,17C2136,1613,2133.5,1618.4,2128.9,1623.1z M2150.2,1568c-18.5-18.9-51.7-24-75.5,0    c-0.6,0.6-2.2,2-4.6,4.5h-151.5c-8.3,0-15.1,7-15.1,15.4c0,8.6,6.8,15.4,15.1,15.4h117.7c-9.2,8.2-19.4,17.4-30.2,27h-87.6    c-8.3,0-15.1,6.8-15.1,15.4c0,8.4,6.8,15.4,15.1,15.4h53.4c-3.6,3.3-7.3,6.5-10.9,9.8c-3.4,3.1-6,7.2-7.7,11.7l-1.8,5.3h-33    c-8.3,0-15.1,6.8-15.1,15.4c0,8.4,6.8,15.4,15.1,15.4h23l-7.3,22.3c-0.6,1.4-0.8,3.1-1,4.5h-14.7c-8.3,0-15.1,7-15.1,15.4    c0,8.4,6.8,15.4,15.1,15.4h37.2c0.4,0,0.8,0,1.2-0.2c0.6,0.2,1.4,0.2,2.2,0.2c2.6,0,5.4-0.4,8.3-1.2l57.4-19.4    c3.4-1,6.5-2.8,9.2-5.3l1.8-1.6c49.1-44.3,108.7-98.1,114.1-103.4c10.5-10.4,16.1-23.5,16.1-38.1    C2166.2,1592.8,2160.3,1578.2,2150.2,1568z" style="fill: #ffffff;"/>
	</g>
</g>
</svg>
