<?xml version="1.0" encoding="UTF-8"?>
<!-- Generator: Adobe Illustrator 24.3.0, SVG Export Plug-In . SVG Version: 6.00 Build 0)  -->
<svg xmlns="http://www.w3.org/2000/svg" xmlns:xlink="http://www.w3.org/1999/xlink" version="1.1" id="Capa_1" x="0px" y="0px" viewBox="0 0 500 500" style="enable-background:new 0 0 500 500;" xml:space="preserve">
<style type="text/css">
	.st0{fill-rule:evenodd;clip-rule:evenodd;fill:#006AFF;}
</style>
<desc>Created with sketchtool.</desc>
<g id="Page-1">
	<g id="Sábana-de-iconos-Copy" transform="translate(-1654.000000, -2242.000000)">
		<path id="ic_podium_masa" class="st0" d="M2126.8,2598.7c15.8,0,27.2,8.5,27.2,20.3v102.2c0,12-11.2,20.8-27.3,20.8h-97.8v-31.7    v-80.3v-31.2H2126.8L2126.8,2598.7z M1654,2561.1c0-14.1,14.2-22.8,27.2-22.8h97.8v31.2v140.8v31.7h-97.8    c-15,0-27.2-10.7-27.2-23.3V2561.1z M1970.5,2461.2c14.5,0,27.2,12.2,27.2,26.1v111.4v31.2v80.4v31.7h-4.1h-23.2h-133h-23.2h-4    v-31.7v-140.8v-31.2v-51c0-13.9,12.7-26,27.2-26h133V2461.2z M1876,2312.5l-30.4,4.6l22.6,25c3.5,3.6,5.3,9.2,4.4,14.2l-5.3,32.6    l28.7-14.2c2.3-1.3,5-1.9,7.6-1.9c2.8,0,5.8,0.8,8.2,2.3l27.5,15.1l0.1,0.1c0,0,0.1,0,0.1-0.1l-5-33.9c-0.9-5.1,1.1-11,4.9-14.6    l22.3-22.6l-31.6-6.8c-5.1-0.7-9.7-4.2-12-8.8l-14.2-30l-14.9,29.7C1886.7,2308.4,1881.5,2312.1,1876,2312.5z M1840.6,2358.7    l-17.4-17.6c-8.6-8.8-11.5-21.5-7.5-33.2c3.8-11.5,13.5-19.7,25.3-21.5l23.4-3.6l10.6-22.4c5.3-11.2,16.3-18.3,28.6-18.3    c12.2,0,23.2,7,28.5,18.3l10.7,22.5l23.4,3.5c11.8,1.8,21.6,10.1,25.4,21.6c3.8,11.8,0.9,24.5-7.7,33.2l-17.4,17.7l4.1,25.2    c1.5,9.2-0.9,18.3-6.4,25.3c-1.9,2.5-4.1,4.6-6.8,6.5c-9.7,6.9-22.8,7.6-33.2,1.9l-15.4-8.5l-5.3-2.9l-5.3,2.9l-15.4,8.5    c-4.7,2.6-9.9,3.8-15,3.8c-6.3,0-12.7-1.9-18.1-5.8c-2.6-1.8-4.9-4.1-6.8-6.5c-5.4-7-7.9-16.1-6.3-25.3L1840.6,2358.7z" style="fill: #ffffff;"/>
	</g>
</g>
</svg>
