<?xml version="1.0" encoding="UTF-8"?>
<!-- Generator: Adobe Illustrator 24.3.0, SVG Export Plug-In . SVG Version: 6.00 Build 0)  -->
<svg xmlns="http://www.w3.org/2000/svg" xmlns:xlink="http://www.w3.org/1999/xlink" version="1.1" id="Capa_1" x="0px" y="0px" viewBox="0 0 500 500" style="enable-background:new 0 0 500 500;" xml:space="preserve">
<style type="text/css">
	.st0{fill-rule:evenodd;clip-rule:evenodd;fill:#006AFF;}
</style>
<path class="st0" d="M260.5,469.3c49-0.9,209-19.3,209-218.6c0-199.3-160.7-218.6-210-219.8c-6.7-0.1-14.6-0.3-21.8-0.2  C189.1,31.1,30.6,48,30.6,249.3c0,201.5,159.9,219.4,208.9,220.1C246.5,469.6,254.2,469.4,260.5,469.3z M260.2,0.3  C300.2,1.2,500,17.8,500,250.6c0,233.1-199.1,248.5-239.1,249.2c-4.4,0.1-9.6,0.1-14.7,0.1c-2.4,0-4.8,0-7.2-0.1  C199.1,499.5,0,484.7,0,249.3S197.8,0.4,237.5,0.1C244.9-0.1,253.2,0.1,260.2,0.3z M238.8,365.6c13.4,0,22.2,8.8,22.2,21.5  c0,14.2-8.6,22.6-21.4,22.6c-13.7,0-22.2-8.5-22.2-21v-1.6C217.5,374.4,226.2,365.6,238.8,365.6z M306,110.1  c17.7,13.1,26,31.1,26,56.7c0,31.3-12.9,49.9-42.6,85c-34,39.3-35.4,40.9-35.4,77.6c0,5.6-4.6,10.2-10.2,10.2h-11.2  c-4.8,0-9-3.4-10-8.3c-1-5.3-1.5-10.7-1.4-16.1c0-27.5,9.7-43.8,31.4-69.9l4.1-5c35.7-42.3,42.5-54.1,42.5-74  c0-14.2-4.1-23.4-13.6-31c-5.5-4.3-15.1-9.4-41.3-9.4c-14.3,0-26.9,1.6-42.3,5.5c-5.5,1.4-11-1.9-12.4-7.3c-0.1-0.2-0.1-0.4-0.1-0.6  l-1.6-8.7c-0.9-4.6,1.4-9.1,5.6-11.1c9.6-4.6,33.2-9.2,55.9-9.2C273.1,94.4,292.2,99.7,306,110.1z" style="fill: #ffffff;"/>
</svg>
