<?xml version="1.0" encoding="UTF-8"?>
<!-- Generator: Adobe Illustrator 24.3.0, SVG Export Plug-In . SVG Version: 6.00 Build 0)  -->
<svg xmlns="http://www.w3.org/2000/svg" xmlns:xlink="http://www.w3.org/1999/xlink" version="1.1" id="Capa_1" x="0px" y="0px" viewBox="0 0 500 500" style="enable-background:new 0 0 500 500;" xml:space="preserve">
<style type="text/css">
	.st0{fill-rule:evenodd;clip-rule:evenodd;fill:#006AFF;}
</style>
<path class="st0" d="M450.3,130l0.2-9.2c-2.6-0.6-5.3-0.7-8-0.6l-385.9-0.2c-2.4-0.1-4.8,0.4-7.1,1.1v9.2c1.6,0.4,4.2,0.7,7.8,0.6  h13.2c1.1,0,2.1-0.2,3.1-0.2l351.7,0.2c1.4-0.2,2.5,0.1,3.6,0.1h14.4C445.6,131.1,448.1,130.8,450.3,130L450.3,130z M249.1,475.9  c9-0.2,9-4.8,9-7.9c0-3,0-8-7.6-8.1H249c-6.7,0-7.3,3.8-7.3,7.9C241.7,471,241.7,475.8,249.1,475.9z M238.4,62.4l-55.8,29.9  l131.9,0.2L262.5,62c-3.7,1.4-7.5,2.1-11.5,2.1h-2.1C245.5,64,241.9,63.5,238.4,62.4L238.4,62.4z M248.9,24c-6.7,0.2-7.3,3.8-7.3,8  c0,4.1,0.6,8.1,7.5,8.1c9-0.2,9-4.8,9-7.9c0-3,0-8-7.6-8.1L248.9,24L248.9,24z M472,101.4c4.6,4.1,7,9.6,7.3,15.3l-0.2,17.5  c0,10-7.5,18.1-19.3,22c0.2,1.3,0.6,2.8,0.6,4.2l-0.2,212.9c0,16.4-15.1,29.9-33.8,29.9l-162-0.2v35.6c10.5,4.3,18.7,13.9,18.7,29.4  c0,21.6-16,31.6-31.9,31.9h-2.5c-15.7-0.2-31.7-10.2-31.7-32.2c0-15.7,8.2-25.1,18.8-29.4v-35.4h-161c-13.2,0.5-21.2-4.5-25.8-8.7  c-5.9-5.3-9.2-12.9-9.2-20.8v-213c0-1.3,0.2-2.6,0.4-3.8c-4.8-1.5-9-3.7-12.2-6.7c-4.4-3.9-7-9.6-7-15.5v-17.5  c0-14.2,15.1-24.5,35.7-24.5h67l94.6-50.6c-0.9-3.2-1.4-6.5-1.4-9.8c0-21.8,16-31.7,31.9-31.9v0.2h2.5c15.7,0.1,31.7,10.3,31.7,31.9  c0,3.3-0.4,6.3-1.1,8.9l88.4,51.4h72C454.9,92,465.4,95.3,472,101.4L472,101.4z M337,324.4H160.8l29.6-44.9l64.2,24  c4.2,1.4,9.2,0.1,12-3.1l46.4-56.5l1.1,7.3c0.8,5,5.3,8.7,10.3,8.7c0.6,0,1.1-0.2,1.7-0.2c5.6-0.9,9.5-6,8.8-11.7l-4.6-29.5  c-1-5-5.4-8.6-10.5-8.5H286c-5.6-0.1-10.3,4.3-10.5,10c0,5.7,4.8,10.1,10.5,10.1h11.2L255,281.7l-65-24.2c-4.6-1.8-9.9-0.2-12.6,3.9  l-30.4,46.2v-96.3c-0.1-5.7-4.8-10.2-10.5-10.1c0,0,0,0-0.1,0c-5.6-0.2-10.3,4.2-10.5,9.8c0,0.1,0,0.2,0,0.3v123.1  c0,5.5,4.6,10.2,10.5,10.2h200.4c5.7,0.1,10.4-4.5,10.5-10.2C347.4,328.9,342.8,324.3,337,324.4L337,324.4L337,324.4z" style="fill: #ffffff;"/>
</svg>
