<?xml version="1.0" encoding="UTF-8"?>
<!-- Generator: Adobe Illustrator 24.3.0, SVG Export Plug-In . SVG Version: 6.00 Build 0)  -->
<svg xmlns="http://www.w3.org/2000/svg" xmlns:xlink="http://www.w3.org/1999/xlink" version="1.1" id="Capa_1" x="0px" y="0px" viewBox="0 0 500 500" style="enable-background:new 0 0 500 500;" xml:space="preserve">
<style type="text/css">
	.st0{fill-rule:evenodd;clip-rule:evenodd;fill:#006AFF;}
</style>
<path class="st0" d="M450.3,130l0.2-9.2c-2.6-0.6-5.3-0.7-8-0.6l-385.9-0.2c-2.4-0.1-4.8,0.4-7.1,1.1v9.2c1.6,0.4,4.2,0.7,7.8,0.6  h13.2c1.1,0,2.1-0.2,3.1-0.2l351.7,0.2c1.4-0.2,2.5,0.1,3.6,0.1h14.3C445.6,131.1,448,130.8,450.3,130L450.3,130z M431.4,373.3  l0.2-212.9c-0.6-1.1-1.9-1.4-3.8-1.6l-355.3-0.2c-2.3,0.4-4.1,1.4-4.1,2v212.7c0.6,1.5,2.3,2.1,5.5,2.1l352.3,0.2  C429.5,375.5,431.2,373.8,431.4,373.3z M249.1,475.9c9-0.2,9-4.8,9-7.9c0-3,0-8-7.6-8.1H249c-6.7,0-7.3,3.8-7.3,7.9  C241.7,471,241.7,475.8,249.1,475.9z M238.4,62.4l-55.8,29.9l131.8,0.2L262.5,62c-3.7,1.4-7.5,2.1-11.5,2.1h-2.1  C245.5,64,241.9,63.5,238.4,62.4L238.4,62.4z M248.9,24c-6.7,0.2-7.3,3.8-7.3,8c0,4.1,0.6,8.1,7.5,8.1c9-0.2,9-4.8,9-7.9  c0-3,0-8-7.6-8.1L248.9,24L248.9,24z M471.9,101.4c4.6,4.1,7,9.6,7.3,15.3l-0.2,17.5c0,10-7.5,18.1-19.3,22c0.2,1.3,0.6,2.8,0.6,4.2  L460,373.3c0,16.4-15.1,29.9-33.8,29.9l-162-0.2v35.6c10.5,4.3,18.7,13.9,18.7,29.4c0,21.6-16,31.6-31.9,31.9h-2.5  c-15.7-0.2-31.7-10.2-31.7-32.2c0-15.7,8.2-25.1,18.8-29.4v-35.4H74.7c-13.2,0.5-21.2-4.5-25.8-8.7c-5.9-5.3-9.2-12.9-9.2-20.8v-213  c0-1.3,0.2-2.6,0.4-3.8c-4.8-1.5-9-3.7-12.2-6.7c-4.4-3.9-7-9.6-7-15.5v-17.5c0-14.2,15.1-24.5,35.7-24.5h67L218,41.8  c-0.9-3.2-1.4-6.5-1.4-9.8c0-21.8,16-31.7,31.9-31.9v0.2h2.5c15.7,0.1,31.7,10.3,31.7,31.9c0,3.3-0.4,6.3-1.1,8.9l88.4,51.4h72  C454.9,92,465.4,95.3,471.9,101.4z M337,324.4c5.8,0,10.5,4.4,10.5,10.2c-0.1,5.7-4.8,10.2-10.5,10.2H136.6  c-5.7,0.1-10.4-4.4-10.5-10.1v-0.1V211.4c0-5.8,4.6-10.1,10.5-10.1c5.8,0,10.5,4.4,10.5,10.1v96.2l30.4-46.2c2.8-4.1,8-5.8,12.6-3.9  l65,24.2l42.3-51.5H286c-5.7,0.1-10.4-4.4-10.5-10.1c0,0,0,0,0-0.1c0-5.5,4.8-10,10.5-10h34c5.2,0,9.5,3.6,10.5,8.5l4.6,29.5  c0.7,5.6-3.2,10.8-8.8,11.7c-0.6,0-1.1,0.2-1.7,0.2c-5.1,0-9.5-3.7-10.3-8.7l-1.1-7.3l-46.4,56.5c-3,3.3-7.8,4.6-12,3.2l-64.2-24  l-29.7,44.9H337z" style="fill: #ffffff;"/>
</svg>
