<?xml version="1.0" encoding="UTF-8"?>
<!-- Generator: Adobe Illustrator 24.3.0, SVG Export Plug-In . SVG Version: 6.00 Build 0)  -->
<svg xmlns="http://www.w3.org/2000/svg" xmlns:xlink="http://www.w3.org/1999/xlink" version="1.1" id="Capa_1" x="0px" y="0px" viewBox="0 0 500 500" style="enable-background:new 0 0 500 500;" xml:space="preserve">
<style type="text/css">
	.st0{fill-rule:evenodd;clip-rule:evenodd;fill:#006AFF;}
</style>
<path class="st0" d="M432.8,266.4H356c-8.5,0-15.4-6.8-15.4-15.4s6.8-15.4,15.4-15.4h76.8c8.5,0,15.4,6.8,15.4,15.4  S441.2,266.4,432.8,266.4z M389.3,390.9c-6,6-15.7,6-21.6,0.1l-0.1-0.1l-54.3-54.4c-6-6-6-15.7,0-21.7c6-6,15.7-6,21.7,0l0,0  l54.3,54.3C395.3,375.1,395.3,384.8,389.3,390.9L389.3,390.9z M266.4,144.1c0,8.5-6.8,15.4-15.4,15.4s-15.4-6.8-15.4-15.4V67.2  c0-8.5,6.8-15.4,15.4-15.4s15.4,6.8,15.4,15.4V144.1z M264.3,432.8c0,8.5-6.8,15.4-15.4,15.4c-8.5,0-15.4-6.8-15.4-15.4v-76.8  c0-8.5,6.8-15.4,15.4-15.4c8.5,0,15.4,6.8,15.4,15.4V432.8L264.3,432.8z M185.1,335l-54.3,54.4c-6,6-15.7,6-21.7,0  c-6-6-6-15.7,0-21.7l54.3-54.3c6.1-5.8,15.9-5.5,21.7,0.6C190.7,319.8,190.7,329.1,185.1,335z M51.9,248.9c0-8.5,6.9-15.4,15.4-15.4  h76.8c8.5,0,15.4,6.8,15.4,15.4c0,8.5-6.8,15.4-15.4,15.4H67.2C58.8,264.3,51.9,257.4,51.9,248.9L51.9,248.9z M314.9,165l54.3-54.3  c6-6,15.7-6,21.7,0c6,6,6,15.7,0,21.7l0,0l-54.4,54.3c-6,6-15.7,6-21.7,0C308.9,180.7,308.9,171,314.9,165L314.9,165L314.9,165z   M249.9,0C86.4,0,0,86.4,0,250.1C0,413.6,86.4,500,249.9,500C413.5,500,500,413.6,500,250.1C500,86.4,413.6,0,249.9,0z" style="fill: #ffffff;"/>
</svg>
