<?xml version="1.0" encoding="UTF-8"?>
<!-- Generator: Adobe Illustrator 24.3.0, SVG Export Plug-In . SVG Version: 6.00 Build 0)  -->
<svg xmlns="http://www.w3.org/2000/svg" xmlns:xlink="http://www.w3.org/1999/xlink" version="1.1" id="Capa_1" x="0px" y="0px" viewBox="0 0 500 500" style="enable-background:new 0 0 500 500;" xml:space="preserve">
<style type="text/css">
	.st0{fill:#006AFF;}
</style>
<g id="Artwork">
	<path class="st0" d="M417.1-0.3L417.1-0.3c-9.5,0.1-18.9,1.1-28.1,2.9c-21.2,3.9-37.6,11.6-48.6,22.6   c-11.1,11.1-18.8,27.8-22.7,49.3c-1.6,8.8-2.5,17.8-2.6,26.8c-0.1,0.5-0.4,1-0.6,1.5L102.8,314.4c-0.4,0.2-1,0.4-1.5,0.6   c-9.3,0.1-18.5,1.1-27.6,2.8c-21.3,3.9-37.6,11.6-48.6,22.6c-11.1,11.1-18.8,27.8-22.7,49.3c-1.7,9.1-2.6,18.3-2.6,27.5   c-0.1,5.3,1.3,10.4,3.9,14.9c4.4,7.3,12.3,11.8,20.8,11.8c4.9,0,12.3-1.5,19.3-8.6l17.5-17.5l18.1,2.6l2.6,18.1l-17.4,17.5   c-2.9,2.9-5.2,6.2-6.7,9.9c-5.1,12.4,0.7,26.5,13.1,31.8c3.7,1.6,7.7,2.4,11.8,2.3h0.1c9.4-0.1,18.9-1.1,28.1-2.8   c21.3-3.9,37.6-11.6,48.6-22.6c11.1-11.1,18.8-27.8,22.7-49.3c1.6-8.8,2.5-17.8,2.6-26.8c0.1-0.5,0.4-1,0.6-1.5L397,185.4   c0.4-0.2,1-0.4,1.5-0.6c9.3-0.1,18.5-1.1,27.6-2.8c21.2-3.9,37.6-11.6,48.6-22.6c11.1-11.1,18.8-27.8,22.7-49.3   c1.7-9.1,2.6-18.3,2.6-27.5c0.1-5.3-1.3-10.4-4-14.9c-4.4-7.3-12.3-11.8-20.8-11.8c-4.9,0-12.3,1.5-19.3,8.6L438.4,82l-18.1-2.6   l-2.6-18.1l17.5-17.5c2.9-2.9,5.2-6.2,6.7-9.9c5.1-12.4-0.7-26.5-13.1-31.8c-3.7-1.6-7.7-2.4-11.8-2.3L417.1-0.3z" style="fill: #ffffff;"/>
</g>
</svg>
