<?xml version="1.0" encoding="UTF-8"?>
<!-- Generator: Adobe Illustrator 24.3.0, SVG Export Plug-In . SVG Version: 6.00 Build 0)  -->
<svg xmlns="http://www.w3.org/2000/svg" xmlns:xlink="http://www.w3.org/1999/xlink" version="1.1" id="Capa_1" x="0px" y="0px" viewBox="0 0 500 500" style="enable-background:new 0 0 500 500;" xml:space="preserve">
<style type="text/css">
	.st0{fill:#006AFF;}
</style>
<g id="Artwork">
	<path class="st0" d="M412.2,28.4L412.2,28.4c5,0,6.2,2.9,2.7,6.5l-18,18c-3.5,3.5-5.9,10.5-5.2,15.5l3.7,25.9   c0.7,5,5.3,9.6,10.3,10.3l25.9,3.7c0.6,0.1,1.3,0.1,1.9,0.1c4.7,0,10.4-2.1,13.6-5.3l18-18c1.3-1.3,2.6-2.1,3.7-2.1   c1.6,0,2.8,1.6,2.8,4.7c0,0,0.1,40.9-18.4,59.5c-18.2,18.2-58.1,18.4-59.4,18.4h-0.1c-5,0-11.9,2.8-15.5,6.4L171.9,378.2   c-3.5,3.5-6.4,10.5-6.4,15.5c0,0,0.1,40.9-18.4,59.5c-18.2,18.2-58.1,18.4-59.4,18.4h-0.1c-5,0-6.2-2.9-2.7-6.5l18-18   c3.5-3.5,5.9-10.5,5.2-15.5l-3.7-25.9c-0.7-5-5.3-9.6-10.3-10.3l-25.9-3.7c-0.6-0.1-1.3-0.1-1.9-0.1c-4.7,0-10.4,2.1-13.6,5.3   l-18,18c-1.3,1.3-2.6,2.1-3.7,2.1c-1.6,0-2.8-1.6-2.8-4.7c0,0-0.1-40.9,18.4-59.5c18.2-18.2,58.1-18.4,59.4-18.4h0.1   c5,0,11.9-2.8,15.5-6.4l206.2-206.2c3.5-3.5,6.4-10.5,6.4-15.5c0,0-0.1-40.9,18.4-59.5C371,28.5,410.8,28.4,412.2,28.4 M412.2,0   L412.2,0c-9.7,0.1-19.2,1.1-28.6,2.8C361.6,7,344.5,15,332.8,26.8c-11.9,11.9-19.9,29.2-24.1,51.7c-1.5,8.3-2.4,16.7-2.6,25.2   L103.5,306.1c-8.7,0.3-17.4,1.2-26,2.8c-22.1,4.1-39.2,12.1-50.9,23.8C14.8,344.6,6.7,362,2.6,384.5c-1.7,9.2-2.6,18.6-2.7,28   c-0.1,6.4,1.6,12.6,4.9,18.2c5.5,9.2,15.5,14.8,26.3,14.8c8.7,0,17.1-3.7,23.8-10.4l14.5-14.5l8.8,1.3l1.3,8.8l-14.5,14.5   c-9.9,9.8-13,23.3-8,35.3c5,12,16.7,19.4,30.7,19.5h0.1c9.6-0.1,19.2-1.1,28.6-2.8c22.1-4.1,39.2-12.1,50.9-23.9   c11.9-11.9,19.9-29.2,24.1-51.7c1.5-8.3,2.4-16.7,2.6-25.2l202.5-202.5c8.7-0.3,17.4-1.2,26-2.8c22.1-4.1,39.2-12.1,50.9-23.8   c11.9-11.9,19.9-29.2,24-51.7c1.7-9.2,2.6-18.6,2.7-28c0.1-6.4-1.6-12.6-4.9-18.2c-5.5-9.2-15.5-14.8-26.3-14.8   c-8.7,0-17.1,3.7-23.8,10.4l-14.4,14.4l-8.8-1.3l-1.3-8.8L435,54.9c9.9-9.9,13-23.5,8-35.4C438,7.5,426.4,0.1,412.4,0H412.2z" style="fill: #ffffff;"/>
</g>
</svg>
