<?xml version="1.0" encoding="UTF-8"?>
<!-- Generator: Adobe Illustrator 24.3.0, SVG Export Plug-In . SVG Version: 6.00 Build 0)  -->
<svg xmlns="http://www.w3.org/2000/svg" xmlns:xlink="http://www.w3.org/1999/xlink" version="1.1" id="Capa_1" x="0px" y="0px" viewBox="0 0 500 500" style="enable-background:new 0 0 500 500;" xml:space="preserve">
<style type="text/css">
	.st0{fill-rule:evenodd;clip-rule:evenodd;fill:#006AFF;}
</style>
<path class="st0" d="M265.3,415.7c42.9-2.8,142-23.4,150.2-150.4h-11.6c-8.5-0.3-15-7.4-14.7-15.9c0.3-8,6.7-14.4,14.7-14.7h11.7  c-7-128.6-106.4-150.6-150.3-153.8v15.3c-0.4,8.5-7.6,14.9-16.1,14.4c-7.8-0.4-14.1-6.7-14.4-14.4V80.3  C195.1,81.5,87.6,97.9,81,234.8h15.1c8.5,0.3,15,7.4,14.7,15.9c-0.3,8-6.7,14.4-14.7,14.7H81.3C90.1,396.6,194.1,414.3,234.8,416  v-12.1c0.4-8.5,7.6-14.9,16.1-14.4c7.8,0.4,14.1,6.7,14.4,14.4V415.7z M485.3,234.7c8.5,0.3,15,7.4,14.7,15.9  c-0.3,8-6.7,14.4-14.7,14.7h-39.4c-8.7,156.7-137.8,178.3-180.6,181v39c-0.4,8.5-7.6,14.9-16.1,14.4c-7.8-0.4-14.1-6.7-14.4-14.4  v-38.8c-38.7-1.6-174.5-19.2-184-181.2H14.7c-8.5-0.3-15-7.4-14.7-15.9c0.3-8,6.7-14.4,14.7-14.7h35.8  c7-168.3,147.2-183.9,184.2-185v-35c0.4-8.5,7.6-14.9,16.1-14.4c7.8,0.4,14.1,6.7,14.4,14.4v35.6c43.9,3.1,173.4,26.1,180.8,184.5  L485.3,234.7L485.3,234.7z M227.1,172.7c-5.2,5-6.3,14.6-6.3,21.6c0,7.1,1.1,16.6,6.3,21.5c5.1,4.9,14.4,6,21.2,6  c6.9,0,16.1-1.1,21.3-6c4.2-4.1,6.3-11.3,6.3-21.5c0-10.3-2.1-17.6-6.4-21.6c-5.1-5-14.4-6-21.3-6S232.2,167.8,227.1,172.7z   M248.2,248.3c-17.1,0-30.4-4.5-39.5-13.3c-9.6-9.2-14.4-22.9-14.4-40.7s4.8-31.4,14.4-40.7c9.2-8.9,22.5-13.4,39.5-13.4  c17.1,0,30.4,4.5,39.7,13.4c9.6,9.2,14.5,23,14.5,40.7c0,17.8-4.8,31.4-14.5,40.7C278.6,243.8,265.3,248.3,248.2,248.3L248.2,248.3z   M178.9,329.6h138.8c-0.3-6.8-2.1-15.4-8.1-21.7c-7.5-7.8-19.6-9.5-28.4-9.5h-65.8c-8.8,0-20.8,1.6-28.4,9.5  C181,314.1,179.2,322.8,178.9,329.6L178.9,329.6z M281.1,272c20,0,36.5,6,47.6,17.6c10.2,10.6,15.6,25.2,15.6,42.4v18  c0,3.4-2.7,6.1-6.1,6.1H158.5c-3.4,0-6.1-2.8-6.1-6.1l0,0v-18c0-17.2,5.3-31.8,15.4-42.4c11.1-11.5,27.5-17.6,47.5-17.6L281.1,272  L281.1,272z" style="fill: #ffffff;"/>
</svg>
