<?xml version="1.0" encoding="UTF-8"?>
<!-- Generator: Adobe Illustrator 24.3.0, SVG Export Plug-In . SVG Version: 6.00 Build 0)  -->
<svg xmlns="http://www.w3.org/2000/svg" xmlns:xlink="http://www.w3.org/1999/xlink" version="1.1" id="Capa_1" x="0px" y="0px" viewBox="0 0 500 500" style="enable-background:new 0 0 500 500;" xml:space="preserve">
<style type="text/css">
	.st0{fill-rule:evenodd;clip-rule:evenodd;fill:#006AFF;}
</style>
<desc>Created with sketchtool.</desc>
<g id="Page-1">
	<g id="Sábana-de-iconos-Copy" transform="translate(-1486.000000, -1067.000000)">
		<path id="ic_theatre_masa" class="st0" d="M1711.2,1355.7c1.4-2.3,2.3-4.7,3-7c-20.1,13.2-55.9,30.4-107,28.7    c11.1,8.3,30.2,15,61.1,6.5C1689.7,1378,1704.1,1368.4,1711.2,1355.7z M1728,1315.7c3.7,0.9,6.7,3.8,7.8,7.4    c0.3,0.9,6,21.5-5.9,43c-10,17.9-28.7,30.9-55.8,38.5c-12.2,3.4-23.1,4.9-32.8,4.9c-50.9,0-67.4-40.1-67.6-40.6    c-1.4-3.6-0.8-7.5,1.5-10.5c2.3-3,6-4.6,9.8-4.1c87.6,11.5,132.3-35,132.8-35.5C1720.4,1315.9,1724.3,1314.9,1728,1315.7z     M1568.4,1300.6c3.3,0,7-0.2,10.5-0.6c11.7-1.3,22.7-5.3,22.7-5.3s7.8-4.1,0.9-9.9c0,0-7.3-8.4-19.4-8.4c-7,0-15.7,2.8-25.5,11.7    C1547,1297.4,1555.9,1300.6,1568.4,1300.6z M1608.9,1314.8c-1.4,0.5-13.8,5-27.6,6.5c-4.5,0.5-8.8,0.8-12.9,0.8    c-18.8,0-30.7-6.1-35.2-18.1c-2-5.1-4.8-18.4,10.1-31.9c12.7-11.4,26-17.1,39.8-17.1c15.2,0,27.7,7.5,34.4,14.5    c6.7,6.3,10,14.5,9.1,22.9c-1.1,10.5-8.5,17.9-15.1,21.3C1610.6,1314.1,1609.7,1314.4,1608.9,1314.8z M1659.4,1262.7    c-5.1,8.9-1.8,12.1,4.9,12.1c5.4,0,13.1-2.1,20.2-5c11.1-4.4,20.6-11.6,20.6-11.6s6.3-6.3-2.5-10.7c0,0-6.6-4.6-15.5-4.6    C1678.8,1242.9,1668.4,1246.9,1659.4,1262.7z M1664.4,1296.2c-15.8,0-22.9-9.2-25.2-13.2c-3.6-6.3-6.3-16.6,1.8-30.9    c15.1-26.7,35.5-30.7,46.2-30.7c12.7,0,22.3,5.1,26.3,7.5c11.1,6,14.2,15.2,14.9,20.1c2.1,12.9-5.7,21.9-8.1,24.3    c-0.7,0.7-1.5,1.4-2.3,2c-1.2,0.9-12.2,9-25.5,14.4C1685.1,1292.7,1674.2,1296.2,1664.4,1296.2z M1934.8,1355.2    c3.3-6,2.8-12.8-1.2-18.9c-4.5-7.7-16.7-19.3-37.9-19.3c-6.4,0-13.2,1.1-20.3,3.2c-18.1,5.5-18.8,17.3-18.6,20.8    c1.1,17,24.6,21.7,33.5,23.5c10.9,2.1,21.6,2.3,22.7,2.3h0.2c0.7,0,1.4,0,2.1-0.1C1923.9,1365.9,1931.2,1361.6,1934.8,1355.2z     M1868.5,1460.1c0.4-0.6,10-16.1,3.1-35c-5.2-14.3-18.1-26.4-38.4-35.9c-24.3-11.5-44.7-12.2-60.3-8.2    c-4.6,13.1-11.9,23.8-21.3,32.9c71.1,5.3,97.7,44.2,98.7,45.7c1.6,2.6,4.6,4.3,7.9,4.8c0.4,0.1,0.9,0.1,1.3,0.1    C1863.3,1464.6,1866.8,1462.9,1868.5,1460.1z M1671.3,1429.9c71.4-20,101.6-46.5,79.7-142.6c-13.4-58.9-35.4-102.5-48.3-124.6    c-15.6,27.4-43.5,48.7-82.2,62.2c-20.9,7.3-67.6,9.8-112.8-10.2c1.1,29.3,5.3,89.4,21.9,134.1    C1557.9,1424.4,1601.5,1449.3,1671.3,1429.9z M1777.7,1280.1c-2.5-0.1-4.3,0.4-6.4,0.6c0.1,0.6,0.4,1.2,0.4,1.9    c4,17.4,6.1,32.6,7,46.5c10.8,5.3,21.6,8.8,22.8,9.1c0.6,0.2,1.8,0.5,2.5,0.6c0,0,2,0.4,4.9,0.6c8.6,0.6,16.5-1.8,21.7-6.5    c2.9-2.6,7.4-8.3,5.5-16.9c-1.6-12-14.1-33.2-52.4-35.6C1782,1280.2,1779.9,1280.1,1777.7,1280.1z M1980.1,1255.5    c3.6,1.8,5.9,5.5,5.9,9.7c0,2.7-0.8,67.5-36.4,149.3c-29,66.5-61.3,90.1-101.3,90.1c-20.1,0-42-5.9-66.5-15.4    c-32.2-12.4-54.3-29.4-68-51.4c-11.1,4.8-23.3,9-36.7,12.7c-16.9,4.8-32.8,7.1-47.5,7.1c-55.1,0-94.6-33.4-119.9-101.2    c-24.1-64.7-23.7-155.5-23.7-159.4c0.1-3.8,2.1-7.3,5.3-9.2c3.3-1.9,7.3-1.9,10.6,0c45.5,26.3,94.8,22.6,111.6,16.8    c28.4-9.9,64.9-29.7,77.5-67.8c1.3-3.8,4.6-6.6,8.5-7.2c3.9-0.6,7.9,1,10.2,4.3c1.3,1.7,24.1,33.5,44.2,88.1    c13.3-21.2,23.9-35.5,24.5-36.2c2.6-3.4,7-5.1,11.1-3.9c4.2,1.1,7.3,4.5,8,8.8c4.4,28.9,45.4,65.1,69.8,74.5    c25.2,9.7,74.6,12.1,101.7-8.6C1972.1,1254,1976.5,1253.7,1980.1,1255.5z" style="fill: #ffffff;"/>
	</g>
</g>
</svg>
