<?xml version="1.0" encoding="UTF-8"?>
<!-- Generator: Adobe Illustrator 24.3.0, SVG Export Plug-In . SVG Version: 6.00 Build 0)  -->
<svg xmlns="http://www.w3.org/2000/svg" xmlns:xlink="http://www.w3.org/1999/xlink" version="1.1" id="Capa_1" x="0px" y="0px" viewBox="0 0 500 500" style="enable-background:new 0 0 500 500;" xml:space="preserve">
<style type="text/css">
	.st0{fill-rule:evenodd;clip-rule:evenodd;fill:#006AFF;}
</style>
<path class="st0" d="M249.9,468.8c147.3,0,218.8-71.6,218.8-218.7c0-147.3-71.6-218.8-218.8-218.8c-147.1,0-218.7,71.6-218.7,218.8  C31.2,397.2,102.8,468.8,249.9,468.8z M249.9,0C407.9,0,500,79.8,500,250.1S407.9,500,249.9,500S0,420.4,0,250.1S92,0,249.9,0z   M265.7,250.4l72.4,72.4c6.3,5.9,6.7,15.8,0.8,22.1c-5.9,6.3-15.8,6.7-22.1,0.8c-0.3-0.3-0.5-0.5-0.8-0.8l-77-77  c-2.9-2.9-4.6-6.9-4.6-11V152.7c0-8.6,7-15.7,15.7-15.7s15.7,7,15.7,15.7L265.7,250.4L265.7,250.4z" style="fill: #ffffff;"/>
</svg>
